<svg width="17" height="16" viewBox="0 0 17 16" fill="none" xmlns="http://www.w3.org/2000/svg">
<path d="M3.16732 4.0952V12.6446L6.54382 11.1975L10.5439 13.1975L13.834 11.7874V3.23805L14.7027 2.86576C14.8719 2.79324 15.0679 2.87162 15.1404 3.04083C15.1581 3.08233 15.1673 3.127 15.1673 3.17214V12.6666L10.5007 14.6666L6.50065 12.6666L2.29862 14.4675C2.12941 14.54 1.93346 14.4616 1.86094 14.2924C1.84315 14.251 1.83398 14.2062 1.83398 14.1611V4.66663L3.16732 4.0952ZM11.3291 7.49503L8.50065 10.3235L5.67222 7.49503C4.11012 5.93295 4.11012 3.4003 5.67222 1.8382C7.23432 0.276102 9.76698 0.276102 11.3291 1.8382C12.8912 3.4003 12.8912 5.93295 11.3291 7.49503ZM8.50065 8.43789L10.3863 6.55225C11.4277 5.51085 11.4277 3.82241 10.3863 2.78101C9.34485 1.73961 7.65645 1.73961 6.61503 2.78101C5.57364 3.82241 5.57364 5.51085 6.61503 6.55225L8.50065 8.43789Z" fill="#676563"/>
</svg>
