<svg width="483" height="175" viewBox="0 0 483 175" fill="none" xmlns="http://www.w3.org/2000/svg">
<path d="M35.9473 129.736C35.9473 129.736 131.757 144.16 132.937 143.548C134.075 142.936 146.509 94.3087 146.509 94.3087C146.509 94.3087 67.2655 81.3772 66.0009 81.3772C64.7364 81.3772 47.4966 93.8878 47.2437 94.7295C46.9908 95.5712 35.9473 129.736 35.9473 129.736Z" fill="#183658"/>
<path d="M328.263 142.093C330.581 142.284 446.623 140.027 446.623 140.027L437.897 115.809C437.897 115.809 421.796 93.7338 413.323 94.1164C404.809 94.5373 354.27 87.0768 345.545 92.5861C336.819 98.0953 329.021 93.6956 324.848 106.857C320.718 119.979 317.472 121.472 320.718 129.391C323.879 137.311 328.263 142.093 328.263 142.093Z" fill="#183658"/>
<path d="M84.3373 174.269C106.15 174.269 123.833 158.219 123.833 138.42C123.833 118.622 106.15 102.572 84.3373 102.572C62.5245 102.572 44.8418 118.622 44.8418 138.42C44.8418 158.219 62.5245 174.269 84.3373 174.269Z" fill="#1A1A1A"/>
<path d="M84.3369 163.364C99.5151 163.364 111.819 152.196 111.819 138.42C111.819 124.643 99.5151 113.475 84.3369 113.475C69.1588 113.475 56.8545 124.643 56.8545 138.42C56.8545 152.196 69.1588 163.364 84.3369 163.364Z" fill="#9E9DA2"/>
<path d="M84.3378 155.1C94.4876 155.1 102.716 147.632 102.716 138.42C102.716 129.207 94.4876 121.739 84.3378 121.739C74.188 121.739 65.96 129.207 65.96 138.42C65.96 147.632 74.188 155.1 84.3378 155.1Z" fill="#D8D9DD"/>
<path d="M388.457 174.269C410.27 174.269 427.953 158.219 427.953 138.42C427.953 118.622 410.27 102.572 388.457 102.572C366.645 102.572 348.962 118.622 348.962 138.42C348.962 158.219 366.645 174.269 388.457 174.269Z" fill="#1A1A1A"/>
<path d="M388.459 163.364C403.637 163.364 415.942 152.196 415.942 138.42C415.942 124.643 403.637 113.475 388.459 113.475C373.281 113.475 360.977 124.643 360.977 138.42C360.977 152.196 373.281 163.364 388.459 163.364Z" fill="#9E9DA2"/>
<path d="M370.08 138.42C370.08 147.64 378.3 155.101 388.458 155.101C398.616 155.101 406.836 147.64 406.836 138.42C406.836 129.199 398.616 121.739 388.458 121.739C378.3 121.701 370.08 129.199 370.08 138.42Z" fill="#D8D9DD"/>
<path d="M479.125 104.254C475.795 84.2831 465.004 80.0746 433.053 74.2593C397.815 67.8701 353.093 47.019 353.093 47.019C353.093 47.019 276.8 13.0834 258.127 9.18097C239.454 5.27857 193.467 6.38808 154.857 6.69415C116.246 6.96196 93.5691 16.718 73.9689 30.6059C54.3686 44.4939 20.3527 55.0916 20.3527 55.0916L14.1565 56.0864C7.79173 57.1193 3.19727 62.1312 3.19727 67.9848V117.568C3.19727 123.192 7.37023 128.089 13.3557 129.543L35.6957 134.9C37.5082 135.167 39.1943 134.02 39.405 132.336C41.8498 112.059 61.155 96.6407 84.2116 96.6407C108.701 96.679 128.807 114.928 128.807 137.195C128.807 139.72 128.554 142.207 128.049 144.579C127.543 147.066 129.65 149.323 132.432 149.323H337.919C341.923 149.323 345 146.148 344.494 142.551C344.241 140.83 344.115 139.07 344.115 137.272C344.031 115.311 363.631 97.0998 387.825 96.6407C412.905 96.1816 433.391 114.469 433.391 137.157C433.391 138.649 433.306 140.141 433.138 141.595C432.632 145.727 436.173 149.323 440.725 149.323H470.273C475.626 149.323 480.01 145.382 480.01 140.485V114.508C479.925 111.141 479.715 107.659 479.125 104.254Z" fill="#E88D0E"/>
<path d="M4.50312 73.8772H28.8243C30.8897 73.8772 32.3228 75.7901 31.522 77.55L28.7821 83.4802C26.1688 89.1425 20.099 92.8153 13.3548 92.8153H4.50312C2.77493 92.8153 1.3418 91.5528 1.3418 89.9459V76.7466C1.3418 75.1397 2.77493 73.8772 4.50312 73.8772Z" fill="#CF283C"/>
<path d="M440.427 83.06C453.831 84.9347 469.258 96.4506 469.258 96.4506C472.967 100.047 469.89 105.901 464.495 105.594L438.361 104.102C432.924 103.796 428.287 100.43 426.812 95.6854C424.241 87.6893 426.39 81.1088 440.427 83.06Z" fill="#EAFCFC"/>
<path d="M3.32217 119.443C1.63612 119.405 0.455874 120.935 1.08814 122.351C2.81633 126.368 6.56778 129.505 11.373 130.653L36.4107 136.66C38.434 136.966 40.3308 135.665 40.5837 133.79C41.0474 129.926 42.059 126.253 43.5343 122.772C44.0401 121.586 43.0706 120.323 41.7217 120.285L3.32217 119.443Z" fill="#EAB054"/>
<path d="M433.559 128.779C431.662 128.741 430.187 130.233 430.439 131.954C430.692 133.867 430.861 135.78 430.861 137.77C430.861 139.453 430.777 141.06 430.566 142.705C430.018 147.296 433.938 151.313 438.996 151.313H471.79C477.733 151.313 482.58 146.913 482.58 141.519V133.829C482.58 131.648 480.641 129.85 478.239 129.812L433.559 128.779Z" fill="#EAB054"/>
<path opacity="0.5" d="M353.133 58.5354C352.712 58.3058 309.254 36.6896 280.465 24.5616C251.929 12.5866 220.105 13.8491 218.756 13.8873C215.089 13.8108 138.922 12.3187 115.528 18.9375C91.9236 25.5945 61.2376 56.0103 59.9309 57.3111L59.5938 57.6555L67.8553 92.8536L68.7405 92.8153C92.7666 91.591 111.144 97.4064 121.935 109.611C130.07 118.831 131.082 128.587 131.082 128.702L131.166 129.544L217.786 131.572H218.798L219.852 131.61L340.572 133.752V132.796C341.163 97.1768 353.597 60.0275 353.681 59.6449L353.934 58.918L353.133 58.5354ZM132.979 127.669C132.557 125.029 130.745 116.689 123.579 108.501C115.865 99.7019 100.185 89.5251 69.4992 90.9024L61.8277 58.2293C65.3684 54.7478 94.4526 26.8954 116.16 20.7357C137.868 14.576 208.471 15.609 217.786 15.762V129.659L132.979 127.669ZM338.465 131.801L219.81 129.697V15.762C225.374 15.609 253.91 15.456 279.622 26.2832C306.304 37.4931 345.588 56.9285 351.447 59.8362C349.677 65.1542 339.224 98.975 338.465 131.801Z" fill="#FEB546"/>
<path opacity="0.5" d="M1.08691 122.352C2.81511 126.369 6.56656 129.507 11.3718 130.654L36.4095 136.661C38.4328 136.967 40.3296 135.666 40.5825 133.792C40.7511 132.3 41.0039 130.846 41.3412 129.43L1.08691 122.352Z" fill="#FEB546"/>
<path opacity="0.5" d="M430.778 139.912C430.736 140.868 430.651 141.786 430.525 142.743C429.977 147.334 433.897 151.351 438.955 151.351H471.749C477.692 151.351 482.539 146.951 482.539 141.557V139.95H430.778V139.912Z" fill="#FEB546"/>
<path d="M346.009 139.913C346.009 137.885 346.178 135.896 346.473 133.945C346.852 131.611 344.913 129.468 342.3 129.392L128.552 124.648C126.234 124.61 124.548 126.599 125.18 128.665C126.276 132.223 126.866 135.972 126.866 139.837C126.866 142.4 126.613 144.887 126.107 147.335C125.601 149.86 127.709 152.232 130.533 152.232H339.686C343.775 152.232 346.894 148.942 346.346 145.231C346.136 143.471 346.009 141.673 346.009 139.913Z" fill="#EAB054"/>
<path opacity="0.5" d="M346.009 139.913C346.009 139.874 346.009 139.836 346.009 139.798H126.908C126.908 142.361 126.655 144.848 126.149 147.297C125.644 149.822 127.751 152.194 130.575 152.194H339.729C343.817 152.194 346.937 148.903 346.389 145.192C346.136 143.471 346.009 141.673 346.009 139.913Z" fill="#FEB546"/>
<path d="M85.1785 61.8643L203.286 62.859C203.286 62.859 210.536 62.6677 211.505 56.5081C212.475 50.3484 212.39 23.8733 212.39 23.8733C212.39 23.8733 211.547 18.5553 205.941 18.4788C202.527 18.4405 173.991 16.6041 146.255 19.6648C123.62 22.1516 102.671 31.5633 86.7802 45.9869L78.3922 53.6004C78.3922 53.6004 72.7439 61.7495 85.1785 61.8643Z" fill="#EAFCFC"/>
<path d="M225.543 27.2407V54.9783C225.543 58.5747 228.578 61.5589 232.456 61.6736L325.272 65.0787C327.422 65.1552 329.487 64.2752 330.71 62.6301C332.396 60.4111 332.564 56.7382 324.261 51.8028C309.803 43.2711 273.005 24.7539 259.39 22.994C250.707 21.8462 239.369 21.3488 232.287 21.1575C228.62 21.0427 225.543 23.7974 225.543 27.2407Z" fill="#EAFCFC"/>
<path d="M102.672 48.8942C102.672 48.8942 179.64 40.9364 181.283 42.3137C182.927 43.6911 193.634 66.4168 195.573 72.6147L104.906 71.8495L98.541 63.1265L102.672 48.8942Z" fill="#B75742"/>
<path d="M265.882 55.1682C265.882 55.1682 272.963 62.7817 274.986 70.9691L272.752 74.2594L268.284 69.9744L265.882 55.1682Z" fill="#263D60"/>
<path d="M273.426 35.198C272.077 27.1636 264.069 21.3866 255.723 25.289C253.826 26.1689 251.297 27.9288 249.99 29.4591C246.492 33.5528 245.564 38.603 241.939 42.5819C243.288 43.5001 244.89 44.4566 246.787 45.3748L249.063 42.6202L248.304 46.0252C253.91 48.4738 261.835 50.4632 272.71 50.425C274.059 44.8775 274.143 39.4829 273.426 35.198Z" fill="#1A1A1A"/>
<path d="M254.67 52.8722C254.67 52.8722 246.619 52.4131 243.458 55.5503C240.254 58.6875 250.539 83.594 251.087 87.5729C251.677 91.5901 246.324 99.548 246.324 99.548C246.324 99.548 268.453 108.96 273.891 105.708C273.891 105.708 273.006 73.6084 272.458 70.7773C271.868 67.9079 267.063 56.2772 265.882 55.1294C264.702 54.0199 254.67 52.8722 254.67 52.8722Z" fill="#355389"/>
<path d="M257.324 43.1171C257.324 43.1171 257.282 43.3466 257.198 43.691C256.818 45.4509 255.47 51.2662 254.542 52.8731C253.404 54.8243 258.42 60.9839 263.225 60.2188C264.658 59.9892 262.003 54.5565 262.129 53.9826C262.382 52.8731 262.719 51.381 263.057 49.8124C263.267 48.9324 263.436 48.0524 263.605 47.2108C264.11 44.8387 264.532 42.9258 264.532 42.9258L257.324 43.1171Z" fill="#F7A491"/>
<path d="M103.263 50.2343C103.178 49.737 102.968 49.3161 102.673 48.8953L91.2497 59.3016C91.2497 59.3016 82.6509 71.6593 101.577 71.8506L106.761 71.8888L103.263 50.2343Z" fill="#B75742"/>
<path opacity="0.3" d="M257.199 43.692C257.283 43.3094 257.326 43.1181 257.326 43.1181L264.533 42.9651C264.533 42.9651 264.112 44.878 263.606 47.2501C263.437 48.0918 263.227 48.9335 263.058 49.8134C261.962 49.6604 260.782 49.163 259.602 48.2448C258.337 47.2501 257.494 46.0258 256.988 44.725C257.073 44.3424 257.157 43.9598 257.199 43.692Z" fill="#F47458"/>
<path d="M262.169 28.2728C262.169 28.2728 258.797 27.9284 256.648 30.4153C254.54 32.9021 252.222 40.6304 257.533 44.8006C262.802 49.0091 268.029 44.265 268.829 39.2148C269.588 34.2029 269.883 28.1198 262.169 28.2728Z" fill="#F7A491"/>
<path d="M270.349 39.1776C269.717 40.2871 268.663 40.8992 267.988 40.5549C267.314 40.2106 267.272 39.0246 267.904 37.9151C268.536 36.8056 269.59 36.1934 270.265 36.5377C270.939 36.8821 270.981 38.0681 270.349 39.1776Z" fill="#F7A491"/>
<path d="M262.55 27.4702C262.55 27.4702 257.998 34.8159 254.794 35.1219C251.548 35.4663 251.127 39.3686 251.127 39.3686C251.127 39.3686 252.307 30.3778 255.511 28.6562C258.714 26.9345 262.55 27.4702 262.55 27.4702Z" fill="#1A1A1A"/>
<path d="M255.639 36.9967C255.892 38.2975 255.386 39.4835 254.459 39.6748C253.531 39.8279 252.562 38.9096 252.309 37.6088C252.056 36.308 252.562 35.122 253.489 34.9307C254.417 34.7777 255.386 35.6959 255.639 36.9967Z" fill="#F7A491"/>
<path d="M244.214 88.454C244.214 88.3775 247.249 76.632 248.472 74.0304C249.694 71.4288 254.499 59.3391 254.499 59.3391L248.303 58.1147C248.303 58.1147 244.299 67.5647 242.486 71.8497C240.674 76.1347 241.432 84.016 241.348 86.235C241.348 86.2732 241.095 88.1097 241.095 88.1479C241.053 88.3775 240.969 88.6071 240.969 88.6453C240.885 88.7601 240.674 89.487 240.674 89.5635C240.674 89.6401 240.463 89.8696 240.421 89.9844C240.337 90.0991 240.168 91.5913 240.126 91.8591C240.084 92.0886 240.21 92.6625 240.21 92.6625L240.126 93.6572C240.084 94.3841 240.927 94.1928 240.927 94.1928C240.927 94.5372 241.053 94.7285 241.264 94.805C241.475 94.8815 241.728 94.805 241.77 94.8432C241.812 94.8432 241.812 94.958 241.812 94.958C241.77 95.1876 242.065 95.3406 242.233 95.3789C242.402 95.4171 242.739 95.3023 242.823 95.1876C242.908 95.0728 242.992 95.1111 242.992 95.1111C243.161 95.2641 243.877 95.2258 244.046 95.0345C244.214 94.8432 244.341 93.772 244.425 93.6572C244.51 93.5424 244.636 93.3894 244.678 93.2364C244.72 93.0833 245.268 91.9738 245.31 91.7825C245.353 91.5912 244.973 90.8261 244.931 90.367C244.847 89.9079 244.383 89.2575 244.257 89.0279C244.172 88.9896 244.214 88.7601 244.214 88.454Z" fill="#F48C7F"/>
<path d="M264.701 41.6631L259.475 41.4336C259.475 41.4336 259.475 43.2317 261.793 43.3848C264.575 43.6143 264.701 41.6631 264.701 41.6631Z" fill="white"/>
<path d="M236.207 45.2983L234.311 56.6229C234.311 56.6229 241.181 70.09 245.312 68.9422C248.768 67.9475 246.619 56.049 246.619 56.049C246.619 56.049 244.722 49.6598 245.312 46.446C245.86 43.194 236.207 45.2983 236.207 45.2983Z" fill="#F7A491"/>
<path d="M245.312 46.4093C245.86 43.1956 236.208 45.2998 236.208 45.2998L236.039 46.2563C236.334 46.8684 236.671 47.404 237.093 47.8249C239.243 49.9291 242.615 51.2299 245.565 51.3065C245.27 49.5466 245.102 47.7101 245.312 46.4093Z" fill="#F47458"/>
<path d="M234.605 29.2691C234.352 29.1926 232.413 42.1623 236.038 45.7204C239.663 49.2785 246.787 50.4645 249.316 47.6333C252.14 44.5344 251.971 30.5699 246.323 26.897C240.675 23.2625 234.605 29.2691 234.605 29.2691Z" fill="#F7A491"/>
<path d="M244.215 20.0104C239.832 20.8139 237.008 23.2624 235.954 24.2954C233.973 24.525 231.275 25.5197 228.493 29.7282C225.079 34.8931 227.608 40.632 231.57 43.4631C235.575 46.256 235.49 49.508 235.49 49.508L236.122 47.8246C236.586 46.5621 236.797 45.1848 236.628 43.884C236.544 43.0805 236.333 42.2006 235.996 41.5119C235.027 39.6372 238.061 38.3747 238.904 36.8061C239.537 35.6201 239.579 32.8654 240.633 30.876L241.855 29.3456C241.855 29.3456 244.679 27.3561 247.461 27.8918C250.201 28.4274 249.822 18.9392 244.215 20.0104Z" fill="#13375B"/>
<path d="M238.694 39.1013C238.737 40.6699 237.936 41.9707 236.924 42.009C235.912 42.009 235.069 40.7464 235.069 39.1778C235.069 37.6092 235.828 36.3084 236.84 36.2701C237.851 36.2319 238.694 37.4944 238.694 39.1013Z" fill="#F7A491"/>
<path d="M244.639 42.7359L250.118 42.468C250.118 42.468 250.118 44.381 247.674 44.534C244.765 44.7636 244.639 42.7359 244.639 42.7359Z" fill="white"/>
<path d="M232.752 56.1648C233.258 55.3231 234.186 54.7492 235.239 54.6344C239.834 54.2519 252.521 54.2518 259.013 64.4287C260.024 66.0356 260.783 67.7572 261.289 69.5554L262.637 74.6438L229.254 73.6491L229.296 70.2823C229.043 65.3852 230.181 60.488 232.752 56.1648Z" fill="#3C8F7C"/>
<path d="M311.994 76.5171L316.842 58.6502C317.179 57.4642 316.378 56.24 315.029 55.9339C313.723 55.6278 312.374 56.3547 312.037 57.579L306.979 76.2876L311.994 76.5171Z" fill="#1A1A1A"/>
<path d="M299.475 75.9822C300.866 75.217 301.962 74.5666 302.721 74.1457C302.763 74.1075 306.261 72.5771 306.346 72.5771C306.851 72.4241 307.273 72.271 307.357 72.271C307.61 72.271 309.128 71.8119 309.254 71.7354C309.38 71.6971 310.013 71.6971 310.266 71.6971C310.519 71.6971 313.343 70.3963 313.806 70.1668C314.27 69.9755 315.113 69.2103 315.113 69.2103L316.926 68.2539C318.274 67.5652 317.052 66.5322 317.052 66.5322C317.684 66.1879 317.853 65.8053 317.769 65.4227C317.642 65.0401 317.305 64.734 317.263 64.6575C317.263 64.581 317.431 64.4662 317.431 64.4662C317.853 64.2749 317.853 63.7011 317.726 63.395C317.6 63.0889 317.094 62.7446 316.799 62.7446C316.546 62.7063 316.504 62.5916 316.504 62.5916C316.546 62.1707 315.83 61.2142 315.324 61.176C314.818 61.1377 312.795 62.0559 312.542 62.0559C312.289 62.0559 311.867 61.9794 311.572 62.1324C311.277 62.2472 308.79 62.5533 308.369 62.7446C307.947 62.9359 307.02 64.1984 306.346 64.7341C305.671 65.3079 304.955 66.6852 304.744 67.0678C304.66 67.2209 304.196 67.4504 303.69 67.68C303.606 67.7565 288.389 72.7301 279.411 75.1787L299.475 75.9822Z" fill="#F7A491"/>
<path d="M252.056 74.2599C251.129 69.1332 249.948 63.7387 248.684 61.2136C245.944 55.7426 236.713 52.4906 232.203 55.8957C229.8 57.6938 230.812 66.3403 232.877 73.8008L252.056 74.2599Z" fill="#50BFA5"/>
<path d="M117.973 44.5338C117.973 44.5338 106.677 44.266 102.841 46.5998C99.0051 48.8953 99.4687 71.8506 99.4687 71.8506L103.178 72.501C103.178 72.501 104.527 88.3019 107.435 89.1053C110.344 89.947 129.312 84.6291 133.274 80.191C137.236 75.753 124.928 43.0034 124.928 43.0034L117.973 44.5338Z" fill="#3C8F7C"/>
<path d="M138.077 26.3219C139.046 23.5673 139.721 15.1886 139.931 12.3192C139.763 12.1279 138.962 10.9036 139.046 8.49332C139.088 6.80993 137.824 4.01701 139.004 4.2083C140.184 4.3996 140.269 7.30729 140.985 6.80992C141.702 6.31256 142.039 0.191136 143.093 0.344171C144.189 0.497207 143.43 6.27431 144.062 5.8152C144.695 5.3561 144.737 0.0381099 146.254 0.305922C147.772 0.535475 145.58 6.54209 146.381 6.69513C147.181 6.80991 148.488 3.02229 149.71 3.21358C150.933 3.40488 147.687 8.34029 148.067 8.11073C148.446 7.84292 151.059 5.81519 151.481 6.27429C151.987 6.77166 145.917 12.587 145.917 14.0791C146.423 17.9432 147.434 24.9064 146.043 29.3061C144.357 34.6624 140.058 46.5991 140.058 46.5991L130.911 44.6097C130.911 44.6862 136.897 29.6122 138.077 26.3219Z" fill="#F7A491"/>
<path d="M141.956 7.99512C142.42 8.18641 142.799 8.45421 143.094 8.79854C143.136 8.87506 144.274 9.83154 143.979 11.4384C143.811 10.4437 143.558 9.33418 141.956 7.99512Z" fill="#F48C7F"/>
<path d="M83.4084 49.009C83.4084 49.009 83.6613 47.67 82.3968 45.604C81.5959 44.2649 81.3852 41.5868 80.5421 42.1607C79.6991 42.7346 80.9637 45.1066 80.205 44.9536C79.4462 44.8005 76.4957 40.0182 75.7791 40.5538C75.0204 41.0894 78.1395 45.4127 77.423 45.2979C76.7485 45.1831 74.3881 40.9364 73.3343 41.6633C72.2805 42.3902 76.58 46.4074 76.032 46.8283C75.484 47.2108 72.8285 44.6475 71.9855 45.2214C71.1425 45.8335 75.7791 48.6264 75.3576 48.5499C74.9361 48.4734 72.0698 47.7847 71.9433 48.3204C71.7747 48.8942 77.8023 50.6159 78.4767 51.8402C79.1511 53.0644 89.4782 65.116 92.4288 65.1542C95.3793 65.1542 108.615 57.0434 109.584 54.3653C110.554 51.7254 109.331 48.9325 107.435 48.5499C105.496 48.1673 93.1453 56.2399 92.5552 56.1252C91.9651 56.0104 83.4084 49.009 83.4084 49.009Z" fill="#F7A491"/>
<path d="M80.332 46.1016C80.037 46.4459 79.8683 46.8668 79.7419 47.2876C79.7419 47.3641 79.2783 48.7415 80.4163 49.9657C80.0791 49.0475 79.6576 48.0145 80.332 46.1016Z" fill="#F48C7F"/>
<path d="M111.273 65.6907C111.273 65.6907 123.159 74.2607 124.466 76.0206C125.435 77.3214 122.19 92.0893 122.19 92.0893C122.19 92.0893 117.469 92.2041 115.319 90.712C115.319 90.712 116.626 80.4968 116.036 80.1142C115.488 79.7316 102.421 74.452 102.421 74.452L103.264 68.407L111.273 65.6907Z" fill="#B75742"/>
<path d="M134.118 34.8154C134.118 34.8154 136.183 35.1598 143.222 42.1229L135.045 57.2351L127.5 44.6862L134.118 34.8154Z" fill="#9BC1F9"/>
<path d="M120.839 45.4509C120.839 45.4509 126.192 44.3797 128.089 43.538C129.986 42.6963 147.394 79.9604 143.01 81.2612C133.821 84.0158 110.006 91.285 110.006 91.285C110.006 91.285 109.332 89.1425 110.175 85.2019C111.692 78.3918 111.186 63.203 110.849 60.5632C110.68 58.9945 100.522 63.5091 100.522 63.5091L96.5176 51.7254C96.5176 51.7254 108.109 48.129 111.987 47.0195C113.125 46.6752 120.839 45.4509 120.839 45.4509Z" fill="#9BC1F9"/>
<path d="M140.692 68.5215C138.5 62.3618 124.126 44.7244 124 44.5332L126.36 43.0793C126.866 43.768 138.626 58.7655 140.903 65.2695L140.692 68.5215Z" fill="#3C8F7C"/>
<path d="M109.46 79.9221L107.984 78.2005C108.069 78.1239 118.101 70.8548 118.396 62.7822C118.649 54.633 111.441 46.79 111.356 46.7135L113.211 45.2979C113.548 45.6422 121.135 53.8296 120.84 62.8587C120.503 71.926 109.923 79.616 109.46 79.9221Z" fill="#3C8F7C"/>
<path d="M118.267 20.5458C118.267 20.5458 122.524 17.6763 126.528 22.3439C129.732 26.055 129.31 24.869 130.912 26.7437C132.514 28.5801 134.916 28.7331 135.254 31.8321C135.633 34.8928 134.116 35.5432 134.116 35.5432C134.116 35.5432 135.844 37.8005 134.537 40.4021C133.23 43.0037 129.563 45.5288 126.233 45.4905C126.233 45.4905 121.597 48.4364 116.496 47.7478C111.396 47.0591 113.124 46.9061 111.101 47.0974C109.078 47.2887 103.303 45.2992 103.767 41.5499C103.767 41.5499 100.015 38.2596 102.882 35.0076C105.79 31.7556 107.35 29.4601 108.741 25.3281C110.132 21.1962 115.906 19.8188 118.267 20.5458Z" fill="#1A1A1A"/>
<path d="M123.96 41.7406C123.96 41.7406 124.423 47.1733 125.056 47.6324C125.688 48.0915 126.573 48.8567 125.899 50.2341C125.224 51.6114 121.557 51.1523 119.787 50.5401C118.101 49.9663 116.921 48.7802 116.921 48.7802L116.752 40.0955L123.96 41.7406Z" fill="#F7A491"/>
<path d="M121.85 44.2274C120.67 43.9596 118.563 43.4622 116.75 41.3197L116.708 40.0955L123.958 41.7406C123.958 41.7406 124.084 43.0797 124.253 44.457C123.284 44.5335 122.398 44.3422 121.85 44.2274Z" fill="#F48C7F"/>
<path d="M113.758 35.3508C113.758 35.3508 113.21 32.1753 111.102 33.017C108.995 33.8587 111.229 38.5263 112.999 38.1819C114.812 37.8376 113.758 35.3508 113.758 35.3508Z" fill="#F7A491"/>
<path d="M120.293 22.9939C120.293 22.9939 123.665 22.6113 125.688 24.8303C127.712 27.0493 130.367 33.7064 128.091 38.68C125.773 43.6537 122.021 42.8502 120.462 42.5442C118.902 42.1998 115.825 41.4347 113.802 37.1879C111.736 32.9029 111.652 22.9174 120.293 22.9939Z" fill="#F7A491"/>
<path d="M189.246 73.8013L195.485 100.736L184.736 99.779L179.594 75.1403L189.246 73.8013Z" fill="#F7A491"/>
<path d="M191.104 74.5665L179.596 75.1404C179.596 75.1404 178.753 67.9095 178.543 64.4662C178.29 60.296 178.374 54.8632 178.964 54.9398C180.566 55.2076 182.716 55.8579 184.022 57.3883C188.659 62.6298 191.104 74.5665 191.104 74.5665Z" fill="#5184CE"/>
<path d="M183.517 63.5472C183.812 64.8097 191.104 100.046 191.104 100.046C173.864 108.654 160.671 101.309 160.671 101.309C160.671 101.309 161.346 77.6264 160.46 74.3361C159.87 72.1554 157.763 57.8466 159.28 57.3875C161.261 56.7753 164.254 55.8571 166.741 55.5128C168.891 55.2067 177.194 54.7093 178.712 55.0919C178.712 55.0537 182.379 58.2292 183.517 63.5472Z" fill="#EAFCFC"/>
<path d="M177.321 29.956C177.321 29.956 184.318 29.8412 183.728 35.121C183.728 35.121 188.912 36.9574 185.456 41.2041C185.456 41.2041 189.165 45.7569 182.716 50.1567C182.716 50.1567 180.988 56.2781 173.738 53.3704C173.738 53.3704 171.588 54.8243 168.595 52.8731C165.603 50.9219 165.223 49.7741 165.223 49.7741C165.223 49.7741 158.648 48.6263 159.533 43.1553C159.533 43.1553 156.077 40.4772 161.303 37.1104C161.303 37.1104 161.219 29.5734 168.258 30.5681C168.3 30.5299 172.431 24.7911 177.321 29.956Z" fill="#13375B"/>
<path d="M166.401 42.3132C166.233 43.6522 165.263 44.6469 164.251 44.5322C163.24 44.4174 162.608 43.2314 162.776 41.8923C162.945 40.5532 163.914 39.5585 164.926 39.6733C165.938 39.7881 166.612 40.9741 166.401 42.3132Z" fill="#F7A491"/>
<path d="M182.798 46.3694C182.166 47.5937 180.943 48.2823 180.016 47.8997C179.089 47.5171 178.836 46.2163 179.468 44.9921C180.1 43.7678 181.323 43.0791 182.25 43.4617C183.177 43.8443 183.388 45.1451 182.798 46.3694Z" fill="#F7A491"/>
<path d="M174.37 50.4628C174.37 50.5393 174.96 54.0209 175.255 55.819C175.382 56.5077 174.96 57.1581 174.244 57.3876C172.347 58.038 168.638 58.8415 166.319 56.6224C166.109 56.4312 166.024 56.1251 166.024 55.8573L166.994 47.7847L174.37 50.4628Z" fill="#F7A491"/>
<path d="M174.958 53.9439C172.935 54.7091 167.118 54.0587 166.654 50.7302L166.991 47.8225L174.368 50.4624C174.368 50.5006 174.789 52.8727 174.958 53.9439Z" fill="#F48C7F"/>
<path d="M176.266 34.0494C176.266 34.0494 173.189 33.4373 170.281 35.0824C167.33 36.7276 162.567 43.2316 166.572 48.8939C170.534 54.5562 177.32 51.7633 179.681 47.287C182.041 42.8107 183.053 36.1537 176.266 34.0494Z" fill="#F7A491"/>
<path d="M174.37 48.0142L170.281 47.7847C170.281 47.7847 170.281 49.2002 172.094 49.3533C174.286 49.5446 174.37 48.0142 174.37 48.0142Z" fill="white"/>
<path d="M181.494 37.1867C181.494 37.1867 178.501 35.7329 176.309 35.9242C174.075 36.1155 166.867 40.8978 165.814 40.0944C164.76 39.2909 166.109 35.0825 166.952 34.4704C167.795 33.8582 171.125 32.0218 171.42 31.9835C171.715 31.9453 174.75 31.9835 175.255 32.1365C175.761 32.2513 179.555 33.8965 179.555 33.8965L181.494 37.1867Z" fill="#13375B"/>
<path d="M138.247 103.222C138.289 103.069 138.457 103.069 138.626 103.031C140.143 102.954 141.661 102.84 143.178 102.61C143.431 102.572 143.684 102.495 143.895 102.419C144.316 102.266 144.738 102.227 145.159 102.342C145.412 102.38 145.623 102.381 145.876 102.381C146.635 102.342 148.826 101.615 149.922 101.424C150.175 101.386 150.386 101.194 150.428 100.965C151.398 96.9477 153.463 87.9952 153.674 85.0493C153.927 81.2999 156.203 64.313 156.203 64.313L163.874 66.0346C163.874 66.0346 161.177 78.5835 160.502 84.6667C159.996 89.3342 155.191 99.3963 153.674 102.304C152.957 104.446 151.187 104.561 150.808 104.6C150.555 104.638 150.344 104.753 150.217 104.906C149.965 105.212 149.627 105.479 149.29 105.709C149.037 105.862 148.826 106.092 148.658 106.321C148.363 106.742 148.068 107.201 147.815 107.66C147.646 107.966 147.435 108.081 147.14 108.005C146.845 107.928 146.677 107.737 146.677 107.392C146.677 106.895 146.845 106.436 147.098 106.015C147.351 105.594 147.309 105.365 147.014 105.02C146.845 104.829 146.635 104.638 146.424 104.446C146.171 104.293 145.96 104.179 145.623 104.217C145.075 104.37 144.527 104.485 143.979 104.561L143.515 104.676L143.263 104.714C143.22 104.714 142.419 104.829 142.124 104.829C141.914 104.829 141.534 104.867 141.239 104.867C140.944 104.906 140.354 104.791 140.354 104.791C140.101 104.791 139.848 104.714 139.638 104.561C139.553 104.485 139.469 104.408 139.511 104.293C139.553 104.179 139.638 104.14 139.764 104.102C139.933 104.064 140.902 103.949 140.86 103.911C140.565 103.911 139.68 103.911 139.427 103.911C139.047 103.911 138.71 103.796 138.457 103.567C138.331 103.49 138.204 103.375 138.247 103.222Z" fill="#F7A491"/>
<path d="M151.059 74.5274L162.186 79.4245C162.186 79.4245 163.915 72.0023 165.221 67.4113C166.359 63.4706 160.795 56.4309 158.941 57.3874C154.852 59.5299 151.059 74.5274 151.059 74.5274Z" fill="#5184CE"/>
<path d="M226.345 61.4434L325.4 65.2692C325.4 65.2692 316.759 91.5148 316.548 92.8156C316.337 94.1164 283.839 110.223 275.661 110.032C267.484 109.841 248.432 103.643 244.343 102.533C240.255 101.424 229.59 93.8868 230.223 89.2575C230.897 84.6282 226.345 61.4434 226.345 61.4434Z" fill="#E88D0E"/>
<path d="M254.837 74.7588H228.24C227.565 74.7588 227.06 74.2614 227.06 73.6875V71.6216C227.06 71.0094 227.608 70.5503 228.24 70.5503H254.837C255.512 70.5503 256.017 71.0477 256.017 71.6216V73.6875C256.06 74.2614 255.512 74.7588 254.837 74.7588Z" fill="#EAB054"/>
<path d="M266.345 24.6777L279.749 29.6896L278.99 27.1645L273.974 24.6777C273.974 24.6777 269.885 23.9508 269.464 23.7595C269.127 23.5682 266.345 24.6777 266.345 24.6777Z" fill="#F7CC7F"/>
<path opacity="0.6" d="M330.33 56.7378L225.543 48.5886V54.9396C225.543 58.536 228.578 61.5201 232.456 61.6349L325.272 65.0399C327.422 65.1164 329.487 64.2365 330.71 62.5914C331.764 61.2141 332.227 59.2629 330.33 56.7378Z" fill="#C5DDF9"/>
<path opacity="0.7" d="M225.543 48.5877V47.7078L329.951 56.2778L330.33 56.7368L225.543 48.5877Z" fill="#C5DDF9"/>
<path opacity="0.2" d="M249.694 62.2856L259.22 62.6682L267.061 51.8409L257.787 51.114L249.694 62.2856Z" fill="white"/>
<path opacity="0.2" d="M266.639 62.9356L274.268 52.3762L270.727 52.1084L263.014 62.7826L266.639 62.9356Z" fill="white"/>
<path d="M83.6185 61.7878L203.285 62.8591L204.339 97.2921C204.339 97.2921 190.345 115.733 188.659 115.542C186.973 115.35 151.229 110.147 148.025 110.338C144.822 110.53 116.791 98.0572 115.485 98.2868C114.178 98.5546 105.411 94.2696 105.411 94.2696L91.1636 85.164L77.043 71.9647L83.6185 61.7878Z" fill="#E88D0E"/>
<path d="M107.857 72.6145H81.2594C80.5849 72.6145 80.0791 72.1171 80.0791 71.5432V69.4773C80.0791 68.8651 80.6271 68.406 81.2594 68.406H107.857C108.531 68.406 109.037 68.9034 109.037 69.4773V71.5432C109.037 72.1554 108.489 72.6145 107.857 72.6145Z" fill="#EAB054"/>
<path d="M125.559 36.8044L121.428 37.5314C121.428 37.5314 121.807 38.9469 123.662 38.6791C125.854 38.3348 125.559 36.8044 125.559 36.8044Z" fill="white"/>
<path d="M112.704 33.2084C112.704 33.2084 122.061 29.306 122.988 23.2229C123.916 17.1397 115.317 22.955 115.317 22.955L111.818 25.9775L112.704 33.2084Z" fill="#1A1A1A"/>
<path d="M228.957 60.6785C228.957 60.6785 230.685 61.7497 232.877 61.7114C232.877 61.7114 229.969 62.5149 229.885 62.4766C229.8 62.4001 228.325 61.3288 228.367 61.3288C228.367 61.2523 228.957 60.6785 228.957 60.6785Z" fill="#F7CC7F"/>
<path d="M237.977 21.3472L249.695 22.0359C249.695 22.0359 247.798 19.1665 246.955 19.1665C246.112 19.1665 240.801 19.1665 240.801 19.1665L237.977 21.3472Z" fill="#F7CC7F"/>
</svg>
