<svg width="64" height="64" viewBox="0 0 64 64" fill="none" xmlns="http://www.w3.org/2000/svg">
<path d="M17.2073 28.1668C17.084 29.7106 17.2038 31.2681 17.5658 32.7816C17.9062 34.205 18.4552 35.5661 19.1919 36.8219C17.0748 37.7337 15.2685 39.2272 13.9765 41.1052C12.6618 40.6912 11.4698 40.1072 10.4517 39.3848L10.4497 39.3834C8.30222 37.865 6.83301 35.6618 6.83301 33.1042V32.0002C6.83301 30.9835 7.23688 30.0085 7.95576 29.2896C8.67465 28.5707 9.64968 28.1668 10.6663 28.1668H17.2073ZM53.5515 39.3821L53.5477 39.3848C52.5293 40.1074 51.3376 40.6911 50.024 41.1021C49.2907 40.036 48.3905 39.0915 47.3558 38.306C46.5673 37.7074 45.7107 37.2089 44.8061 36.8198C45.5392 35.5624 46.0859 34.2009 46.4255 32.7778C46.7865 31.2654 46.9074 29.7096 46.7874 28.1668H53.333C54.3497 28.1668 55.3247 28.5707 56.0436 29.2896C56.7625 30.0085 57.1663 30.9835 57.1663 32.0002V33.1042C57.1663 35.6629 55.6961 37.8705 53.5515 39.3821ZM40.1916 54.8854L40.1904 54.8863C38.0436 56.3206 35.143 57.1668 31.9997 57.1668C28.8545 57.1668 25.9554 56.325 23.8109 54.8875L23.8064 54.8846C21.6672 53.4615 20.1663 51.3608 20.1663 48.8908V48.0002C20.1663 46.9835 20.5702 46.0085 21.2891 45.2896C22.008 44.5707 22.983 44.1668 23.9997 44.1668H39.9997C41.0163 44.1668 41.9914 44.5707 42.7103 45.2896C43.4291 46.0085 43.833 46.9835 43.833 48.0002V48.8908C43.833 51.3597 42.3281 53.4611 40.1916 54.8854ZM25.1663 13.3335C25.1663 14.1871 24.9982 15.0323 24.6716 15.8209C24.3449 16.6096 23.8661 17.3261 23.2625 17.9297C22.659 18.5333 21.9424 19.0121 21.1538 19.3387C20.3652 19.6654 19.5199 19.8335 18.6663 19.8335C17.8127 19.8335 16.9675 19.6654 16.1789 19.3387C15.3903 19.0121 14.6737 18.5333 14.0701 17.9297C13.4666 17.3261 12.9878 16.6096 12.6611 15.8209C12.3345 15.0323 12.1663 14.1871 12.1663 13.3335C12.1663 11.6096 12.8512 9.95629 14.0701 8.7373C15.2891 7.51832 16.9424 6.8335 18.6663 6.8335C20.3902 6.8335 22.0436 7.51832 23.2625 8.7373L24.2996 7.70021L23.2625 8.7373C24.4815 9.95629 25.1663 11.6096 25.1663 13.3335ZM34.4871 35.3387C33.6985 35.6654 32.8533 35.8335 31.9997 35.8335C30.2758 35.8335 28.6225 35.1487 27.4035 33.9297C26.1845 32.7107 25.4997 31.0574 25.4997 29.3335C25.4997 27.6096 26.1845 25.9563 27.4035 24.7373C28.6225 23.5183 30.2758 22.8335 31.9997 22.8335C32.8533 22.8335 33.6985 23.0016 34.4871 23.3283C35.2757 23.6549 35.9923 24.1337 36.5959 24.7373C37.1994 25.3409 37.6782 26.0574 38.0049 26.8461C38.3316 27.6347 38.4997 28.4799 38.4997 29.3335C38.4997 30.1871 38.3316 31.0323 38.0049 31.8209C37.6782 32.6096 37.1994 33.3261 36.5959 33.9297C35.9923 34.5333 35.2757 35.0121 34.4871 35.3387ZM52.5959 17.9297C51.3769 19.1487 49.7236 19.8335 47.9997 19.8335C46.2758 19.8335 44.6225 19.1487 43.4035 17.9297C42.1845 16.7107 41.4997 15.0574 41.4997 13.3335C41.4997 11.6096 42.1845 9.95629 43.4035 8.7373C44.6225 7.51832 46.2758 6.8335 47.9997 6.8335C49.7236 6.8335 51.3769 7.51832 52.5959 8.7373C53.8149 9.95629 54.4997 11.6096 54.4997 13.3335C54.4997 15.0574 53.8149 16.7107 52.5959 17.9297Z" fill="black" stroke="#E88D0E" stroke-width="3"/>
</svg>
