<svg width="161" height="45" viewBox="0 0 161 45" fill="none" xmlns="http://www.w3.org/2000/svg">
<path d="M2.99983 17.6444L12.6555 7.09287C17.2027 2.12375 25.3569 3.46827 28.0681 9.63418V9.63418C30.7793 15.8001 38.9336 17.1446 43.4808 12.1755V12.1755C48.028 7.20638 56.1822 8.5509 58.8934 14.7168V14.7168C61.6046 20.8827 69.7589 22.2272 74.3061 17.2581V17.2581C78.8533 12.289 87.0076 13.6335 89.7188 19.7994V19.7994C92.4299 25.9653 100.584 27.3099 105.131 22.3407V22.3407C109.679 17.3716 117.833 18.7161 120.544 24.8821V24.8821C123.255 31.048 131.41 32.3925 135.957 27.4234V27.4234C140.504 22.4543 148.658 23.7988 151.369 29.9647L157.126 43.0575" stroke="#E88D0E" stroke-width="8"/>
</svg>
