<svg width="64" height="32" viewBox="0 0 64 32" fill="none" xmlns="http://www.w3.org/2000/svg">
<path d="M5.47751 27.3951L4.49586 28.3937C4.26349 28.159 3.96473 28.0417 3.59957 28.0417C3.23441 28.0417 2.93328 28.1614 2.69617 28.4009C2.46379 28.6355 2.34761 28.9373 2.34761 29.306C2.34761 29.6748 2.46379 29.9789 2.69617 30.2184C2.93328 30.4531 3.23441 30.5704 3.59957 30.5704C3.96947 30.5704 4.26823 30.4507 4.49586 30.2112L5.49174 31.2026C4.96535 31.7342 4.33462 32 3.59957 32C2.86452 32 2.23616 31.7366 1.71451 31.2098C1.19286 30.6829 0.932036 30.0484 0.932036 29.306C0.932036 28.5637 1.19286 27.9291 1.71451 27.4023C2.23616 26.8755 2.86452 26.6121 3.59957 26.6121C4.33462 26.6121 4.96061 26.8731 5.47751 27.3951Z" fill="#E88D0E"/>
<path d="M7.12633 31.217C6.60942 30.6901 6.35097 30.0556 6.35097 29.3132C6.35097 28.5709 6.60942 27.9363 7.12633 27.4095C7.64798 26.8779 8.27633 26.6121 9.01139 26.6121C9.74644 26.6121 10.3748 26.8779 10.8964 27.4095C11.4181 27.9363 11.6789 28.5709 11.6789 29.3132C11.6789 30.0556 11.4181 30.6901 10.8964 31.217C10.3748 31.739 9.74644 32 9.01139 32C8.27633 32 7.64798 31.739 7.12633 31.217ZM9.90768 30.2184C10.159 29.9646 10.2847 29.6604 10.2847 29.306C10.2847 28.9516 10.159 28.6499 9.90768 28.4009C9.66108 28.147 9.36232 28.0201 9.01139 28.0201C8.66046 28.0201 8.36169 28.147 8.1151 28.4009C7.8685 28.6499 7.7452 28.9516 7.7452 29.306C7.7452 29.6604 7.8685 29.9646 8.1151 30.2184C8.36644 30.4674 8.6652 30.592 9.01139 30.592C9.36232 30.592 9.66108 30.4674 9.90768 30.2184Z" fill="#E88D0E"/>
<path d="M17.1498 32H16.5736L14.0555 29.4497V32H12.6541V26.6121H13.2232L15.7485 29.1552V26.6121H17.1498V32Z" fill="#E88D0E"/>
<path d="M18.2254 32V26.6121H20.2029C20.938 26.6121 21.5663 26.8755 22.088 27.4023C22.6096 27.9291 22.8705 28.5637 22.8705 29.306C22.8705 30.0484 22.6096 30.6829 22.088 31.2098C21.5663 31.7366 20.938 32 20.2029 32H18.2254ZM19.6196 28.056V30.6063H20.21C20.5562 30.6063 20.8526 30.4818 21.0992 30.2328C21.3505 29.9837 21.4762 29.682 21.4762 29.3276C21.4762 28.978 21.3505 28.6786 21.0992 28.4296C20.8526 28.1805 20.5562 28.056 20.21 28.056H19.6196Z" fill="#E88D0E"/>
<path d="M25.2397 26.6121V29.852C25.2397 30.0484 25.3061 30.216 25.4388 30.3549C25.5764 30.489 25.7423 30.556 25.9368 30.556C26.1312 30.556 26.2948 30.489 26.4276 30.3549C26.5651 30.216 26.6339 30.0484 26.6339 29.852V26.6121H28.0424V29.8736C28.0424 30.4626 27.8361 30.9655 27.4235 31.3822C27.0157 31.7941 26.5201 32 25.9368 32C25.3487 32 24.8508 31.7941 24.443 31.3822C24.0351 30.9703 23.8312 30.4674 23.8312 29.8736V26.6121H25.2397Z" fill="#E88D0E"/>
<path d="M33.5283 27.3951L32.5467 28.3937C32.3143 28.159 32.0155 28.0417 31.6504 28.0417C31.2852 28.0417 30.9841 28.1614 30.747 28.4009C30.5146 28.6355 30.3984 28.9373 30.3984 29.306C30.3984 29.6748 30.5146 29.9789 30.747 30.2184C30.9841 30.4531 31.2852 30.5704 31.6504 30.5704C32.0203 30.5704 32.319 30.4507 32.5467 30.2112L33.5425 31.2026C33.0161 31.7342 32.3854 32 31.6504 32C30.9153 32 30.287 31.7366 29.7653 31.2098C29.2437 30.6829 28.9828 30.0484 28.9828 29.306C28.9828 28.5637 29.2437 27.9291 29.7653 27.4023C30.287 26.8755 30.9153 26.6121 31.6504 26.6121C32.3854 26.6121 33.0114 26.8731 33.5283 27.3951Z" fill="#E88D0E"/>
<path d="M34.4294 28.0129V26.6049H38.6334V28.0129H37.2178V32H35.8165V28.0129H34.4294Z" fill="#E88D0E"/>
<path d="M39.9842 31.217C39.4673 30.6901 39.2089 30.0556 39.2089 29.3132C39.2089 28.5709 39.4673 27.9363 39.9842 27.4095C40.5059 26.8779 41.1342 26.6121 41.8693 26.6121C42.6044 26.6121 43.2327 26.8779 43.7544 27.4095C44.276 27.9363 44.5368 28.5709 44.5368 29.3132C44.5368 30.0556 44.276 30.6901 43.7544 31.217C43.2327 31.739 42.6044 32 41.8693 32C41.1342 32 40.5059 31.739 39.9842 31.217ZM42.7656 30.2184C43.0169 29.9646 43.1426 29.6604 43.1426 29.306C43.1426 28.9516 43.0169 28.6499 42.7656 28.4009C42.519 28.147 42.2202 28.0201 41.8693 28.0201C41.5184 28.0201 41.2196 28.147 40.973 28.4009C40.7264 28.6499 40.6031 28.9516 40.6031 29.306C40.6031 29.6604 40.7264 29.9646 40.973 30.2184C41.2243 30.4674 41.5231 30.592 41.8693 30.592C42.2202 30.592 42.519 30.4674 42.7656 30.2184Z" fill="#E88D0E"/>
<path d="M50.2211 32H48.6064L47.7812 30.5704H46.9134V32H45.512V26.6121H47.7599C48.3005 26.6121 48.7629 26.806 49.147 27.194C49.5311 27.5819 49.7232 28.0488 49.7232 28.5948C49.7232 29.1695 49.5122 29.6533 49.0901 30.046L50.2211 32ZM46.9134 27.8046V29.3491H47.7812C47.9946 29.3491 48.1748 29.2749 48.3218 29.1264C48.4736 28.978 48.5495 28.796 48.5495 28.5805C48.5495 28.3649 48.4736 28.1829 48.3218 28.0345C48.1748 27.8812 47.9946 27.8046 47.7812 27.8046H46.9134Z" fill="#E88D0E"/>
<path d="M50.8172 31.8348C50.7128 31.7198 50.6607 31.5809 50.6607 31.4181C50.6607 31.2553 50.7128 31.1212 50.8172 31.0158C50.9262 30.9056 51.0614 30.8506 51.2226 30.8506C51.3839 30.8506 51.5166 30.9056 51.621 31.0158C51.73 31.1212 51.7846 31.2553 51.7846 31.4181C51.7846 31.5809 51.73 31.7198 51.621 31.8348C51.5166 31.9449 51.3839 32 51.2226 32C51.0614 32 50.9262 31.9449 50.8172 31.8348Z" fill="#E88D0E"/>
<path d="M57.1142 32H56.538L54.0199 29.4497V32H52.6185V26.6121H53.1876L55.7129 29.1552V26.6121H57.1142V32Z" fill="#E88D0E"/>
<path d="M60.4177 29.1049H63.0852V29.306C63.0852 30.0484 62.8244 30.6829 62.3027 31.2098C61.7811 31.7366 61.1527 32 60.4177 32C59.6826 32 59.0543 31.7366 58.5326 31.2098C58.0157 30.6829 57.7572 30.0484 57.7572 29.306C57.7572 28.5637 58.0157 27.9291 58.5326 27.4023C59.0543 26.8755 59.6826 26.6121 60.4177 26.6121C61.1432 26.6121 61.7692 26.8731 62.2956 27.3951L61.3068 28.3865C61.0555 28.147 60.7591 28.0273 60.4177 28.0273C60.0762 28.0273 59.7798 28.1494 59.5285 28.3937C59.2819 28.6379 59.1586 28.942 59.1586 29.306C59.1586 29.6652 59.2843 29.9693 59.5356 30.2184C59.7869 30.4626 60.081 30.5848 60.4177 30.5848C60.6263 30.5848 60.8231 30.5369 61.0081 30.4411C61.193 30.3453 61.34 30.216 61.4491 30.0532H60.4177V29.1049Z" fill="#E88D0E"/>
<path fill-rule="evenodd" clip-rule="evenodd" d="M20.1327 0C14.396 1.47574 12.3706 4.82341 8.75886 6.00886C4.42352 7.43163 1.14715 6.91997 0.302386 11.6312C0.0266332 13.1687 -0.0724165 16.7958 0.0548007 18.4205C0.242165 20.8116 2.40028 20.9337 4.70198 20.7613C3.8737 11.9688 13.0573 10.2891 16.6567 14.7658C18.1334 16.6021 18.3821 17.8011 18.2035 20.721L20.1327 20.7196V0ZM43.8672 20.7034L45.1973 20.7025C45.3362 19.3742 44.9713 18.794 45.44 17.2168C47.1092 11.5972 54.4558 10.9715 57.2603 14.8127C59.4253 17.7779 58.6013 18.5318 58.8084 20.7179C59.6367 20.6958 62.6549 20.8458 63.1867 20.6375C64.2082 19.817 64.0652 16.0125 63.8323 14.4779C63.4748 12.1179 62.7416 11.1278 61.0817 10.2504C58.8038 9.04642 55.4792 8.4502 52.7868 7.99193C48.3057 7.22972 50.4381 8.01645 47.6976 5.99085C46.4233 5.04907 45.155 4.22146 43.8672 3.49839V20.7034Z" fill="#E88D0E"/>
<path fill-rule="evenodd" clip-rule="evenodd" d="M46.7823 20.2867C47.2443 22.8621 49.7058 25.1656 52.9655 24.5716C55.5306 24.1042 57.8193 21.5976 57.2391 18.3343C56.7748 15.7239 54.2942 13.3962 51.0495 14.0004C48.4392 14.4864 46.1966 17.0212 46.7823 20.2867Z" fill="#E88D0E"/>
<path fill-rule="evenodd" clip-rule="evenodd" d="M16.6915 20.1695C17.2381 16.9665 14.9404 14.4146 12.337 13.9864C9.16238 13.4642 6.6246 15.7271 6.19646 18.3976C5.68653 21.5771 7.88622 24.1246 10.5187 24.5777C13.7496 25.1338 16.2357 22.8399 16.6915 20.1695Z" fill="#E88D0E"/>
<path fill-rule="evenodd" clip-rule="evenodd" d="M24.8212 6.47676H27.9437V3.63267H22.005C22.005 5.19693 23.2722 6.47676 24.8212 6.47676Z" fill="#E88D0E"/>
<path fill-rule="evenodd" clip-rule="evenodd" d="M24.8212 0.456164H27.9437V3.30025H22.005C22.005 1.73599 23.2722 0.456164 24.8212 0.456164Z" fill="#E88D0E"/>
<path fill-rule="evenodd" clip-rule="evenodd" d="M38.8652 13.4837H41.9877V10.6396H36.049C36.049 12.2039 37.3163 13.4837 38.8652 13.4837Z" fill="#E88D0E"/>
<path fill-rule="evenodd" clip-rule="evenodd" d="M38.8652 7.46307H41.9877V10.3072H36.049C36.049 8.74289 37.3163 7.46307 38.8652 7.46307Z" fill="#E88D0E"/>
<path d="M31.9353 6.45367C33.5753 6.45367 34.9047 5.11108 34.9047 3.45492C34.9047 1.79875 33.5753 0.456164 31.9353 0.456164C30.2954 0.456164 28.966 1.79875 28.966 3.45492C28.966 5.11108 30.2954 6.45367 31.9353 6.45367Z" fill="#E88D0E"/>
<path fill-rule="evenodd" clip-rule="evenodd" d="M36.049 0.456164V6.47062H41.2061L36.049 0.456164Z" fill="#E88D0E"/>
<path fill-rule="evenodd" clip-rule="evenodd" d="M41.9877 6.47062V0.456164H36.8306L41.9877 6.47062Z" fill="#E88D0E"/>
<path d="M31.9353 20.561C33.5753 20.561 34.9047 19.2184 34.9047 17.5623C34.9047 15.9061 33.5753 14.5635 31.9353 14.5635C30.2954 14.5635 28.966 15.9061 28.966 17.5623C28.966 19.2184 30.2954 20.561 31.9353 20.561Z" fill="#E88D0E"/>
<path fill-rule="evenodd" clip-rule="evenodd" d="M24.9629 7.46307H22.005V13.4837H24.9629C26.6023 13.4837 27.9437 12.1291 27.9437 10.4734C27.9437 8.81773 26.6023 7.46307 24.9629 7.46307Z" fill="#E88D0E"/>
<path fill-rule="evenodd" clip-rule="evenodd" d="M28.9546 10.7422V7.19424H34.9161V10.7422C34.9161 12.3979 33.5748 13.7525 31.9353 13.7525C30.2959 13.7525 28.9546 12.3979 28.9546 10.7422Z" fill="#E88D0E"/>
<path d="M41.995 20.5665L40.5652 18.3877C41.0508 17.9863 41.3655 17.4102 41.3655 16.7689C41.3655 15.5515 40.2504 14.5581 38.8834 14.5581H36.0416V20.5665H41.995Z" fill="#E88D0E"/>
<path fill-rule="evenodd" clip-rule="evenodd" d="M27.9437 14.5635H22.005V17.4076H23.5662V20.561H26.3824V17.4076H27.9437V14.5635Z" fill="#E88D0E"/>
</svg>
