<svg width="126" height="45" viewBox="0 0 126 45" fill="none" xmlns="http://www.w3.org/2000/svg">
<rect x="0.605932" y="0.605932" width="124.788" height="43.4093" rx="6.27662" fill="#090909" stroke="#A6A6A6" stroke-width="0.788136"/>
<g filter="url(#filter0_ii_4834_17287)">
<path d="M13.3745 11.7927C13.1066 12.0552 12.9482 12.4627 12.9482 12.9904V31.8426C12.9482 32.3711 13.1066 32.7777 13.3745 33.0402L13.4427 33.1016L24.8497 22.5409V22.4165V22.292L13.4427 11.7305L13.3745 11.7927Z" fill="url(#paint0_linear_4834_17287)"/>
<path d="M28.6513 26.0621L24.8496 22.5408V22.4163V22.2919L28.6523 18.7714L28.7379 18.8165L33.2431 21.1863C34.5293 21.8631 34.5293 22.9704 33.2431 23.6481L28.7379 26.0178L28.6513 26.0621Z" fill="url(#paint1_linear_4834_17287)"/>
<g filter="url(#filter1_i_4834_17287)">
<path d="M28.7384 26.0169L24.8492 22.4163L13.375 33.04C13.7985 33.456 14.4992 33.5071 15.2883 33.0929L28.7384 26.0169Z" fill="url(#paint2_linear_4834_17287)"/>
</g>
<path d="M28.7384 18.8158L15.2883 11.7407C14.4992 11.3256 13.7985 11.3776 13.375 11.7936L24.8502 22.4173L28.7384 18.8158Z" fill="url(#paint3_linear_4834_17287)"/>
</g>
<path d="M63.1393 23.4479C61.0939 23.4479 59.4269 24.8818 59.4269 26.8569C59.4269 28.8198 61.0939 30.2658 63.1393 30.2658C65.1854 30.2658 66.8525 28.8198 66.8525 26.8569C66.8516 24.8818 65.1846 23.4479 63.1393 23.4479ZM63.1393 28.9241C62.0183 28.9241 61.0522 28.072 61.0522 26.8577C61.0522 25.6305 62.0192 24.7913 63.1393 24.7913C64.2602 24.7913 65.2263 25.6305 65.2263 26.8577C65.2263 28.0712 64.2602 28.9241 63.1393 28.9241ZM55.0397 23.4479C52.9944 23.4479 51.3274 24.8818 51.3274 26.8569C51.3274 28.8198 52.9944 30.2658 55.0397 30.2658C57.0859 30.2658 58.753 28.8198 58.753 26.8569C58.753 24.8818 57.0859 23.4479 55.0397 23.4479ZM55.0397 28.9241C53.9188 28.9241 52.9527 28.072 52.9527 26.8577C52.9527 25.6305 53.9197 24.7913 55.0397 24.7913C56.1607 24.7913 57.1268 25.6305 57.1268 26.8577C57.1277 28.0712 56.1607 28.9241 55.0397 28.9241ZM45.4062 24.4947V25.9407H49.1612C49.049 26.7543 48.7551 27.3482 48.3064 27.761C47.7603 28.2644 46.9054 28.8198 45.4062 28.8198C43.0948 28.8198 41.2878 27.1021 41.2878 24.9716C41.2878 22.8411 43.0948 21.1234 45.4062 21.1234C46.6532 21.1234 47.5637 21.5754 48.2359 22.1566L49.3429 21.1362C48.4038 20.3098 47.1576 19.6774 45.4062 19.6774C42.24 19.6774 39.5781 22.0532 39.5781 24.9716C39.5781 27.8901 42.24 30.2658 45.4062 30.2658C47.115 30.2658 48.4046 29.7488 49.4125 28.7806C50.4491 27.8251 50.7717 26.4817 50.7717 25.3972C50.7717 25.0622 50.7439 24.752 50.6874 24.4939L45.4062 24.4947ZM84.8064 25.6177C84.4985 24.8562 83.5594 23.4479 81.6401 23.4479C79.7348 23.4479 78.1513 24.8297 78.1513 26.8569C78.1513 28.7677 79.7209 30.2658 81.8219 30.2658C83.5168 30.2658 84.4977 29.3104 84.9046 28.7549L83.6437 27.9798C83.2237 28.5481 82.6489 28.9224 81.8219 28.9224C80.9958 28.9224 80.407 28.5738 80.0288 27.8892L84.9742 26.004L84.8064 25.6177ZM79.7627 26.7543C79.7209 25.4365 80.8697 24.7656 81.6967 24.7656C82.341 24.7656 82.8872 25.063 83.0698 25.4886L79.7627 26.7543ZM75.7425 30.0598H77.3669V20.0397H75.7425V30.0598ZM73.0797 24.2101H73.0241C72.6597 23.8094 71.9588 23.4479 71.077 23.4479C69.2274 23.4479 67.5325 24.946 67.5325 26.8705C67.5325 28.7814 69.2274 30.2666 71.077 30.2666C71.9597 30.2666 72.6597 29.9051 73.0241 29.4923H73.0797V29.9829C73.0797 31.287 72.3232 31.9844 71.1049 31.9844C70.11 31.9844 69.4935 31.3263 69.2413 30.7708L67.8264 31.3135C68.2325 32.2168 69.3109 33.3278 71.1049 33.3278C73.0102 33.3278 74.6215 32.2946 74.6215 29.7761V23.6555H73.0806L73.0797 24.2101ZM71.217 28.9241C70.0961 28.9241 69.1578 28.0584 69.1578 26.8705C69.1578 25.669 70.0961 24.7913 71.217 24.7913C72.3232 24.7913 73.1919 25.669 73.1919 26.8705C73.1919 28.0584 72.3232 28.9241 71.217 28.9241ZM92.4189 20.0397H88.5309V30.0598H90.1527V26.2637H92.418C94.2164 26.2637 95.9852 25.0638 95.9852 23.1521C95.9852 21.2404 94.2173 20.0397 92.4189 20.0397ZM92.4607 24.869H90.1527V21.4344H92.4607C93.6738 21.4344 94.3625 22.3602 94.3625 23.1521C94.3625 23.928 93.6738 24.869 92.4607 24.869ZM102.489 23.4302C101.314 23.4302 100.098 23.9071 99.594 24.9644L101.034 25.5183C101.342 24.9644 101.916 24.7832 102.517 24.7832C103.356 24.7832 104.209 25.2473 104.223 26.0721V26.1755C103.929 26.0208 103.299 25.7892 102.531 25.7892C100.978 25.7892 99.3975 26.5755 99.3975 28.0447C99.3975 29.3857 100.671 30.249 102.097 30.249C103.187 30.249 103.789 29.7977 104.166 29.2687H104.222V30.0422H105.789V26.2004C105.79 24.4225 104.348 23.4302 102.489 23.4302ZM102.292 28.9216C101.762 28.9216 101.02 28.6764 101.02 28.0704C101.02 27.2969 101.944 27.0003 102.741 27.0003C103.453 27.0003 103.79 27.1422 104.223 27.3354C104.097 28.2644 103.23 28.9216 102.292 28.9216ZM111.495 23.649L109.635 27.9935H109.58L107.649 23.649H105.901L108.796 29.7208L107.146 33.0985H108.838L113.3 23.649H111.495ZM96.8809 30.0598H98.5027V20.0397H96.8809V30.0598Z" fill="white"/>
<path d="M45.2029 14.1128C45.2029 14.7723 44.9875 15.2972 44.5557 15.6892C44.0656 16.1551 43.4262 16.3881 42.6408 16.3881C41.8884 16.3881 41.248 16.152 40.7224 15.6797C40.1959 15.2067 39.9326 14.6212 39.9326 13.9223C39.9326 13.2226 40.1959 12.6371 40.7224 12.1649C41.248 11.6919 41.8884 11.4558 42.6408 11.4558C43.0144 11.4558 43.3714 11.5219 43.7103 11.6533C44.05 11.7855 44.3219 11.961 44.5252 12.1806L44.0674 12.5962C43.7224 12.2223 43.2472 12.0358 42.6399 12.0358C42.0908 12.0358 41.6164 12.2105 41.2159 12.56C40.8153 12.9094 40.6155 13.3635 40.6155 13.9215C40.6155 14.4795 40.8153 14.9336 41.2159 15.2831C41.6164 15.6325 42.0908 15.8072 42.6399 15.8072C43.222 15.8072 43.7077 15.6317 44.096 15.2799C44.348 15.0509 44.494 14.7322 44.5331 14.3237H42.6399V13.7562H45.1656C45.1916 13.8798 45.2029 13.9986 45.2029 14.1128Z" fill="white"/>
<path d="M49.2083 12.1405H46.8347V13.6374H48.9755V14.2049H46.8347V15.7018H49.2083V16.2826H46.1648V11.5605H49.2083V12.1405Z" fill="white"/>
<path d="M52.0328 16.2826H51.3629V12.1405H49.9067V11.5605H53.4889V12.1405H52.0328V16.2826Z" fill="white"/>
<path d="M56.0806 16.2826V11.5605H56.7505V16.2826H56.0806Z" fill="white"/>
<path d="M59.7211 16.2826H59.0513V12.1405H57.5951V11.5605H61.1773V12.1405H59.7211V16.2826Z" fill="white"/>
<path d="M67.9583 15.6727C67.4457 16.1496 66.8088 16.3881 66.0469 16.3881C65.2849 16.3881 64.6481 16.1496 64.1363 15.6727C63.6237 15.1958 63.3683 14.6118 63.3683 13.9216C63.3683 13.2313 63.6237 12.6474 64.1363 12.1704C64.6481 11.6935 65.2849 11.4542 66.0469 11.4542C66.8045 11.4542 67.4405 11.6943 67.9548 12.1736C68.4692 12.6529 68.7263 13.2353 68.7263 13.9216C68.7263 14.6118 68.47 15.1958 67.9583 15.6727ZM64.6307 15.2768C65.0165 15.631 65.4882 15.8073 66.0469 15.8073C66.6055 15.8073 67.0782 15.6302 67.4631 15.2768C67.8488 14.9227 68.0426 14.4709 68.0426 13.9216C68.0426 13.3722 67.8488 12.9205 67.4631 12.5663C67.0782 12.2121 66.6055 12.0358 66.0469 12.0358C65.4882 12.0358 65.0165 12.2129 64.6307 12.5663C64.2458 12.9205 64.0521 13.3722 64.0521 13.9216C64.0521 14.4709 64.2458 14.9227 64.6307 15.2768Z" fill="white"/>
<path d="M69.6664 16.2826V11.5605H70.4814L73.0149 15.2335H73.0436L73.0149 14.3237V11.5605H73.6848V16.2826H72.9854L70.3346 12.4309H70.3059L70.3346 13.3407V16.2826H69.6664Z" fill="white"/>
<path d="M45.2029 14.1128C45.2029 14.7723 44.9875 15.2972 44.5557 15.6892C44.0656 16.1551 43.4262 16.3881 42.6408 16.3881C41.8884 16.3881 41.248 16.152 40.7224 15.6797C40.1959 15.2067 39.9326 14.6212 39.9326 13.9223C39.9326 13.2226 40.1959 12.6371 40.7224 12.1649C41.248 11.6919 41.8884 11.4558 42.6408 11.4558C43.0144 11.4558 43.3714 11.5219 43.7103 11.6533C44.05 11.7855 44.3219 11.961 44.5252 12.1806L44.0674 12.5962C43.7224 12.2223 43.2472 12.0358 42.6399 12.0358C42.0908 12.0358 41.6164 12.2105 41.2159 12.56C40.8153 12.9094 40.6155 13.3635 40.6155 13.9215C40.6155 14.4795 40.8153 14.9336 41.2159 15.2831C41.6164 15.6325 42.0908 15.8072 42.6399 15.8072C43.222 15.8072 43.7077 15.6317 44.096 15.2799C44.348 15.0509 44.494 14.7322 44.5331 14.3237H42.6399V13.7562H45.1656C45.1916 13.8798 45.2029 13.9986 45.2029 14.1128Z" stroke="white" stroke-width="0.0356673" stroke-miterlimit="10"/>
<path d="M49.2083 12.1405H46.8347V13.6374H48.9755V14.2049H46.8347V15.7018H49.2083V16.2826H46.1648V11.5605H49.2083V12.1405Z" stroke="white" stroke-width="0.0356673" stroke-miterlimit="10"/>
<path d="M52.0328 16.2826H51.3629V12.1405H49.9067V11.5605H53.4889V12.1405H52.0328V16.2826Z" stroke="white" stroke-width="0.0356673" stroke-miterlimit="10"/>
<path d="M56.0806 16.2826V11.5605H56.7505V16.2826H56.0806Z" stroke="white" stroke-width="0.0356673" stroke-miterlimit="10"/>
<path d="M59.7211 16.2826H59.0513V12.1405H57.5951V11.5605H61.1773V12.1405H59.7211V16.2826Z" stroke="white" stroke-width="0.0356673" stroke-miterlimit="10"/>
<path d="M67.9583 15.6727C67.4457 16.1496 66.8088 16.3881 66.0469 16.3881C65.2849 16.3881 64.6481 16.1496 64.1363 15.6727C63.6237 15.1958 63.3683 14.6118 63.3683 13.9216C63.3683 13.2313 63.6237 12.6474 64.1363 12.1704C64.6481 11.6935 65.2849 11.4542 66.0469 11.4542C66.8045 11.4542 67.4405 11.6943 67.9548 12.1736C68.4692 12.6529 68.7263 13.2353 68.7263 13.9216C68.7263 14.6118 68.47 15.1958 67.9583 15.6727ZM64.6307 15.2768C65.0165 15.631 65.4882 15.8073 66.0469 15.8073C66.6055 15.8073 67.0782 15.6302 67.4631 15.2768C67.8488 14.9227 68.0426 14.4709 68.0426 13.9216C68.0426 13.3722 67.8488 12.9205 67.4631 12.5663C67.0782 12.2121 66.6055 12.0358 66.0469 12.0358C65.4882 12.0358 65.0165 12.2129 64.6307 12.5663C64.2458 12.9205 64.0521 13.3722 64.0521 13.9216C64.0521 14.4709 64.2458 14.9227 64.6307 15.2768Z" stroke="white" stroke-width="0.0356673" stroke-miterlimit="10"/>
<path d="M69.6664 16.2826V11.5605H70.4814L73.0149 15.2335H73.0436L73.0149 14.3237V11.5605H73.6848V16.2826H72.9854L70.3346 12.4309H70.3059L70.3346 13.3407V16.2826H69.6664Z" stroke="white" stroke-width="0.0356673" stroke-miterlimit="10"/>
<defs>
<filter id="filter0_ii_4834_17287" x="12.9482" y="11.4542" width="21.2598" height="21.9248" filterUnits="userSpaceOnUse" color-interpolation-filters="sRGB">
<feFlood flood-opacity="0" result="BackgroundImageFix"/>
<feBlend mode="normal" in="SourceGraphic" in2="BackgroundImageFix" result="shape"/>
<feColorMatrix in="SourceAlpha" type="matrix" values="0 0 0 0 0 0 0 0 0 0 0 0 0 0 0 0 0 0 127 0" result="hardAlpha"/>
<feOffset dy="-0.13865"/>
<feComposite in2="hardAlpha" operator="arithmetic" k2="-1" k3="1"/>
<feColorMatrix type="matrix" values="0 0 0 0 0 0 0 0 0 0 0 0 0 0 0 0 0 0 0.12 0"/>
<feBlend mode="normal" in2="shape" result="effect1_innerShadow_4834_17287"/>
<feColorMatrix in="SourceAlpha" type="matrix" values="0 0 0 0 0 0 0 0 0 0 0 0 0 0 0 0 0 0 127 0" result="hardAlpha"/>
<feOffset dy="0.13865"/>
<feComposite in2="hardAlpha" operator="arithmetic" k2="-1" k3="1"/>
<feColorMatrix type="matrix" values="0 0 0 0 1 0 0 0 0 1 0 0 0 0 1 0 0 0 0.25 0"/>
<feBlend mode="normal" in2="effect1_innerShadow_4834_17287" result="effect2_innerShadow_4834_17287"/>
</filter>
<filter id="filter1_i_4834_17287" x="13.375" y="22.4163" width="15.3633" height="10.9628" filterUnits="userSpaceOnUse" color-interpolation-filters="sRGB">
<feFlood flood-opacity="0" result="BackgroundImageFix"/>
<feBlend mode="normal" in="SourceGraphic" in2="BackgroundImageFix" result="shape"/>
<feColorMatrix in="SourceAlpha" type="matrix" values="0 0 0 0 0 0 0 0 0 0 0 0 0 0 0 0 0 0 127 0" result="hardAlpha"/>
<feOffset dy="-0.13865"/>
<feComposite in2="hardAlpha" operator="arithmetic" k2="-1" k3="1"/>
<feColorMatrix type="matrix" values="0 0 0 0 0 0 0 0 0 0 0 0 0 0 0 0 0 0 0.08 0"/>
<feBlend mode="normal" in2="shape" result="effect1_innerShadow_4834_17287"/>
</filter>
<linearGradient id="paint0_linear_4834_17287" x1="23.8385" y1="12.7909" x2="9.57558" y2="28.1969" gradientUnits="userSpaceOnUse">
<stop stop-color="#00A0FF"/>
<stop offset="0.0066" stop-color="#00A1FF"/>
<stop offset="0.2601" stop-color="#00BEFF"/>
<stop offset="0.5122" stop-color="#00D2FF"/>
<stop offset="0.7604" stop-color="#00DFFF"/>
<stop offset="1" stop-color="#00E3FF"/>
</linearGradient>
<linearGradient id="paint1_linear_4834_17287" x1="34.9174" y1="22.4163" x2="12.6393" y2="22.4163" gradientUnits="userSpaceOnUse">
<stop stop-color="#FFE000"/>
<stop offset="0.4087" stop-color="#FFBD00"/>
<stop offset="0.7754" stop-color="#FFA500"/>
<stop offset="1" stop-color="#FF9C00"/>
</linearGradient>
<linearGradient id="paint2_linear_4834_17287" x1="26.6264" y1="24.3716" x2="7.28398" y2="45.2641" gradientUnits="userSpaceOnUse">
<stop stop-color="#FF3A44"/>
<stop offset="1" stop-color="#C31162"/>
</linearGradient>
<linearGradient id="paint3_linear_4834_17287" x1="10.4852" y1="5.51784" x2="19.1221" y2="14.8469" gradientUnits="userSpaceOnUse">
<stop stop-color="#32A071"/>
<stop offset="0.0685" stop-color="#2DA771"/>
<stop offset="0.4762" stop-color="#15CF74"/>
<stop offset="0.8009" stop-color="#06E775"/>
<stop offset="1" stop-color="#00F076"/>
</linearGradient>
</defs>
</svg>
