<svg width="769" height="253" viewBox="0 0 769 253" fill="none" xmlns="http://www.w3.org/2000/svg">
<path d="M237.379 143.717C237.379 143.717 311.301 58.7257 355.241 59.0031C399.207 59.2806 447.096 114.978 509.632 162.56C579.733 215.876 488.209 218.119 482.911 218.558C477.638 218.998 295.355 213.148 292.324 210.281C289.292 207.414 240.614 170.537 240.614 170.537L237.379 143.717Z" fill="#C5DDF9"/>
<path d="M616.608 146.28H619.741V114.859H616.608V146.28Z" fill="#355389"/>
<path d="M618.197 53.8933L628.386 128.665H608.008L618.197 53.8933Z" fill="#3C8F7C"/>
<path d="M624.691 101.544L610.146 112.873L610.707 108.758L624.233 98.2378L624.691 101.544Z" fill="#50BFA5"/>
<path d="M622.449 85.1518L613.559 87.9262L613.966 84.8512L622.066 82.3311L622.449 85.1518Z" fill="#50BFA5"/>
<path d="M191.247 90.9321L200.366 157.704H182.153L191.247 90.9321Z" fill="#3C8F7C"/>
<path d="M207.295 100.759L214.223 151.601H200.366L207.295 100.759Z" fill="#3C8F7C"/>
<path d="M221.153 115.879L228.082 166.744H214.225L221.153 115.879Z" fill="#3C8F7C"/>
<path d="M174.234 105.846L183.327 172.618H165.114L174.234 105.846Z" fill="#3C8F7C"/>
<path d="M208.646 126.608C287.612 138.538 406.085 245.702 496.31 245.702C586.534 245.702 605.97 220.061 639.823 225.495C673.651 230.905 719.094 245.702 719.094 245.702L48.5244 247.506C48.5244 247.506 129.681 114.701 208.646 126.608Z" fill="#86B1F2"/>
<path d="M494.45 95.3955L503.569 162.145H485.356L494.45 95.3955Z" fill="#3C8F7C"/>
<path d="M516.126 115.047L523.054 165.889H509.197L516.126 115.047Z" fill="#3C8F7C"/>
<path d="M461.514 142.191L468.442 193.033H454.585L461.514 142.191Z" fill="#3C8F7C"/>
<path d="M477.435 110.284L486.528 177.057H468.315L477.435 110.284Z" fill="#3C8F7C"/>
<path d="M566.538 126.608C487.573 138.538 369.099 245.702 278.874 245.702C188.624 245.702 169.214 220.061 135.361 225.495C101.533 230.905 56.0898 245.702 56.0898 245.702L726.66 247.506C726.66 247.506 645.478 114.701 566.538 126.608Z" fill="#86B1F2"/>
<path d="M539.496 226.664H543.062V190.803H539.496V226.664Z" fill="#355389"/>
<path d="M541.295 121.266L552.911 206.581H529.654L541.295 121.266Z" fill="#3C8F7C"/>
<path d="M548.707 175.646L532.124 188.547L532.761 183.877L548.172 171.854L548.707 175.646Z" fill="#50BFA5"/>
<path d="M546.16 156.941L535.996 160.085L536.48 156.594L545.701 153.727L546.16 156.941Z" fill="#50BFA5"/>
<path d="M579.779 241.952H583.167V187.873H579.779V241.952Z" fill="#355389"/>
<path d="M580.573 91.4641L597.334 200.617H563.837L580.573 91.4641Z" fill="#3C8F7C"/>
<path d="M596.263 193.681L566.205 185.08L566.664 182.12L595.779 190.467L596.263 193.681Z" fill="#50BFA5"/>
<path d="M590.99 159.208L571.07 153.497L571.503 150.537L590.481 155.971L590.99 159.208Z" fill="#50BFA5"/>
<path d="M48.5244 247.506C48.5244 247.506 135.106 179.254 246.728 175.069C284.198 173.659 437.697 201.889 566.946 224.061C572.371 224.986 584.114 234.119 589.617 235.067C650.802 245.517 707.836 247.714 726.278 248.384L48.5244 247.506Z" fill="#96D9C9"/>
<path d="M744.438 172.433L744.566 166.561C744.566 162.191 740.898 158.677 736.389 158.677C725.003 158.677 715.756 167.578 715.756 178.56V186.583C715.756 190.097 713.693 193.149 710.687 194.698C707.936 196.086 706.28 198.883 706.28 201.866V206.097C706.28 210.675 708.522 214.952 712.215 217.819C714.381 219.507 715.782 222.073 715.782 224.963V230.952C715.782 237.587 721.36 242.951 728.238 242.951H732.161C739.038 242.951 744.617 237.587 744.617 230.952C743.496 222.582 746.222 217.75 749.38 214.975C754.016 210.906 756.742 205.195 756.742 199.161V198.305C756.742 191.924 753.685 185.959 748.59 181.89C746.272 180.132 744.438 177.219 744.438 172.433Z" fill="#4E9B87"/>
<path d="M757.252 249.909C757.252 249.909 725.462 211.598 705.465 205.726C685.469 199.853 704.319 223.182 704.319 223.182C704.319 223.182 668.836 187.969 655.819 191.137C643.898 194.05 655.819 215.876 655.819 215.876C655.819 215.876 642.369 203.784 626.067 203.784C609.764 203.784 638.676 249.031 638.676 249.031L757.252 249.909Z" fill="#96D9C9"/>
<path d="M655.819 249.054C655.819 249.054 634.091 196.316 607.192 202.42C585.387 207.368 600.9 233.887 599.55 232.685C598.225 231.483 586.533 213.472 567.607 213.472C548.681 213.472 573.415 237.771 573.415 237.771C573.415 237.771 533.117 226.35 529.958 238.349C527.335 248.314 541.981 249.054 541.981 249.054H655.819Z" fill="#3C8F7C"/>
<path d="M159.176 239.205C159.304 238.558 159.355 237.864 159.355 237.194C159.355 229.564 151.484 223.368 141.753 223.368C132.022 223.368 124.151 229.564 124.151 237.194C124.151 237.887 124.202 238.558 124.33 239.205H159.176Z" fill="#3C8F7C"/>
<path d="M179.096 235.807C179.224 234.882 179.275 233.934 179.275 232.963C179.275 222.212 171.404 213.472 161.673 213.472C151.942 213.472 144.071 222.189 144.071 232.963C144.071 233.934 144.122 234.882 144.25 235.807H179.096Z" fill="#50BFA5"/>
<path d="M172.652 247.76C172.525 247.112 172.474 246.419 172.474 245.748C172.474 238.118 180.345 231.922 190.075 231.922C199.806 231.922 207.677 238.118 207.677 245.748C207.677 246.442 207.626 247.112 207.499 247.76H172.652Z" fill="#50BFA5"/>
<path d="M144.506 247.76C144.353 246.835 144.276 245.888 144.276 244.916C144.276 234.165 154.262 225.426 166.59 225.426C178.919 225.426 188.905 234.142 188.905 244.916C188.905 245.888 188.828 246.835 188.675 247.76H144.506Z" fill="#3C8F7C"/>
<path d="M161.622 225.426C155.458 225.426 149.956 228.2 146.339 232.524C144.479 232.131 142.518 231.9 140.48 231.9C129.552 231.9 120.688 238.096 120.688 245.726C120.688 246.419 120.764 247.09 120.891 247.737H181.211C181.338 246.812 181.415 245.864 181.415 244.893C181.415 234.165 172.55 225.426 161.622 225.426Z" fill="#50BFA5"/>
<path d="M85.3324 206.72C80.1615 199.368 79.1935 190.513 79.2954 184.362C79.3973 177.681 80.7728 172.687 80.7728 172.64L80.3907 172.525C80.3652 172.571 79.0152 177.611 78.8878 184.339C78.7859 190.559 79.7539 199.506 85.0013 206.951L85.3324 206.72Z" fill="#3C8F7C"/>
<path d="M82.0454 171.391C81.918 172.894 81.1793 174.166 80.1095 174.952C79.1924 173.912 78.683 172.455 78.8104 170.952C78.9377 169.449 79.6764 168.178 80.7463 167.392C81.6633 168.455 82.1728 169.889 82.0454 171.391Z" fill="#3C8F7C"/>
<path d="M78.5288 174.883C79.4204 176.201 79.6751 177.681 79.3949 178.976C78.0448 178.675 76.7457 177.82 75.8797 176.525C74.9881 175.207 74.7334 173.727 75.0136 172.433C76.3636 172.733 77.6628 173.589 78.5288 174.883Z" fill="#3C8F7C"/>
<path d="M76.5682 178.999C77.9437 179.808 78.8607 181.056 79.2173 182.351C77.9182 182.675 76.3898 182.49 75.0398 181.681C73.6643 180.871 72.7472 179.623 72.3906 178.328C73.6643 177.981 75.1926 178.189 76.5682 178.999Z" fill="#3C8F7C"/>
<path d="M77.1782 184.709C78.248 185.356 78.9358 186.443 79.1141 187.645C77.9933 188.084 76.7197 188.038 75.6498 187.391C74.5799 186.743 73.8922 185.657 73.7139 184.454C74.8092 184.015 76.0828 184.061 77.1782 184.709Z" fill="#3C8F7C"/>
<path d="M81.6374 177.936C82.8601 177.358 84.2102 177.311 85.3819 177.728C85.0763 178.86 84.2611 179.901 83.0384 180.479C81.8157 181.057 80.4657 181.103 79.2939 180.687C79.5996 179.554 80.4147 178.514 81.6374 177.936Z" fill="#3C8F7C"/>
<path d="M81.5105 181.889C82.7332 181.311 84.0832 181.265 85.255 181.681C84.9493 182.814 84.1342 183.854 82.9115 184.432C81.6888 185.01 80.3387 185.057 79.167 184.64C79.4727 183.484 80.2878 182.467 81.5105 181.889Z" fill="#3C8F7C"/>
<path d="M77.944 190.975C78.5808 191.114 79.1157 191.507 79.4469 192.016C78.9884 192.362 78.377 192.501 77.7402 192.385C77.1034 192.247 76.5685 191.854 76.2373 191.345C76.6958 190.998 77.3072 190.836 77.944 190.975Z" fill="#3C8F7C"/>
<path d="M83.1925 211.9C71.3476 209.333 62.3048 201.357 56.8027 195.137C50.8421 188.386 47.6325 182.143 47.607 182.097L47.123 182.328C47.1485 182.398 50.3836 188.663 56.3697 195.461C61.9227 201.75 71.0674 209.796 83.0651 212.385L83.1925 211.9Z" fill="#3C8F7C"/>
<path d="M47.758 179.716C49.0062 181.335 49.4137 183.277 49.0826 185.034C47.2231 184.826 45.4145 183.855 44.1409 182.213C42.8672 180.572 42.4851 178.653 42.8163 176.896C44.7013 177.127 46.5098 178.075 47.758 179.716Z" fill="#3C8F7C"/>
<path d="M47.4531 186.398C49.5164 186.906 51.1467 188.132 52.0382 189.681C50.4334 190.629 48.3447 190.975 46.2814 190.467C44.2181 189.958 42.5878 188.733 41.6963 187.184C43.3011 186.236 45.3898 185.912 47.4531 186.398Z" fill="#3C8F7C"/>
<path d="M49.2117 192.317C51.3005 191.878 53.3638 192.271 54.9176 193.242C53.9242 194.768 52.2175 195.97 50.1288 196.41C48.04 196.849 45.9767 196.456 44.4229 195.485C45.4163 193.959 47.0975 192.757 49.2117 192.317Z" fill="#3C8F7C"/>
<path d="M53.9217 197.681C56.0105 197.242 58.0737 197.635 59.6276 198.606C58.6341 200.132 56.9275 201.334 54.8387 201.773C52.7499 202.212 50.6866 201.819 49.1328 200.848C50.1262 199.322 51.8329 198.143 53.9217 197.681Z" fill="#3C8F7C"/>
<path d="M52.522 188.756C52.4201 186.93 53.0824 185.196 54.2032 183.97C55.4514 184.941 56.3174 186.49 56.4193 188.34C56.5212 190.167 55.8589 191.901 54.7381 193.126C53.4645 192.132 52.6239 190.583 52.522 188.756Z" fill="#3C8F7C"/>
<path d="M57.437 194.305C57.3096 192.479 57.9465 190.745 59.0418 189.496C60.3154 190.444 61.207 191.993 61.3343 193.82C61.4617 195.646 60.8249 197.38 59.7295 198.629C58.4559 197.681 57.5644 196.132 57.437 194.305Z" fill="#3C8F7C"/>
<path d="M61.5142 202.999C62.2784 202.537 63.1699 202.444 63.9596 202.675C63.8322 203.438 63.3482 204.155 62.5841 204.617C61.8199 205.08 60.9283 205.172 60.1387 204.941C60.266 204.155 60.75 203.438 61.5142 202.999Z" fill="#3C8F7C"/>
<path d="M114.575 227.112L115.084 227.089C114.346 214.789 119.313 203.206 123.618 195.645C128.279 187.461 133.195 182.12 133.246 182.05L132.864 181.704C132.813 181.75 127.872 187.137 123.159 195.368C118.854 202.975 113.836 214.674 114.575 227.112Z" fill="#3C8F7C"/>
<path d="M135.512 181.334C134.34 183.114 132.659 184.224 130.952 184.548C130.672 182.675 131.08 180.594 132.251 178.791C133.423 177.01 135.104 175.901 136.811 175.577C137.091 177.45 136.684 179.554 135.512 181.334Z" fill="#3C8F7C"/>
<path d="M129.247 183.483C129.324 185.633 128.61 187.645 127.439 189.078C126.139 187.876 125.273 186.026 125.197 183.853C125.121 181.703 125.834 179.691 127.006 178.258C128.305 179.46 129.171 181.309 129.247 183.483Z" fill="#3C8F7C"/>
<path d="M124.253 187.322C125.221 189.172 125.4 191.276 124.89 193.125C123.235 192.732 121.681 191.553 120.713 189.703C119.745 187.854 119.566 185.75 120.076 183.9C121.732 184.293 123.285 185.495 124.253 187.322Z" fill="#3C8F7C"/>
<path d="M120.815 196.778C121.274 197.518 121.427 198.396 121.274 199.182C120.561 199.067 119.873 198.627 119.414 197.887C118.956 197.148 118.803 196.269 118.956 195.483C119.669 195.599 120.357 196.038 120.815 196.778Z" fill="#3C8F7C"/>
<path d="M119.337 200.177C119.795 200.917 119.948 201.796 119.795 202.582C119.082 202.466 118.394 202.027 117.936 201.287C117.477 200.547 117.324 199.668 117.477 198.882C118.19 198.998 118.878 199.437 119.337 200.177Z" fill="#3C8F7C"/>
<path d="M130.595 189.173C132.353 189.196 133.881 190.005 134.875 191.253C133.754 192.479 132.149 193.242 130.417 193.219C128.66 193.196 127.131 192.386 126.138 191.138C127.233 189.912 128.838 189.15 130.595 189.173Z" fill="#3C8F7C"/>
<path d="M127.743 193.957C129.501 193.98 131.029 194.789 132.022 196.038C130.902 197.263 129.297 198.026 127.565 198.003C125.807 197.98 124.279 197.171 123.285 195.922C124.406 194.697 126.011 193.934 127.743 193.957Z" fill="#3C8F7C"/>
<path d="M123.057 200.501C124.203 200.524 125.197 201.033 125.834 201.842C125.095 202.628 124.051 203.137 122.93 203.114C121.784 203.091 120.79 202.582 120.153 201.773C120.867 200.987 121.911 200.501 123.057 200.501Z" fill="#3C8F7C"/>
<path d="M70.3785 247.298C70.3785 245.241 84.0065 247.668 85.1527 244.871C86.299 242.073 73.4862 241.911 73.4862 238.143C73.4862 234.374 80.0072 237.01 83.8536 237.01C87.6745 237.01 76.2882 235.391 76.2882 234.05C76.2882 232.709 80.2874 233.426 80.2874 231.993C80.2874 230.582 59.2979 229.495 61.7688 226.027C64.2141 222.559 75.4986 227.045 78.6062 225.241C81.7139 223.438 62.0744 221.473 61.565 218.814C61.081 216.132 76.0335 221.103 78.1477 219.184C80.262 217.265 54.4836 210.352 55.5789 205.265C56.6487 200.179 75.1165 211.762 79.727 210.513C84.3376 209.265 56.4704 191.439 62.9405 184.503C69.4106 177.567 81.7903 207.485 86.0188 206.421C90.2473 205.358 80.7205 187.508 85.0508 184.41C89.3557 181.312 101.736 209.542 102.525 215.323C103.315 221.126 104.869 202.861 111.644 200.71C118.42 198.583 111.848 212.016 113.02 216.132C114.192 220.224 119.694 205.612 127.106 206.699C134.519 207.762 113.708 221.126 115.771 225.056C117.834 228.987 133.908 211.97 138.926 216.548C143.969 221.126 119.566 233.796 120.916 237.264C122.241 240.732 136.888 234.79 141.091 238.605C145.294 242.42 125.374 244.848 122.725 244.848C120.076 244.848 109.989 247.853 119.847 247.275C129.654 246.697 70.3785 249.333 70.3785 247.298Z" fill="#3C8F7C"/>
<path d="M109.225 249.656C109.225 249.656 125.629 250.465 130.418 247.714C135.207 244.985 131.437 242.858 131.437 242.858C131.437 242.858 146.619 242.558 146.568 239.298C146.542 236.038 142.849 236.223 142.849 236.223C142.849 236.223 150.516 231.506 149.089 228.547C146.899 224.015 134.417 231.899 134.417 231.899C134.417 231.899 138.518 227.483 135.207 226.466C126.113 223.645 109.225 249.656 109.225 249.656Z" fill="#50BFA5"/>
<path d="M149.088 228.546C150.515 231.482 142.848 236.222 142.848 236.222C142.848 236.222 148.375 236.152 147.484 239.32C146.592 242.487 132.684 243.551 132.684 243.551C132.684 243.551 137.549 244.406 132.76 247.135C127.972 249.863 109.224 249.632 109.224 249.632L149.088 228.546Z" fill="#96D9C9"/>
<path d="M42.0298 119.649C42.0553 118.84 43.2779 118.216 43.9402 118.932C44.5771 119.649 44.5516 119.164 45.1884 120.713C46.997 125.129 49.6716 129.406 52.7538 133.152C58.689 140.319 64.5732 143.926 71.247 147.509C68.496 141.891 66.6619 135.88 66.4327 129.822C66.3563 127.626 66.3817 125.337 67.4261 123.302C67.7063 122.747 68.8271 122.863 68.9545 123.487C69.5149 126.608 68.6997 128.967 69.7951 134.562C72.4442 147.902 82.9645 162.052 93.1281 171.971C91.1922 155.185 90.2497 136.134 93.714 119.21C94.2744 116.435 95.1914 113.8 96.032 111.071C96.2358 110.424 97.2292 110.701 97.1018 111.349C96.9235 112.25 95.2678 123.903 95.1659 124.689C93.5611 137.568 93.8668 151.856 95.1404 164.873C103.012 155.185 108.284 143.879 110.755 132.065C111.494 128.574 111.672 124.967 112.691 121.545C112.844 121.083 113.685 121.013 113.786 121.545C114.831 126.678 112.742 135.764 111.214 140.712C108.106 150.723 103.139 159.694 96.3631 167.694C96.1084 167.994 107.265 246.304 106.96 247.298C106.45 248.963 103.241 250.142 102.757 247.182C102.553 245.98 96.4141 198.375 93.663 176.318C92.6186 175.786 91.9564 174.861 89.2562 172.11C83.0409 165.752 76.8765 157.867 72.7754 150.4C70.3045 150.261 52.4736 142.4 43.6346 124.481C43.3798 123.973 42.2336 121.545 42.0553 120.99C41.8769 120.505 42.0043 120.112 42.0298 119.649Z" fill="#184655"/>
<path d="M99.2656 94.2618C99.0618 91.8573 98.96 89.3834 98.96 86.8863C98.96 58.9104 112.027 36.2522 128.177 36.2522C144.301 36.2522 157.394 58.9335 157.394 86.8863C157.394 89.3834 157.293 91.8573 157.089 94.2618H99.2656Z" fill="#50BFA5"/>
<path d="M66.2266 81.8236C66.0228 78.4248 65.9209 74.9567 65.9209 71.4193C65.9209 31.9755 78.9884 -0.000244141 95.1381 -0.000244141C111.288 -0.000244141 124.33 31.9524 124.33 71.3962C124.33 74.9336 124.228 78.4017 124.024 81.8005H66.2266V81.8236Z" fill="#96D9C9"/>
<path d="M76.9022 125.568C77.106 123.164 77.2079 120.69 77.2079 118.193C77.2079 90.2168 64.1404 67.5586 47.9907 67.5586C31.8664 67.5586 18.7734 90.2399 18.7734 118.193C18.7734 120.69 18.8753 123.164 19.0791 125.568H76.9022Z" fill="#96D9C9"/>
<path d="M123.671 125.568C123.926 122.169 124.053 118.701 124.053 115.164C124.053 75.7199 107.47 43.7441 87.0159 43.7441C66.5613 43.7441 49.9785 75.7199 49.9785 115.164C49.9785 118.701 50.1059 122.169 50.3606 125.568H123.671Z" fill="#50BFA5"/>
<path d="M95.2427 43.7441C105.457 43.7441 114.602 53.8941 120.614 69.8011C123.67 68.3445 126.931 67.5584 130.319 67.5584C148.455 67.5584 163.179 90.2397 163.179 118.192C163.179 120.69 163.051 123.163 162.822 125.568H62.714C62.4848 122.169 62.3574 118.701 62.3574 115.164C62.3829 75.7199 77.0807 43.7441 95.2427 43.7441Z" fill="#96D9C9"/>
<path d="M45.4924 235.969C45.5943 235.067 45.6452 234.119 45.6452 233.171C45.6452 222.605 39.0223 214.027 30.8456 214.027C22.6688 214.027 16.0459 222.605 16.0459 233.171C16.0459 234.119 16.0968 235.044 16.1987 235.969H45.4924Z" fill="#3C8F7C"/>
<path d="M62.2268 231.252C62.3287 229.957 62.3796 228.663 62.3796 227.322C62.3796 212.409 55.7567 200.34 47.5799 200.34C39.4032 200.34 32.7803 212.432 32.7803 227.322C32.7803 228.663 32.8312 229.98 32.9331 231.252H62.2268Z" fill="#50BFA5"/>
<path d="M56.8023 247.782C56.7004 246.881 56.6494 245.933 56.6494 244.985C56.6494 234.419 63.2723 225.841 71.4491 225.841C79.6258 225.841 86.2487 234.419 86.2487 244.985C86.2487 245.933 86.1978 246.857 86.0959 247.782H56.8023Z" fill="#50BFA5"/>
<path d="M33.1374 247.783C33.01 246.488 32.9336 245.193 32.9336 243.852C32.9336 228.939 41.3396 216.87 51.6815 216.87C62.0489 216.87 70.4295 228.962 70.4295 243.852C70.4295 245.193 70.3531 246.511 70.2257 247.783H33.1374Z" fill="#3C8F7C"/>
<path d="M47.5299 216.87C42.3589 216.87 37.7229 220.708 34.6662 226.72C33.1123 226.165 31.4566 225.864 29.7499 225.864C20.5543 225.864 13.1162 234.442 13.1162 245.008C13.1162 245.956 13.1672 246.881 13.2945 247.806H63.9853C64.1127 246.511 64.1636 245.216 64.1636 243.875C64.1636 228.962 56.7256 216.87 47.5299 216.87Z" fill="#50BFA5"/>
<path d="M155.947 203.736C155.947 203.736 251.757 218.16 252.937 217.548C254.075 216.936 266.509 168.309 266.509 168.309C266.509 168.309 187.265 155.377 186.001 155.377C184.736 155.377 167.497 167.888 167.244 168.73C166.991 169.571 155.947 203.736 155.947 203.736Z" fill="#183658"/>
<path d="M448.263 216.093C450.581 216.284 566.623 214.027 566.623 214.027L557.897 189.809C557.897 189.809 541.796 167.734 533.323 168.116C524.809 168.537 474.27 161.077 465.545 166.586C456.819 172.095 449.021 167.696 444.848 180.857C440.718 193.979 437.472 195.472 440.718 203.391C443.879 211.311 448.263 216.093 448.263 216.093Z" fill="#183658"/>
<path d="M204.337 248.269C226.15 248.269 243.833 232.219 243.833 212.42C243.833 192.622 226.15 176.572 204.337 176.572C182.525 176.572 164.842 192.622 164.842 212.42C164.842 232.219 182.525 248.269 204.337 248.269Z" fill="#1A1A1A"/>
<path d="M204.337 237.364C219.515 237.364 231.819 226.196 231.819 212.42C231.819 198.643 219.515 187.475 204.337 187.475C189.159 187.475 176.854 198.643 176.854 212.42C176.854 226.196 189.159 237.364 204.337 237.364Z" fill="#9E9DA2"/>
<path d="M204.338 229.1C214.488 229.1 222.716 221.632 222.716 212.42C222.716 203.207 214.488 195.739 204.338 195.739C194.188 195.739 185.96 203.207 185.96 212.42C185.96 221.632 194.188 229.1 204.338 229.1Z" fill="#D8D9DD"/>
<path d="M508.457 248.269C530.27 248.269 547.953 232.219 547.953 212.42C547.953 192.622 530.27 176.572 508.457 176.572C486.645 176.572 468.962 192.622 468.962 212.42C468.962 232.219 486.645 248.269 508.457 248.269Z" fill="#1A1A1A"/>
<path d="M508.459 237.364C523.637 237.364 535.942 226.196 535.942 212.42C535.942 198.643 523.637 187.475 508.459 187.475C493.281 187.475 480.977 198.643 480.977 212.42C480.977 226.196 493.281 237.364 508.459 237.364Z" fill="#9E9DA2"/>
<path d="M490.08 212.42C490.08 221.64 498.3 229.101 508.458 229.101C518.616 229.101 526.836 221.64 526.836 212.42C526.836 203.199 518.616 195.739 508.458 195.739C498.3 195.701 490.08 203.199 490.08 212.42Z" fill="#D8D9DD"/>
<path d="M599.125 178.254C595.795 158.283 585.004 154.075 553.053 148.259C517.815 141.87 473.093 121.019 473.093 121.019C473.093 121.019 396.8 87.0834 378.127 83.181C359.454 79.2786 313.467 80.3881 274.857 80.6941C236.246 80.962 213.569 90.718 193.969 104.606C174.369 118.494 140.353 129.092 140.353 129.092L134.157 130.086C127.792 131.119 123.197 136.131 123.197 141.985V191.568C123.197 197.192 127.37 202.089 133.356 203.543L155.696 208.9C157.508 209.167 159.194 208.02 159.405 206.336C161.85 186.059 181.155 170.641 204.212 170.641C228.701 170.679 248.807 188.928 248.807 211.195C248.807 213.72 248.554 216.207 248.049 218.579C247.543 221.066 249.65 223.323 252.432 223.323H457.919C461.923 223.323 465 220.148 464.494 216.551C464.241 214.83 464.115 213.07 464.115 211.272C464.031 189.311 483.631 171.1 507.825 170.641C532.905 170.182 553.391 188.469 553.391 211.157C553.391 212.649 553.306 214.141 553.138 215.595C552.632 219.727 556.173 223.323 560.725 223.323H590.273C595.626 223.323 600.01 219.382 600.01 214.485V188.508C599.925 185.141 599.715 181.659 599.125 178.254Z" fill="#E88D0E"/>
<path d="M124.503 147.877H148.824C150.89 147.877 152.323 149.79 151.522 151.55L148.782 157.48C146.169 163.142 140.099 166.815 133.355 166.815H124.503C122.775 166.815 121.342 165.553 121.342 163.946V150.747C121.342 149.14 122.775 147.877 124.503 147.877Z" fill="#CF283C"/>
<path d="M560.427 157.06C573.831 158.935 589.258 170.451 589.258 170.451C592.967 174.047 589.89 179.901 584.495 179.594L558.361 178.102C552.924 177.796 548.287 174.43 546.812 169.685C544.241 161.689 546.39 155.109 560.427 157.06Z" fill="#EAFCFC"/>
<path d="M123.322 193.443C121.636 193.405 120.456 194.935 121.088 196.351C122.816 200.368 126.568 203.505 131.373 204.653L156.411 210.66C158.434 210.966 160.331 209.665 160.584 207.79C161.047 203.926 162.059 200.253 163.534 196.772C164.04 195.586 163.071 194.323 161.722 194.285L123.322 193.443Z" fill="#EAB054"/>
<path d="M553.559 202.779C551.662 202.741 550.187 204.233 550.439 205.954C550.692 207.867 550.861 209.78 550.861 211.77C550.861 213.453 550.777 215.06 550.566 216.705C550.018 221.296 553.938 225.313 558.996 225.313H591.79C597.733 225.313 602.58 220.913 602.58 215.519V207.829C602.58 205.648 600.641 203.85 598.239 203.812L553.559 202.779Z" fill="#EAB054"/>
<path opacity="0.5" d="M473.133 132.535C472.712 132.306 429.254 110.69 400.465 98.5616C371.929 86.5866 340.105 87.8491 338.756 87.8873C335.089 87.8108 258.922 86.3187 235.528 92.9375C211.924 99.5945 181.238 130.01 179.931 131.311L179.594 131.655L187.855 166.854L188.741 166.815C212.767 165.591 231.144 171.406 241.935 183.611C250.07 192.831 251.082 202.587 251.082 202.702L251.166 203.544L337.786 205.572H338.798L339.852 205.61L460.572 207.752V206.796C461.163 171.177 473.597 134.027 473.681 133.645L473.934 132.918L473.133 132.535ZM252.979 201.669C252.557 199.029 250.745 190.689 243.579 182.501C235.865 173.702 220.185 163.525 189.499 164.902L181.828 132.229C185.368 128.748 214.453 100.895 236.16 94.7357C257.868 88.576 328.471 89.609 337.786 89.762V203.659L252.979 201.669ZM458.465 205.801L339.81 203.697V89.762C345.374 89.609 373.91 89.456 399.622 100.283C426.304 111.493 465.588 130.929 471.447 133.836C469.677 139.154 459.224 172.975 458.465 205.801Z" fill="#FEB546"/>
<path opacity="0.5" d="M121.087 196.352C122.815 200.369 126.567 203.507 131.372 204.654L156.41 210.661C158.433 210.967 160.33 209.666 160.582 207.792C160.751 206.3 161.004 204.846 161.341 203.43L121.087 196.352Z" fill="#FEB546"/>
<path opacity="0.5" d="M550.778 213.912C550.736 214.868 550.651 215.786 550.525 216.743C549.977 221.334 553.897 225.351 558.955 225.351H591.749C597.692 225.351 602.539 220.951 602.539 215.557V213.95H550.778V213.912Z" fill="#FEB546"/>
<path d="M466.009 213.913C466.009 211.885 466.178 209.896 466.473 207.945C466.852 205.611 464.913 203.468 462.3 203.392L248.552 198.648C246.234 198.61 244.548 200.599 245.18 202.665C246.276 206.223 246.866 209.972 246.866 213.837C246.866 216.4 246.613 218.887 246.107 221.335C245.601 223.86 247.709 226.232 250.533 226.232H459.686C463.775 226.232 466.894 222.942 466.346 219.231C466.136 217.471 466.009 215.673 466.009 213.913Z" fill="#EAB054"/>
<path opacity="0.5" d="M466.009 213.913C466.009 213.874 466.009 213.836 466.009 213.798H246.908C246.908 216.361 246.655 218.848 246.149 221.297C245.644 223.822 247.751 226.194 250.575 226.194H459.729C463.817 226.194 466.937 222.903 466.389 219.192C466.136 217.471 466.009 215.673 466.009 213.913Z" fill="#FEB546"/>
<path d="M205.178 135.864L323.286 136.859C323.286 136.859 330.536 136.668 331.505 130.508C332.475 124.348 332.39 97.8733 332.39 97.8733C332.39 97.8733 331.547 92.5553 325.941 92.4788C322.527 92.4405 293.991 90.6041 266.255 93.6648C243.62 96.1516 222.671 105.563 206.78 119.987L198.392 127.6C198.392 127.6 192.744 135.75 205.178 135.864Z" fill="#EAFCFC"/>
<path d="M345.543 101.241V128.978C345.543 132.575 348.578 135.559 352.456 135.674L445.272 139.079C447.422 139.155 449.487 138.275 450.71 136.63C452.396 134.411 452.564 130.738 444.261 125.803C429.803 117.271 393.005 98.7539 379.39 96.994C370.707 95.8462 359.369 95.3488 352.287 95.1575C348.62 95.0427 345.543 97.7974 345.543 101.241Z" fill="#EAFCFC"/>
<path d="M222.672 122.894C222.672 122.894 299.64 114.936 301.283 116.314C302.927 117.691 313.634 140.417 315.573 146.615L224.906 145.85L218.541 137.127L222.672 122.894Z" fill="#B75742"/>
<path d="M385.882 129.168C385.882 129.168 392.963 136.782 394.986 144.969L392.752 148.259L388.284 143.974L385.882 129.168Z" fill="#263D60"/>
<path d="M393.426 109.198C392.077 101.164 384.069 95.3866 375.723 99.289C373.826 100.169 371.297 101.929 369.99 103.459C366.492 107.553 365.564 112.603 361.939 116.582C363.288 117.5 364.89 118.457 366.787 119.375L369.063 116.62L368.304 120.025C373.91 122.474 381.835 124.463 392.71 124.425C394.059 118.877 394.143 113.483 393.426 109.198Z" fill="#1A1A1A"/>
<path d="M374.67 126.872C374.67 126.872 366.619 126.413 363.458 129.55C360.254 132.688 370.539 157.594 371.087 161.573C371.677 165.59 366.324 173.548 366.324 173.548C366.324 173.548 388.453 182.96 393.891 179.708C393.891 179.708 393.006 147.608 392.458 144.777C391.868 141.908 387.063 130.277 385.882 129.129C384.702 128.02 374.67 126.872 374.67 126.872Z" fill="#355389"/>
<path d="M377.324 117.117C377.324 117.117 377.282 117.347 377.198 117.691C376.818 119.451 375.47 125.266 374.542 126.873C373.404 128.824 378.42 134.984 383.225 134.219C384.658 133.989 382.003 128.556 382.129 127.983C382.382 126.873 382.719 125.381 383.057 123.812C383.267 122.932 383.436 122.052 383.605 121.211C384.11 118.839 384.532 116.926 384.532 116.926L377.324 117.117Z" fill="#F7A491"/>
<path d="M223.263 124.234C223.178 123.737 222.968 123.316 222.673 122.895L211.25 133.302C211.25 133.302 202.651 145.659 221.577 145.851L226.761 145.889L223.263 124.234Z" fill="#B75742"/>
<path opacity="0.3" d="M377.199 117.692C377.283 117.309 377.326 117.118 377.326 117.118L384.533 116.965C384.533 116.965 384.112 118.878 383.606 121.25C383.437 122.092 383.227 122.933 383.058 123.813C381.962 123.66 380.782 123.163 379.602 122.245C378.337 121.25 377.494 120.026 376.988 118.725C377.073 118.342 377.157 117.96 377.199 117.692Z" fill="#F47458"/>
<path d="M382.169 102.273C382.169 102.273 378.797 101.928 376.648 104.415C374.54 106.902 372.222 114.63 377.533 118.801C382.802 123.009 388.029 118.265 388.829 113.215C389.588 108.203 389.883 102.12 382.169 102.273Z" fill="#F7A491"/>
<path d="M390.349 113.178C389.717 114.287 388.663 114.899 387.988 114.555C387.314 114.211 387.272 113.025 387.904 111.915C388.536 110.806 389.59 110.193 390.265 110.538C390.939 110.882 390.981 112.068 390.349 113.178Z" fill="#F7A491"/>
<path d="M382.55 101.47C382.55 101.47 377.998 108.816 374.794 109.122C371.548 109.466 371.127 113.369 371.127 113.369C371.127 113.369 372.307 104.378 375.511 102.656C378.714 100.935 382.55 101.47 382.55 101.47Z" fill="#1A1A1A"/>
<path d="M375.639 110.997C375.892 112.298 375.386 113.484 374.459 113.675C373.531 113.828 372.562 112.91 372.309 111.609C372.056 110.308 372.562 109.122 373.489 108.931C374.417 108.778 375.386 109.696 375.639 110.997Z" fill="#F7A491"/>
<path d="M364.214 162.454C364.214 162.378 367.249 150.632 368.472 148.03C369.694 145.429 374.499 133.339 374.499 133.339L368.303 132.115C368.303 132.115 364.299 141.565 362.486 145.85C360.674 150.135 361.432 158.016 361.348 160.235C361.348 160.273 361.095 162.11 361.095 162.148C361.053 162.377 360.969 162.607 360.969 162.645C360.885 162.76 360.674 163.487 360.674 163.564C360.674 163.64 360.463 163.87 360.421 163.984C360.337 164.099 360.168 165.591 360.126 165.859C360.084 166.089 360.21 166.662 360.21 166.662L360.126 167.657C360.084 168.384 360.927 168.193 360.927 168.193C360.927 168.537 361.053 168.728 361.264 168.805C361.475 168.881 361.728 168.805 361.77 168.843C361.812 168.843 361.812 168.958 361.812 168.958C361.77 169.188 362.065 169.341 362.233 169.379C362.402 169.417 362.739 169.302 362.823 169.188C362.908 169.073 362.992 169.111 362.992 169.111C363.161 169.264 363.877 169.226 364.046 169.035C364.214 168.843 364.341 167.772 364.425 167.657C364.51 167.542 364.636 167.389 364.678 167.236C364.72 167.083 365.268 165.974 365.31 165.783C365.353 165.591 364.973 164.826 364.931 164.367C364.847 163.908 364.383 163.257 364.257 163.028C364.172 162.99 364.214 162.76 364.214 162.454Z" fill="#F48C7F"/>
<path d="M384.701 115.663L379.475 115.434C379.475 115.434 379.475 117.232 381.793 117.385C384.575 117.614 384.701 115.663 384.701 115.663Z" fill="white"/>
<path d="M356.207 119.298L354.311 130.623C354.311 130.623 361.181 144.09 365.312 142.942C368.768 141.948 366.619 130.049 366.619 130.049C366.619 130.049 364.722 123.66 365.312 120.446C365.86 117.194 356.207 119.298 356.207 119.298Z" fill="#F7A491"/>
<path d="M365.312 120.409C365.86 117.196 356.208 119.3 356.208 119.3L356.039 120.256C356.334 120.868 356.671 121.404 357.093 121.825C359.243 123.929 362.615 125.23 365.565 125.306C365.27 123.547 365.102 121.71 365.312 120.409Z" fill="#F47458"/>
<path d="M354.605 103.269C354.352 103.193 352.413 116.162 356.038 119.72C359.663 123.278 366.787 124.464 369.316 121.633C372.14 118.534 371.971 104.57 366.323 100.897C360.675 97.2625 354.605 103.269 354.605 103.269Z" fill="#F7A491"/>
<path d="M364.215 94.0104C359.832 94.8139 357.008 97.2624 355.954 98.2954C353.973 98.525 351.275 99.5197 348.493 103.728C345.079 108.893 347.608 114.632 351.57 117.463C355.575 120.256 355.49 123.508 355.49 123.508L356.122 121.825C356.586 120.562 356.797 119.185 356.628 117.884C356.544 117.081 356.333 116.201 355.996 115.512C355.027 113.637 358.061 112.375 358.904 110.806C359.537 109.62 359.579 106.865 360.633 104.876L361.855 103.346C361.855 103.346 364.679 101.356 367.461 101.892C370.201 102.427 369.822 92.9392 364.215 94.0104Z" fill="#13375B"/>
<path d="M358.694 113.101C358.737 114.67 357.936 115.971 356.924 116.009C355.912 116.009 355.069 114.746 355.069 113.178C355.069 111.609 355.828 110.308 356.84 110.27C357.851 110.232 358.694 111.494 358.694 113.101Z" fill="#F7A491"/>
<path d="M364.639 116.736L370.118 116.468C370.118 116.468 370.118 118.381 367.674 118.534C364.765 118.764 364.639 116.736 364.639 116.736Z" fill="white"/>
<path d="M352.752 130.165C353.258 129.323 354.186 128.749 355.239 128.634C359.834 128.252 372.521 128.252 379.013 138.429C380.024 140.036 380.783 141.757 381.289 143.555L382.637 148.644L349.254 147.649L349.296 144.282C349.043 139.385 350.181 134.488 352.752 130.165Z" fill="#3C8F7C"/>
<path d="M431.994 150.517L436.842 132.65C437.179 131.464 436.378 130.24 435.029 129.934C433.723 129.628 432.374 130.355 432.037 131.579L426.979 150.288L431.994 150.517Z" fill="#1A1A1A"/>
<path d="M419.475 149.982C420.866 149.217 421.962 148.567 422.721 148.146C422.763 148.107 426.261 146.577 426.346 146.577C426.851 146.424 427.273 146.271 427.357 146.271C427.61 146.271 429.128 145.812 429.254 145.735C429.38 145.697 430.013 145.697 430.266 145.697C430.519 145.697 433.343 144.396 433.806 144.167C434.27 143.975 435.113 143.21 435.113 143.21L436.926 142.254C438.274 141.565 437.052 140.532 437.052 140.532C437.684 140.188 437.853 139.805 437.769 139.423C437.642 139.04 437.305 138.734 437.263 138.658C437.263 138.581 437.431 138.466 437.431 138.466C437.853 138.275 437.853 137.701 437.726 137.395C437.6 137.089 437.094 136.745 436.799 136.745C436.546 136.706 436.504 136.592 436.504 136.592C436.546 136.171 435.83 135.214 435.324 135.176C434.818 135.138 432.795 136.056 432.542 136.056C432.289 136.056 431.867 135.979 431.572 136.132C431.277 136.247 428.79 136.553 428.369 136.745C427.947 136.936 427.02 138.198 426.346 138.734C425.671 139.308 424.955 140.685 424.744 141.068C424.66 141.221 424.196 141.45 423.69 141.68C423.606 141.756 408.389 146.73 399.411 149.179L419.475 149.982Z" fill="#F7A491"/>
<path d="M372.056 148.26C371.129 143.133 369.948 137.739 368.684 135.214C365.944 129.743 356.713 126.491 352.203 129.896C349.8 131.694 350.812 140.34 352.877 147.801L372.056 148.26Z" fill="#50BFA5"/>
<path d="M237.973 118.534C237.973 118.534 226.677 118.266 222.841 120.6C219.005 122.895 219.469 145.851 219.469 145.851L223.178 146.501C223.178 146.501 224.527 162.302 227.435 163.105C230.344 163.947 249.312 158.629 253.274 154.191C257.236 149.753 244.928 117.003 244.928 117.003L237.973 118.534Z" fill="#3C8F7C"/>
<path d="M258.077 100.322C259.046 97.5673 259.721 89.1886 259.931 86.3192C259.763 86.1279 258.962 84.9036 259.046 82.4933C259.088 80.8099 257.824 78.017 259.004 78.2083C260.184 78.3996 260.269 81.3073 260.985 80.8099C261.702 80.3126 262.039 74.1911 263.093 74.3442C264.189 74.4972 263.43 80.2743 264.062 79.8152C264.695 79.3561 264.737 74.0381 266.254 74.3059C267.772 74.5355 265.58 80.5421 266.381 80.6951C267.181 80.8099 268.488 77.0223 269.71 77.2136C270.933 77.4049 267.687 82.3403 268.067 82.1107C268.446 81.8429 271.059 79.8152 271.481 80.2743C271.987 80.7717 265.917 86.587 265.917 88.0791C266.423 91.9432 267.434 98.9064 266.043 103.306C264.357 108.662 260.058 120.599 260.058 120.599L250.911 118.61C250.911 118.686 256.897 103.612 258.077 100.322Z" fill="#F7A491"/>
<path d="M261.956 81.9951C262.42 82.1864 262.799 82.4542 263.094 82.7985C263.136 82.8751 264.274 83.8315 263.979 85.4384C263.811 84.4437 263.558 83.3342 261.956 81.9951Z" fill="#F48C7F"/>
<path d="M203.408 123.009C203.408 123.009 203.661 121.67 202.397 119.604C201.596 118.265 201.385 115.587 200.542 116.161C199.699 116.735 200.964 119.107 200.205 118.954C199.446 118.801 196.496 114.018 195.779 114.554C195.02 115.089 198.14 119.413 197.423 119.298C196.749 119.183 194.388 114.936 193.334 115.663C192.281 116.39 196.58 120.407 196.032 120.828C195.484 121.211 192.829 118.648 191.986 119.221C191.142 119.834 195.779 122.626 195.358 122.55C194.936 122.473 192.07 121.785 191.943 122.32C191.775 122.894 197.802 124.616 198.477 125.84C199.151 127.064 209.478 139.116 212.429 139.154C215.379 139.154 228.615 131.043 229.584 128.365C230.554 125.725 229.331 122.932 227.435 122.55C225.496 122.167 213.145 130.24 212.555 130.125C211.965 130.01 203.408 123.009 203.408 123.009Z" fill="#F7A491"/>
<path d="M200.332 120.102C200.037 120.446 199.868 120.867 199.742 121.288C199.742 121.364 199.278 122.741 200.416 123.966C200.079 123.048 199.658 122.015 200.332 120.102Z" fill="#F48C7F"/>
<path d="M231.273 139.691C231.273 139.691 243.159 148.261 244.466 150.021C245.435 151.321 242.19 166.089 242.19 166.089C242.19 166.089 237.469 166.204 235.319 164.712C235.319 164.712 236.626 154.497 236.036 154.114C235.488 153.732 222.421 148.452 222.421 148.452L223.264 142.407L231.273 139.691Z" fill="#B75742"/>
<path d="M254.118 108.815C254.118 108.815 256.183 109.16 263.222 116.123L255.045 131.235L247.5 118.686L254.118 108.815Z" fill="#9BC1F9"/>
<path d="M240.839 119.451C240.839 119.451 246.192 118.38 248.089 117.538C249.986 116.696 267.394 153.96 263.01 155.261C253.821 158.016 230.006 165.285 230.006 165.285C230.006 165.285 229.332 163.143 230.175 159.202C231.692 152.392 231.186 137.203 230.849 134.563C230.68 132.995 220.522 137.509 220.522 137.509L216.518 125.725C216.518 125.725 228.109 122.129 231.987 121.02C233.125 120.675 240.839 119.451 240.839 119.451Z" fill="#9BC1F9"/>
<path d="M260.692 142.521C258.5 136.362 244.126 118.724 244 118.533L246.36 117.079C246.866 117.768 258.626 132.765 260.903 139.269L260.692 142.521Z" fill="#3C8F7C"/>
<path d="M229.46 153.922L227.984 152.2C228.069 152.124 238.101 144.855 238.396 136.782C238.649 128.633 231.441 120.79 231.356 120.713L233.211 119.298C233.548 119.642 241.135 127.83 240.84 136.859C240.503 145.926 229.923 153.616 229.46 153.922Z" fill="#3C8F7C"/>
<path d="M238.267 94.5458C238.267 94.5458 242.524 91.6763 246.528 96.3439C249.732 100.055 249.31 98.869 250.912 100.744C252.514 102.58 254.916 102.733 255.254 105.832C255.633 108.893 254.116 109.543 254.116 109.543C254.116 109.543 255.844 111.8 254.537 114.402C253.23 117.004 249.563 119.529 246.233 119.49C246.233 119.49 241.597 122.436 236.496 121.748C231.396 121.059 233.124 120.906 231.101 121.097C229.078 121.289 223.303 119.299 223.767 115.55C223.767 115.55 220.015 112.26 222.882 109.008C225.79 105.756 227.35 103.46 228.741 99.3281C230.132 95.1962 235.906 93.8188 238.267 94.5458Z" fill="#1A1A1A"/>
<path d="M243.96 115.741C243.96 115.741 244.423 121.173 245.056 121.632C245.688 122.092 246.573 122.857 245.899 124.234C245.224 125.611 241.557 125.152 239.787 124.54C238.101 123.966 236.921 122.78 236.921 122.78L236.752 114.095L243.96 115.741Z" fill="#F7A491"/>
<path d="M241.85 118.227C240.67 117.96 238.563 117.462 236.75 115.32L236.708 114.095L243.958 115.741C243.958 115.741 244.084 117.08 244.253 118.457C243.284 118.533 242.398 118.342 241.85 118.227Z" fill="#F48C7F"/>
<path d="M233.758 109.351C233.758 109.351 233.21 106.175 231.102 107.017C228.995 107.859 231.229 112.526 232.999 112.182C234.812 111.838 233.758 109.351 233.758 109.351Z" fill="#F7A491"/>
<path d="M240.293 96.9939C240.293 96.9939 243.665 96.6113 245.688 98.8303C247.712 101.049 250.367 107.706 248.091 112.68C245.773 117.654 242.021 116.85 240.462 116.544C238.902 116.2 235.825 115.435 233.802 111.188C231.736 106.903 231.652 96.9174 240.293 96.9939Z" fill="#F7A491"/>
<path d="M309.246 147.801L315.485 174.736L304.736 173.779L299.594 149.14L309.246 147.801Z" fill="#F7A491"/>
<path d="M311.104 148.567L299.596 149.14C299.596 149.14 298.753 141.909 298.543 138.466C298.29 134.296 298.374 128.863 298.964 128.94C300.566 129.208 302.716 129.858 304.022 131.388C308.659 136.63 311.104 148.567 311.104 148.567Z" fill="#5184CE"/>
<path d="M303.517 137.547C303.812 138.81 311.104 174.046 311.104 174.046C293.864 182.654 280.671 175.309 280.671 175.309C280.671 175.309 281.346 151.626 280.46 148.336C279.87 146.155 277.763 131.847 279.28 131.387C281.261 130.775 284.254 129.857 286.741 129.513C288.891 129.207 297.194 128.709 298.712 129.092C298.712 129.054 302.379 132.229 303.517 137.547Z" fill="#EAFCFC"/>
<path d="M297.321 103.956C297.321 103.956 304.318 103.841 303.728 109.121C303.728 109.121 308.912 110.957 305.456 115.204C305.456 115.204 309.165 119.757 302.716 124.157C302.716 124.157 300.988 130.278 293.738 127.37C293.738 127.37 291.588 128.824 288.595 126.873C285.603 124.922 285.223 123.774 285.223 123.774C285.223 123.774 278.648 122.626 279.533 117.155C279.533 117.155 276.077 114.477 281.303 111.11C281.303 111.11 281.219 103.573 288.258 104.568C288.3 104.53 292.431 98.7911 297.321 103.956Z" fill="#13375B"/>
<path d="M286.401 116.313C286.233 117.652 285.263 118.647 284.251 118.532C283.24 118.417 282.608 117.231 282.776 115.892C282.945 114.553 283.914 113.559 284.926 113.673C285.938 113.788 286.612 114.974 286.401 116.313Z" fill="#F7A491"/>
<path d="M302.798 120.369C302.166 121.594 300.943 122.282 300.016 121.9C299.089 121.517 298.836 120.216 299.468 118.992C300.1 117.768 301.323 117.079 302.25 117.462C303.177 117.844 303.388 119.145 302.798 120.369Z" fill="#F7A491"/>
<path d="M294.37 124.463C294.37 124.539 294.96 128.021 295.255 129.819C295.382 130.508 294.96 131.158 294.244 131.388C292.347 132.038 288.638 132.841 286.319 130.622C286.109 130.431 286.024 130.125 286.024 129.857L286.994 121.785L294.37 124.463Z" fill="#F7A491"/>
<path d="M294.958 127.944C292.935 128.709 287.118 128.059 286.654 124.73L286.991 121.823L294.368 124.462C294.368 124.501 294.789 126.873 294.958 127.944Z" fill="#F48C7F"/>
<path d="M296.266 108.049C296.266 108.049 293.189 107.437 290.281 109.082C287.33 110.728 282.567 117.232 286.572 122.894C290.534 128.556 297.32 125.763 299.681 121.287C302.041 116.811 303.053 110.154 296.266 108.049Z" fill="#F7A491"/>
<path d="M294.37 122.014L290.281 121.785C290.281 121.785 290.281 123.2 292.094 123.353C294.286 123.545 294.37 122.014 294.37 122.014Z" fill="white"/>
<path d="M301.494 111.187C301.494 111.187 298.501 109.733 296.309 109.924C294.075 110.115 286.867 114.898 285.814 114.094C284.76 113.291 286.109 109.082 286.952 108.47C287.795 107.858 291.125 106.022 291.42 105.984C291.715 105.945 294.75 105.983 295.255 106.137C295.761 106.251 299.555 107.896 299.555 107.896L301.494 111.187Z" fill="#13375B"/>
<path d="M258.247 177.222C258.289 177.069 258.457 177.069 258.626 177.031C260.143 176.954 261.661 176.84 263.178 176.61C263.431 176.572 263.684 176.495 263.895 176.419C264.316 176.266 264.738 176.227 265.159 176.342C265.412 176.38 265.623 176.381 265.876 176.381C266.635 176.342 268.826 175.615 269.922 175.424C270.175 175.386 270.386 175.194 270.428 174.965C271.398 170.948 273.463 161.995 273.674 159.049C273.927 155.3 276.203 138.313 276.203 138.313L283.874 140.035C283.874 140.035 281.177 152.584 280.502 158.667C279.996 163.334 275.191 173.396 273.674 176.304C272.957 178.446 271.187 178.561 270.808 178.6C270.555 178.638 270.344 178.753 270.217 178.906C269.965 179.212 269.627 179.479 269.29 179.709C269.037 179.862 268.826 180.092 268.658 180.321C268.363 180.742 268.068 181.201 267.815 181.66C267.646 181.966 267.435 182.081 267.14 182.005C266.845 181.928 266.677 181.737 266.677 181.392C266.677 180.895 266.845 180.436 267.098 180.015C267.351 179.594 267.309 179.365 267.014 179.02C266.845 178.829 266.635 178.638 266.424 178.446C266.171 178.293 265.96 178.179 265.623 178.217C265.075 178.37 264.527 178.485 263.979 178.561L263.515 178.676L263.263 178.714C263.22 178.714 262.419 178.829 262.124 178.829C261.914 178.829 261.534 178.867 261.239 178.867C260.944 178.906 260.354 178.791 260.354 178.791C260.101 178.791 259.848 178.714 259.638 178.561C259.553 178.485 259.469 178.408 259.511 178.293C259.553 178.179 259.638 178.14 259.764 178.102C259.933 178.064 260.902 177.949 260.86 177.911C260.565 177.911 259.68 177.911 259.427 177.911C259.047 177.911 258.71 177.796 258.457 177.567C258.331 177.49 258.204 177.375 258.247 177.222Z" fill="#F7A491"/>
<path d="M271.059 148.527L282.186 153.425C282.186 153.425 283.915 146.002 285.221 141.411C286.359 137.471 280.795 130.431 278.941 131.387C274.852 133.53 271.059 148.527 271.059 148.527Z" fill="#5184CE"/>
<path d="M346.345 135.443L445.4 139.269C445.4 139.269 436.759 165.515 436.548 166.816C436.337 168.116 403.839 184.223 395.661 184.032C387.484 183.841 368.432 177.643 364.343 176.533C360.255 175.424 349.59 167.887 350.223 163.258C350.897 158.628 346.345 135.443 346.345 135.443Z" fill="#E88D0E"/>
<path d="M374.837 148.759H348.24C347.565 148.759 347.06 148.261 347.06 147.688V145.622C347.06 145.009 347.608 144.55 348.24 144.55H374.837C375.512 144.55 376.017 145.048 376.017 145.622V147.688C376.06 148.261 375.512 148.759 374.837 148.759Z" fill="#EAB054"/>
<path d="M386.345 98.6777L399.749 103.69L398.99 101.164L393.974 98.6777C393.974 98.6777 389.885 97.9508 389.464 97.7595C389.127 97.5682 386.345 98.6777 386.345 98.6777Z" fill="#F7CC7F"/>
<path opacity="0.6" d="M450.33 130.738L345.543 122.589V128.94C345.543 132.536 348.578 135.52 352.456 135.635L445.272 139.04C447.422 139.116 449.487 138.237 450.71 136.591C451.764 135.214 452.227 133.263 450.33 130.738Z" fill="#C5DDF9"/>
<path opacity="0.7" d="M345.543 122.588V121.708L449.951 130.278L450.33 130.737L345.543 122.588Z" fill="#C5DDF9"/>
<path opacity="0.2" d="M369.694 136.286L379.22 136.668L387.061 125.841L377.787 125.114L369.694 136.286Z" fill="white"/>
<path opacity="0.2" d="M386.639 136.936L394.268 126.376L390.727 126.108L383.014 136.783L386.639 136.936Z" fill="white"/>
<path d="M203.619 135.788L323.285 136.859L324.339 171.292C324.339 171.292 310.345 189.733 308.659 189.542C306.973 189.35 271.229 184.147 268.025 184.338C264.822 184.53 236.791 172.057 235.485 172.287C234.178 172.555 225.411 168.27 225.411 168.27L211.164 159.164L197.043 145.965L203.619 135.788Z" fill="#E88D0E"/>
<path d="M227.857 146.614H201.259C200.585 146.614 200.079 146.117 200.079 145.543V143.477C200.079 142.865 200.627 142.406 201.259 142.406H227.857C228.531 142.406 229.037 142.903 229.037 143.477V145.543C229.037 146.155 228.489 146.614 227.857 146.614Z" fill="#EAB054"/>
<path d="M245.559 110.804L241.428 111.531C241.428 111.531 241.807 112.947 243.662 112.679C245.854 112.335 245.559 110.804 245.559 110.804Z" fill="white"/>
<path d="M232.704 107.208C232.704 107.208 242.061 103.306 242.988 97.2229C243.916 91.1397 235.317 96.955 235.317 96.955L231.818 99.9775L232.704 107.208Z" fill="#1A1A1A"/>
<path d="M348.957 134.678C348.957 134.678 350.685 135.75 352.877 135.711C352.877 135.711 349.969 136.515 349.885 136.477C349.8 136.4 348.325 135.329 348.367 135.329C348.367 135.252 348.957 134.678 348.957 134.678Z" fill="#F7CC7F"/>
<path d="M357.977 95.3472L369.695 96.0359C369.695 96.0359 367.798 93.1665 366.955 93.1665C366.112 93.1665 360.801 93.1665 360.801 93.1665L357.977 95.3472Z" fill="#F7CC7F"/>
<path d="M765.429 252.753H3.02987C1.42509 252.753 0.125977 251.574 0.125977 250.117C0.125977 248.661 1.42509 247.482 3.02987 247.482H765.429C767.034 247.482 768.333 248.661 768.333 250.117C768.307 251.574 767.034 252.753 765.429 252.753Z" fill="#E88D0E"/>
</svg>
