<svg width="64" height="64" viewBox="0 0 64 64" fill="none" xmlns="http://www.w3.org/2000/svg">
<path d="M31.9997 58.6668C46.7273 58.6668 58.6663 46.7278 58.6663 32.0002C58.6663 17.2726 46.7273 5.3335 31.9997 5.3335C17.2721 5.3335 5.33301 17.2726 5.33301 32.0002C5.33301 46.7278 17.2721 58.6668 31.9997 58.6668Z" stroke="#E88D0E" stroke-width="3" stroke-linecap="round" stroke-linejoin="round"/>
<path d="M21.3327 40.0002C22.5746 41.6561 24.1851 43.0002 26.0365 43.9259C27.8879 44.8516 29.9294 45.3335 31.9993 45.3335C34.0693 45.3335 36.1108 44.8516 37.9622 43.9259C39.8136 43.0002 41.4241 41.6561 42.666 40.0002M39.9993 21.3335C39.9993 21.3335 37.3327 24.0002 37.3327 26.6668C39.3327 24.0002 43.3327 24.0002 45.3327 26.6668M23.9993 21.3335C23.9993 21.3335 26.666 24.0002 26.666 26.6668C24.666 24.0002 20.666 24.0002 18.666 26.6668" stroke="#E88D0E" stroke-width="3" stroke-linecap="round" stroke-linejoin="round"/>
</svg>
