<svg width="18" height="18" viewBox="0 0 18 18" fill="none" xmlns="http://www.w3.org/2000/svg">
<path d="M9.77034 1.50055C10.6144 1.50194 11.0421 1.50641 11.4117 1.51742L11.5573 1.52217C11.7254 1.52815 11.8913 1.53565 12.0914 1.54502C12.8894 1.5819 13.4339 1.70815 13.912 1.89377C14.4063 2.0844 14.8238 2.3419 15.2407 2.75878C15.6569 3.17565 15.9145 3.5944 16.1057 4.08752C16.2907 4.56503 16.417 5.11003 16.4545 5.90815C16.4634 6.10815 16.4706 6.27405 16.4765 6.44223L16.4813 6.5878C16.4922 6.95735 16.4972 7.38515 16.4988 8.22923L16.4994 8.78843C16.4995 8.85675 16.4995 8.92725 16.4995 9L16.4994 9.21158L16.499 9.77085C16.4975 10.6149 16.4931 11.0427 16.4821 11.4122L16.4773 11.5578C16.4714 11.726 16.4639 11.8919 16.4545 12.0919C16.4176 12.89 16.2907 13.4344 16.1057 13.9125C15.9151 14.4069 15.6569 14.8244 15.2407 15.2413C14.8238 15.6575 14.4044 15.915 13.912 16.1063C13.4339 16.2913 12.8894 16.4175 12.0914 16.455C11.8913 16.4639 11.7254 16.4712 11.5573 16.4771L11.4117 16.4818C11.0421 16.4928 10.6144 16.4978 9.77034 16.4994L9.21106 16.5C9.14274 16.5 9.07224 16.5 8.99949 16.5H8.78792L8.22864 16.4995C7.38459 16.4981 6.9568 16.4936 6.58724 16.4826L6.44168 16.4779C6.27349 16.4719 6.10759 16.4644 5.9076 16.455C5.10947 16.4182 4.56572 16.2913 4.08698 16.1063C3.59322 15.9157 3.1751 15.6575 2.75822 15.2413C2.34135 14.8244 2.08448 14.405 1.89323 13.9125C1.7076 13.4344 1.58198 12.89 1.54448 12.0919C1.53557 11.8919 1.5283 11.726 1.52241 11.5578L1.51769 11.4122C1.50672 11.0427 1.50172 10.6149 1.5001 9.77085L1.5 8.22923C1.50139 7.38515 1.50586 6.95735 1.51686 6.5878L1.52162 6.44223C1.5276 6.27405 1.5351 6.10815 1.54448 5.90815C1.58135 5.1094 1.7076 4.56565 1.89323 4.08752C2.08385 3.59378 2.34135 3.17565 2.75822 2.75878C3.1751 2.3419 3.59385 2.08502 4.08698 1.89377C4.5651 1.70815 5.10885 1.58252 5.9076 1.54502C6.10759 1.53612 6.27349 1.52885 6.44168 1.52297L6.58724 1.51825C6.9568 1.50727 7.38459 1.50227 8.22864 1.50065L9.77034 1.50055ZM8.99949 5.25002C6.9273 5.25002 5.24948 6.92967 5.24948 9C5.24948 11.0722 6.92912 12.75 8.99949 12.75C11.0717 12.75 12.7495 11.0704 12.7495 9C12.7495 6.92785 11.0698 5.25002 8.99949 5.25002ZM8.99949 6.75002C10.2422 6.75002 11.2495 7.75703 11.2495 9C11.2495 10.2427 10.2425 11.25 8.99949 11.25C7.75682 11.25 6.74948 10.2431 6.74948 9C6.74948 7.75733 7.75644 6.75002 8.99949 6.75002ZM12.937 4.12502C12.42 4.12502 11.9995 4.54496 11.9995 5.06189C11.9995 5.57882 12.4194 5.9994 12.937 5.9994C13.4539 5.9994 13.8745 5.57948 13.8745 5.06189C13.8745 4.54496 13.4532 4.12438 12.937 4.12502Z" fill="#ACA9A6"/>
</svg>
