<svg width="64" height="64" viewBox="0 0 64 64" fill="none" xmlns="http://www.w3.org/2000/svg">
<path d="M54.495 9.88077V13.3333C54.495 25.894 50.9945 34.8205 45.5326 40.5968C40.0747 46.3689 32.4976 49.1667 23.9951 49.1667L13.9757 49.1664L12.7189 49.1664L12.4989 50.4038C12.125 52.5067 11.9098 54.7543 11.8475 57.1667H9.51354C9.58715 54.2092 9.88093 51.5035 10.3871 49.0141L10.4441 48.7338L10.3939 48.4522C9.80161 45.127 9.49512 40.5433 9.49512 34.6667C9.49512 20.7675 20.7626 9.5 34.6617 9.5C35.8782 9.5 37.1198 9.65214 38.5267 9.85904C38.8141 9.9013 39.109 9.94596 39.4113 9.99174C40.5635 10.1662 41.8226 10.3569 43.1791 10.4926C46.2553 10.8002 49.8771 10.8327 54.495 9.88077ZM11.8542 37.4841L11.9486 42.4714L14.6205 38.2592C17.573 33.6047 21.831 29.804 27.4558 26.4129L28.6137 28.4391C21.5114 32.7273 16.5876 37.7393 13.9878 44.8155L13.2467 46.8327L15.3957 46.8328L23.995 46.8333H23.9951C32.3621 46.8333 39.3825 44.0577 44.3348 38.486C49.2635 32.9409 51.9818 24.8092 52.1532 14.3918L52.1808 12.7114L50.5081 12.8741C47.0149 13.214 43.7476 13.0021 39.6239 12.3835C36.5772 11.9265 35.8624 11.8333 34.6617 11.8333C22.0513 11.8333 11.8285 22.0562 11.8285 34.6667C11.8285 35.6419 11.8371 36.5812 11.8542 37.4841Z" fill="black" stroke="#E88D0E" stroke-width="3"/>
</svg>
