<svg width="18" height="18" viewBox="0 0 18 18" fill="none" xmlns="http://www.w3.org/2000/svg">
<path d="M5.20512 3.74995C5.20484 4.36068 4.83432 4.91026 4.26826 5.13955C3.70221 5.36884 3.05366 5.23204 2.62843 4.79366C2.2032 4.35528 2.08622 3.70286 2.33263 3.14405C2.57905 2.58524 3.13966 2.23162 3.75012 2.24995C4.56092 2.27428 5.20548 2.93878 5.20512 3.74995ZM5.25012 6.35995H2.25012V15.7499H5.25012V6.35995ZM9.99013 6.35995H7.00512V15.7499H9.96013V10.8224C9.96013 8.07742 13.5376 7.82242 13.5376 10.8224V15.7499H16.5001V9.80242C16.5001 5.17495 11.2051 5.34745 9.96013 7.61992L9.99013 6.35995Z" fill="#ACA9A6"/>
</svg>
