<svg width="61" height="61" viewBox="0 0 61 61" fill="none" xmlns="http://www.w3.org/2000/svg">
<path d="M58.5801 18.9417L52.8613 24.6908C53.3454 26.5365 53.5875 28.4428 53.5875 30.4096C53.5875 43.1786 43.2089 53.5572 30.4399 53.5572C17.6406 53.5572 7.262 43.1786 7.262 30.4096C7.262 28.4126 7.50406 26.476 7.98819 24.6303L2.26937 18.8812C0.816974 22.4517 0 26.3247 0 30.4096C0 47.1727 13.6465 60.8192 30.4096 60.8192C47.1727 60.8192 60.8192 47.1727 60.8192 30.4096C60.8192 26.355 60.0325 22.4819 58.5801 18.9417ZM26.7786 7.53432C27.9587 7.35277 29.169 7.262 30.4096 7.262C31.6502 7.262 32.8605 7.35277 34.0406 7.53432C40.5461 8.5631 46.1439 12.3151 49.6539 17.5498L54.8583 12.3454C49.3211 4.87159 40.4251 0 30.4096 0C20.4244 0 11.5284 4.84133 5.99115 12.3151L11.1956 17.5196C14.7055 12.2849 20.3033 8.5631 26.7786 7.53432Z" fill="#E88D0E"/>
<path d="M36.8491 38H21.3643V35.4419C24.6727 32.8839 33.4384 27.3585 33.0973 22.4129C32.9267 19.4114 30.471 18.3882 27.7424 18.3882C25.5254 18.3882 23.1038 19.0703 21.5348 19.8889V16.5464C23.6836 15.5232 26.2758 14.8751 28.7315 14.8751C33.0291 14.8751 36.8491 16.8192 36.9855 22.1059C37.0879 27.6313 30.1299 32.611 26.9238 34.8621V34.9985H36.8491V38Z" fill="#E88D0E"/>
</svg>
