<svg width="61" height="58" viewBox="0 0 61 58" fill="none" xmlns="http://www.w3.org/2000/svg">
<path d="M58.5801 18.0637L52.8613 23.5463C53.3454 25.3065 53.5875 27.1244 53.5875 29C53.5875 41.1771 43.2089 51.0746 30.4399 51.0746C17.6406 51.0746 7.262 41.1771 7.262 29C7.262 27.0955 7.50406 25.2488 7.98819 23.4886L2.26937 18.006C0.816974 21.4109 0 25.1045 0 29C0 44.9861 13.6465 58 30.4096 58C47.1727 58 60.8192 44.9861 60.8192 29C60.8192 25.1333 60.0325 21.4398 58.5801 18.0637ZM26.7786 7.18507C27.9587 7.01194 29.169 6.92537 30.4096 6.92537C31.6502 6.92537 32.8605 7.01194 34.0406 7.18507C40.5461 8.16617 46.1439 11.7443 49.6539 16.7363L54.8583 11.7731C49.3211 4.64577 40.4251 0 30.4096 0C20.4244 0 11.5284 4.61692 5.99115 11.7443L11.1956 16.7075C14.7055 11.7154 20.3033 8.16617 26.7786 7.18507Z" fill="#E88D0E"/>
<path d="M25.5363 27.8019V25.005H28.947C32.3919 25.005 34.0291 23.9818 34.1655 22.2764C34.336 19.7184 32.2214 17.9107 28.5037 18.013C26.8665 18.0471 23.8309 18.661 22.3643 19.6502L22.3984 16.3758C24.6154 15.3526 27.0711 14.7728 29.5269 14.7728C33.7221 14.7728 37.8491 16.8192 37.8491 21.3896C37.815 23.8113 36.2802 25.8236 33.6539 26.267V26.3693C36.4166 27.0856 37.9173 28.9956 37.9173 31.4514C37.9173 35.9535 33.5175 38.1364 29.561 38.1364C27.1052 38.1364 24.6495 37.5566 22.3984 36.5334L22.3643 33.2249C23.8309 34.2482 26.8324 34.9303 28.6401 34.9644C33.2446 35.0668 34.5066 32.2358 34.2337 30.394C33.8926 28.0065 30.3796 27.4608 25.5363 27.8019Z" fill="#E88D0E"/>
</svg>
