<svg width="165" height="164" viewBox="0 0 165 164" fill="none" xmlns="http://www.w3.org/2000/svg">
<g clip-path="url(#clip0_9781_28327)">
<path d="M164.5 0H0.5V164H164.5V0Z" fill="#EFEEEC"/>
<path d="M15.0985 10.25H10.75V14.5985H15.0985V10.25Z" fill="#292928"/>
<path d="M19.447 10.25H15.0985V14.5985H19.447V10.25Z" fill="#292928"/>
<path d="M23.7955 10.25H19.447V14.5985H23.7955V10.25Z" fill="#292928"/>
<path d="M28.1439 10.25H23.7955V14.5985H28.1439V10.25Z" fill="#292928"/>
<path d="M32.4924 10.25H28.1439V14.5985H32.4924V10.25Z" fill="#292928"/>
<path d="M36.8409 10.25H32.4924V14.5985H36.8409V10.25Z" fill="#292928"/>
<path d="M41.1894 10.25H36.8409V14.5985H41.1894V10.25Z" fill="#292928"/>
<path d="M49.8864 10.25H45.5379V14.5985H49.8864V10.25Z" fill="#292928"/>
<path d="M54.2348 10.25H49.8864V14.5985H54.2348V10.25Z" fill="#292928"/>
<path d="M62.9318 10.25H58.5833V14.5985H62.9318V10.25Z" fill="#292928"/>
<path d="M75.9773 10.25H71.6288V14.5985H75.9773V10.25Z" fill="#292928"/>
<path d="M84.6742 10.25H80.3258V14.5985H84.6742V10.25Z" fill="#292928"/>
<path d="M89.0227 10.25H84.6742V14.5985H89.0227V10.25Z" fill="#292928"/>
<path d="M93.3712 10.25H89.0227V14.5985H93.3712V10.25Z" fill="#292928"/>
<path d="M97.7197 10.25H93.3712V14.5985H97.7197V10.25Z" fill="#292928"/>
<path d="M102.068 10.25H97.7197V14.5985H102.068V10.25Z" fill="#292928"/>
<path d="M110.765 10.25H106.417V14.5985H110.765V10.25Z" fill="#292928"/>
<path d="M119.462 10.25H115.114V14.5985H119.462V10.25Z" fill="#292928"/>
<path d="M128.159 10.25H123.811V14.5985H128.159V10.25Z" fill="#292928"/>
<path d="M132.508 10.25H128.159V14.5985H132.508V10.25Z" fill="#292928"/>
<path d="M136.856 10.25H132.508V14.5985H136.856V10.25Z" fill="#292928"/>
<path d="M141.205 10.25H136.856V14.5985H141.205V10.25Z" fill="#292928"/>
<path d="M145.553 10.25H141.205V14.5985H145.553V10.25Z" fill="#292928"/>
<path d="M149.902 10.25H145.553V14.5985H149.902V10.25Z" fill="#292928"/>
<path d="M154.25 10.25H149.902V14.5985H154.25V10.25Z" fill="#292928"/>
<path d="M15.0985 14.5985H10.75V18.947H15.0985V14.5985Z" fill="#292928"/>
<path d="M41.1894 14.5985H36.8409V18.947H41.1894V14.5985Z" fill="#292928"/>
<path d="M54.2348 14.5985H49.8864V18.947H54.2348V14.5985Z" fill="#292928"/>
<path d="M58.5833 14.5985H54.2348V18.947H58.5833V14.5985Z" fill="#292928"/>
<path d="M67.2803 14.5985H62.9318V18.947H67.2803V14.5985Z" fill="#292928"/>
<path d="M71.6288 14.5985H67.2803V18.947H71.6288V14.5985Z" fill="#292928"/>
<path d="M89.0227 14.5985H84.6742V18.947H89.0227V14.5985Z" fill="#292928"/>
<path d="M93.3712 14.5985H89.0227V18.947H93.3712V14.5985Z" fill="#292928"/>
<path d="M102.068 14.5985H97.7197V18.947H102.068V14.5985Z" fill="#292928"/>
<path d="M115.114 14.5985H110.765V18.947H115.114V14.5985Z" fill="#292928"/>
<path d="M128.159 14.5985H123.811V18.947H128.159V14.5985Z" fill="#292928"/>
<path d="M154.25 14.5985H149.902V18.947H154.25V14.5985Z" fill="#292928"/>
<path d="M15.0985 18.947H10.75V23.2955H15.0985V18.947Z" fill="#292928"/>
<path d="M23.7955 18.947H19.447V23.2955H23.7955V18.947Z" fill="#292928"/>
<path d="M28.1439 18.947H23.7955V23.2955H28.1439V18.947Z" fill="#292928"/>
<path d="M32.4924 18.947H28.1439V23.2955H32.4924V18.947Z" fill="#292928"/>
<path d="M41.1894 18.947H36.8409V23.2955H41.1894V18.947Z" fill="#292928"/>
<path d="M49.8864 18.947H45.5379V23.2955H49.8864V18.947Z" fill="#292928"/>
<path d="M58.5833 18.947H54.2348V23.2955H58.5833V18.947Z" fill="#292928"/>
<path d="M62.9318 18.947H58.5833V23.2955H62.9318V18.947Z" fill="#292928"/>
<path d="M67.2803 18.947H62.9318V23.2955H67.2803V18.947Z" fill="#292928"/>
<path d="M71.6288 18.947H67.2803V23.2955H71.6288V18.947Z" fill="#292928"/>
<path d="M80.3258 18.947H75.9773V23.2955H80.3258V18.947Z" fill="#292928"/>
<path d="M89.0227 18.947H84.6742V23.2955H89.0227V18.947Z" fill="#292928"/>
<path d="M97.7197 18.947H93.3712L93.3712 23.2955H97.7197V18.947Z" fill="#292928"/>
<path d="M102.068 18.947H97.7197V23.2955H102.068V18.947Z" fill="#292928"/>
<path d="M110.765 18.947H106.417V23.2955H110.765V18.947Z" fill="#292928"/>
<path d="M119.462 18.947H115.114V23.2955H119.462V18.947Z" fill="#292928"/>
<path d="M128.159 18.947H123.811V23.2955H128.159V18.947Z" fill="#292928"/>
<path d="M136.856 18.947H132.508V23.2955H136.856V18.947Z" fill="#292928"/>
<path d="M141.205 18.947H136.856V23.2955H141.205V18.947Z" fill="#292928"/>
<path d="M145.553 18.947H141.205V23.2955H145.553V18.947Z" fill="#292928"/>
<path d="M154.25 18.947H149.902V23.2955H154.25V18.947Z" fill="#292928"/>
<path d="M15.0985 23.2955H10.75V27.6439H15.0985V23.2955Z" fill="#292928"/>
<path d="M23.7955 23.2955H19.447V27.6439H23.7955V23.2955Z" fill="#292928"/>
<path d="M28.1439 23.2955H23.7955V27.6439H28.1439V23.2955Z" fill="#292928"/>
<path d="M32.4924 23.2955H28.1439V27.6439H32.4924V23.2955Z" fill="#292928"/>
<path d="M41.1894 23.2955H36.8409V27.6439H41.1894V23.2955Z" fill="#292928"/>
<path d="M54.2348 23.2955H49.8864V27.6439H54.2348V23.2955Z" fill="#292928"/>
<path d="M58.5833 23.2955H54.2348V27.6439H58.5833V23.2955Z" fill="#292928"/>
<path d="M67.2803 23.2955H62.9318V27.6439H67.2803V23.2955Z" fill="#292928"/>
<path d="M71.6288 23.2955H67.2803V27.6439H71.6288V23.2955Z" fill="#292928"/>
<path d="M80.3258 23.2955H75.9773V27.6439H80.3258V23.2955Z" fill="#292928"/>
<path d="M84.6742 23.2955H80.3258V27.6439H84.6742V23.2955Z" fill="#292928"/>
<path d="M106.417 23.2955H102.068V27.6439H106.417V23.2955Z" fill="#292928"/>
<path d="M115.114 23.2955H110.765V27.6439H115.114V23.2955Z" fill="#292928"/>
<path d="M119.462 23.2955H115.114V27.6439H119.462V23.2955Z" fill="#292928"/>
<path d="M128.159 23.2955H123.811V27.6439H128.159V23.2955Z" fill="#292928"/>
<path d="M136.856 23.2955H132.508V27.6439H136.856V23.2955Z" fill="#292928"/>
<path d="M141.205 23.2955H136.856V27.6439H141.205V23.2955Z" fill="#292928"/>
<path d="M145.553 23.2955H141.205V27.6439H145.553V23.2955Z" fill="#292928"/>
<path d="M154.25 23.2955H149.902V27.6439H154.25V23.2955Z" fill="#292928"/>
<path d="M15.0985 27.6439H10.75V31.9924H15.0985V27.6439Z" fill="#292928"/>
<path d="M23.7955 27.6439H19.447V31.9924H23.7955V27.6439Z" fill="#292928"/>
<path d="M28.1439 27.6439H23.7955V31.9924H28.1439V27.6439Z" fill="#292928"/>
<path d="M32.4924 27.6439H28.1439V31.9924H32.4924V27.6439Z" fill="#292928"/>
<path d="M41.1894 27.6439H36.8409V31.9924H41.1894V27.6439Z" fill="#292928"/>
<path d="M49.8864 27.6439H45.5379V31.9924H49.8864V27.6439Z" fill="#292928"/>
<path d="M58.5833 27.6439H54.2348V31.9924H58.5833V27.6439Z" fill="#292928"/>
<path d="M62.9318 27.6439H58.5833V31.9924H62.9318V27.6439Z" fill="#292928"/>
<path d="M67.2803 27.6439H62.9318V31.9924H67.2803V27.6439Z" fill="#292928"/>
<path d="M71.6288 27.6439H67.2803V31.9924H71.6288V27.6439Z" fill="#292928"/>
<path d="M84.6742 27.6439H80.3258V31.9924H84.6742V27.6439Z" fill="#292928"/>
<path d="M89.0227 27.6439H84.6742V31.9924H89.0227V27.6439Z" fill="#292928"/>
<path d="M93.3712 27.6439H89.0227V31.9924H93.3712V27.6439Z" fill="#292928"/>
<path d="M128.159 27.6439H123.811V31.9924H128.159V27.6439Z" fill="#292928"/>
<path d="M136.856 27.6439H132.508V31.9924H136.856V27.6439Z" fill="#292928"/>
<path d="M141.205 27.6439H136.856V31.9924H141.205V27.6439Z" fill="#292928"/>
<path d="M145.553 27.6439H141.205V31.9924H145.553V27.6439Z" fill="#292928"/>
<path d="M154.25 27.6439H149.902V31.9924H154.25V27.6439Z" fill="#292928"/>
<path d="M15.0985 31.9924H10.75V36.3409H15.0985V31.9924Z" fill="#292928"/>
<path d="M41.1894 31.9924H36.8409V36.3409H41.1894V31.9924Z" fill="#292928"/>
<path d="M54.2348 31.9924H49.8864V36.3409H54.2348V31.9924Z" fill="#292928"/>
<path d="M58.5833 31.9924H54.2348V36.3409H58.5833V31.9924Z" fill="#292928"/>
<path d="M67.2803 31.9924H62.9318V36.3409H67.2803V31.9924Z" fill="#292928"/>
<path d="M71.6288 31.9924H67.2803V36.3409H71.6288V31.9924Z" fill="#292928"/>
<path d="M80.3258 31.9924H75.9773V36.3409H80.3258V31.9924Z" fill="#292928"/>
<path d="M93.3712 31.9924H89.0227V36.3409H93.3712V31.9924Z" fill="#292928"/>
<path d="M97.7197 31.9924H93.3712V36.3409H97.7197V31.9924Z" fill="#292928"/>
<path d="M110.765 31.9924H106.417V36.3409H110.765V31.9924Z" fill="#292928"/>
<path d="M119.462 31.9924H115.114V36.3409H119.462V31.9924Z" fill="#292928"/>
<path d="M128.159 31.9924H123.811V36.3409H128.159V31.9924Z" fill="#292928"/>
<path d="M154.25 31.9924H149.902V36.3409H154.25V31.9924Z" fill="#292928"/>
<path d="M15.0985 36.3409H10.75V40.6894H15.0985V36.3409Z" fill="#292928"/>
<path d="M19.447 36.3409H15.0985V40.6894H19.447V36.3409Z" fill="#292928"/>
<path d="M23.7955 36.3409H19.447V40.6894H23.7955V36.3409Z" fill="#292928"/>
<path d="M28.1439 36.3409H23.7955V40.6894H28.1439V36.3409Z" fill="#292928"/>
<path d="M32.4924 36.3409H28.1439V40.6894H32.4924V36.3409Z" fill="#292928"/>
<path d="M36.8409 36.3409H32.4924V40.6894H36.8409V36.3409Z" fill="#292928"/>
<path d="M41.1894 36.3409H36.8409V40.6894H41.1894V36.3409Z" fill="#292928"/>
<path d="M49.8864 36.3409H45.5379V40.6894H49.8864V36.3409Z" fill="#292928"/>
<path d="M58.5833 36.3409H54.2348V40.6894H58.5833V36.3409Z" fill="#292928"/>
<path d="M67.2803 36.3409H62.9318V40.6894H67.2803V36.3409Z" fill="#292928"/>
<path d="M75.9773 36.3409H71.6288V40.6894H75.9773V36.3409Z" fill="#292928"/>
<path d="M84.6742 36.3409H80.3258V40.6894H84.6742V36.3409Z" fill="#292928"/>
<path d="M93.3712 36.3409H89.0227V40.6894H93.3712V36.3409Z" fill="#292928"/>
<path d="M102.068 36.3409H97.7197V40.6894H102.068V36.3409Z" fill="#292928"/>
<path d="M110.765 36.3409H106.417V40.6894H110.765V36.3409Z" fill="#292928"/>
<path d="M119.462 36.3409H115.114V40.6894H119.462V36.3409Z" fill="#292928"/>
<path d="M128.159 36.3409H123.811V40.6894H128.159V36.3409Z" fill="#292928"/>
<path d="M132.508 36.3409H128.159V40.6894H132.508V36.3409Z" fill="#292928"/>
<path d="M136.856 36.3409H132.508V40.6894H136.856V36.3409Z" fill="#292928"/>
<path d="M141.205 36.3409H136.856V40.6894H141.205V36.3409Z" fill="#292928"/>
<path d="M145.553 36.3409H141.205V40.6894H145.553V36.3409Z" fill="#292928"/>
<path d="M149.902 36.3409H145.553V40.6894H149.902V36.3409Z" fill="#292928"/>
<path d="M154.25 36.3409H149.902V40.6894H154.25V36.3409Z" fill="#292928"/>
<path d="M62.9318 40.6894H58.5833V45.0379H62.9318V40.6894Z" fill="#292928"/>
<path d="M71.6288 40.6894H67.2803V45.0379H71.6288V40.6894Z" fill="#292928"/>
<path d="M75.9773 40.6894H71.6288V45.0379H75.9773V40.6894Z" fill="#292928"/>
<path d="M80.3258 40.6894H75.9773V45.0379H80.3258V40.6894Z" fill="#292928"/>
<path d="M84.6742 40.6894H80.3258V45.0379H84.6742V40.6894Z" fill="#292928"/>
<path d="M89.0227 40.6894H84.6742V45.0379H89.0227V40.6894Z" fill="#292928"/>
<path d="M97.7197 40.6894H93.3712L93.3712 45.0379H97.7197V40.6894Z" fill="#292928"/>
<path d="M102.068 40.6894H97.7197V45.0379H102.068V40.6894Z" fill="#292928"/>
<path d="M115.114 40.6894H110.765V45.0379H115.114V40.6894Z" fill="#292928"/>
<path d="M119.462 40.6894H115.114V45.0379H119.462V40.6894Z" fill="#292928"/>
<path d="M19.447 45.0379H15.0985V49.3864H19.447V45.0379Z" fill="#292928"/>
<path d="M32.4924 45.0379H28.1439V49.3864H32.4924V45.0379Z" fill="#292928"/>
<path d="M41.1894 45.0379H36.8409V49.3864H41.1894V45.0379Z" fill="#292928"/>
<path d="M58.5833 45.0379H54.2348V49.3864H58.5833V45.0379Z" fill="#292928"/>
<path d="M67.2803 45.0379H62.9318V49.3864H67.2803V45.0379Z" fill="#292928"/>
<path d="M71.6288 45.0379H67.2803V49.3864H71.6288V45.0379Z" fill="#292928"/>
<path d="M75.9773 45.0379H71.6288V49.3864H75.9773V45.0379Z" fill="#292928"/>
<path d="M93.3712 45.0379H89.0227V49.3864H93.3712L93.3712 45.0379Z" fill="#292928"/>
<path d="M123.811 45.0379H119.462V49.3864H123.811V45.0379Z" fill="#292928"/>
<path d="M136.856 45.0379H132.508V49.3864H136.856V45.0379Z" fill="#292928"/>
<path d="M145.553 45.0379H141.205V49.3864H145.553V45.0379Z" fill="#292928"/>
<path d="M154.25 45.0379H149.902V49.3864H154.25V45.0379Z" fill="#292928"/>
<path d="M15.0985 49.3864H10.75V53.7348H15.0985V49.3864Z" fill="#292928"/>
<path d="M23.7955 49.3864H19.447V53.7348H23.7955V49.3864Z" fill="#292928"/>
<path d="M32.4924 49.3864H28.1439V53.7348H32.4924V49.3864Z" fill="#292928"/>
<path d="M36.8409 49.3864H32.4924V53.7348H36.8409V49.3864Z" fill="#292928"/>
<path d="M45.5379 49.3864H41.1894V53.7348H45.5379V49.3864Z" fill="#292928"/>
<path d="M49.8864 49.3864H45.5379V53.7348H49.8864V49.3864Z" fill="#292928"/>
<path d="M54.2348 49.3864H49.8864V53.7348H54.2348V49.3864Z" fill="#292928"/>
<path d="M58.5833 49.3864H54.2348V53.7348H58.5833V49.3864Z" fill="#292928"/>
<path d="M62.9318 49.3864H58.5833V53.7348H62.9318V49.3864Z" fill="#292928"/>
<path d="M67.2803 49.3864H62.9318V53.7348H67.2803V49.3864Z" fill="#292928"/>
<path d="M75.9773 49.3864H71.6288V53.7348H75.9773V49.3864Z" fill="#292928"/>
<path d="M80.3258 49.3864H75.9773V53.7348H80.3258V49.3864Z" fill="#292928"/>
<path d="M89.0227 49.3864H84.6742V53.7348H89.0227V49.3864Z" fill="#292928"/>
<path d="M93.3712 49.3864H89.0227V53.7348H93.3712V49.3864Z" fill="#292928"/>
<path d="M97.7197 49.3864H93.3712V53.7348H97.7197V49.3864Z" fill="#292928"/>
<path d="M102.068 49.3864H97.7197V53.7348H102.068V49.3864Z" fill="#292928"/>
<path d="M110.765 49.3864H106.417V53.7348H110.765V49.3864Z" fill="#292928"/>
<path d="M128.159 49.3864H123.811V53.7348H128.159V49.3864Z" fill="#292928"/>
<path d="M132.508 49.3864H128.159V53.7348H132.508V49.3864Z" fill="#292928"/>
<path d="M136.856 49.3864H132.508V53.7348H136.856V49.3864Z" fill="#292928"/>
<path d="M141.205 49.3864H136.856V53.7348H141.205V49.3864Z" fill="#292928"/>
<path d="M145.553 49.3864H141.205V53.7348H145.553V49.3864Z" fill="#292928"/>
<path d="M149.902 49.3864H145.553V53.7348H149.902V49.3864Z" fill="#292928"/>
<path d="M154.25 49.3864H149.902V53.7348H154.25V49.3864Z" fill="#292928"/>
<path d="M15.0985 53.7348H10.75V58.0833H15.0985V53.7348Z" fill="#292928"/>
<path d="M19.447 53.7348H15.0985V58.0833H19.447V53.7348Z" fill="#292928"/>
<path d="M28.1439 53.7348H23.7955V58.0833H28.1439V53.7348Z" fill="#292928"/>
<path d="M41.1894 53.7348H36.8409V58.0833H41.1894V53.7348Z" fill="#292928"/>
<path d="M45.5379 53.7348H41.1894V58.0833H45.5379V53.7348Z" fill="#292928"/>
<path d="M54.2348 53.7348H49.8864V58.0833H54.2348V53.7348Z" fill="#292928"/>
<path d="M62.9318 53.7348H58.5833V58.0833H62.9318V53.7348Z" fill="#292928"/>
<path d="M71.6288 53.7348H67.2803V58.0833H71.6288V53.7348Z" fill="#292928"/>
<path d="M75.9773 53.7348H71.6288V58.0833H75.9773V53.7348Z" fill="#292928"/>
<path d="M84.6742 53.7348H80.3258V58.0833H84.6742V53.7348Z" fill="#292928"/>
<path d="M97.7197 53.7348H93.3712L93.3712 58.0833H97.7197V53.7348Z" fill="#292928"/>
<path d="M110.765 53.7348H106.417V58.0833H110.765V53.7348Z" fill="#292928"/>
<path d="M128.159 53.7348H123.811V58.0833H128.159V53.7348Z" fill="#292928"/>
<path d="M149.902 53.7348H145.553V58.0833H149.902V53.7348Z" fill="#292928"/>
<path d="M23.7955 58.0833H19.447V62.4318H23.7955V58.0833Z" fill="#292928"/>
<path d="M28.1439 58.0833H23.7955V62.4318H28.1439V58.0833Z" fill="#292928"/>
<path d="M49.8864 58.0833H45.5379V62.4318H49.8864V58.0833Z" fill="#292928"/>
<path d="M54.2348 58.0833H49.8864V62.4318H54.2348V58.0833Z" fill="#292928"/>
<path d="M58.5833 58.0833H54.2348V62.4318H58.5833V58.0833Z" fill="#292928"/>
<path d="M62.9318 58.0833H58.5833V62.4318H62.9318V58.0833Z" fill="#292928"/>
<path d="M67.2803 58.0833H62.9318V62.4318H67.2803V58.0833Z" fill="#292928"/>
<path d="M75.9773 58.0833H71.6288V62.4318H75.9773V58.0833Z" fill="#292928"/>
<path d="M84.6742 58.0833H80.3258V62.4318H84.6742V58.0833Z" fill="#292928"/>
<path d="M93.3712 58.0833H89.0227V62.4318H93.3712L93.3712 58.0833Z" fill="#292928"/>
<path d="M102.068 58.0833H97.7197V62.4318H102.068V58.0833Z" fill="#292928"/>
<path d="M106.417 58.0833H102.068V62.4318H106.417V58.0833Z" fill="#292928"/>
<path d="M110.765 58.0833H106.417V62.4318H110.765V58.0833Z" fill="#292928"/>
<path d="M123.811 58.0833H119.462V62.4318H123.811V58.0833Z" fill="#292928"/>
<path d="M132.508 58.0833H128.159V62.4318H132.508V58.0833Z" fill="#292928"/>
<path d="M141.205 58.0833H136.856V62.4318H141.205V58.0833Z" fill="#292928"/>
<path d="M145.553 58.0833H141.205V62.4318H145.553V58.0833Z" fill="#292928"/>
<path d="M149.902 58.0833H145.553V62.4318H149.902V58.0833Z" fill="#292928"/>
<path d="M154.25 58.0833H149.902V62.4318H154.25V58.0833Z" fill="#292928"/>
<path d="M15.0985 62.4318H10.75V66.7803H15.0985V62.4318Z" fill="#292928"/>
<path d="M19.447 62.4318H15.0985V66.7803H19.447V62.4318Z" fill="#292928"/>
<path d="M28.1439 62.4318H23.7955V66.7803H28.1439V62.4318Z" fill="#292928"/>
<path d="M36.8409 62.4318H32.4924V66.7803H36.8409V62.4318Z" fill="#292928"/>
<path d="M41.1894 62.4318H36.8409V66.7803H41.1894V62.4318Z" fill="#292928"/>
<path d="M45.5379 62.4318H41.1894V66.7803H45.5379V62.4318Z" fill="#292928"/>
<path d="M54.2348 62.4318H49.8864V66.7803H54.2348V62.4318Z" fill="#292928"/>
<path d="M71.6288 62.4318H67.2803V66.7803H71.6288V62.4318Z" fill="#292928"/>
<path d="M80.3258 62.4318H75.9773V66.7803H80.3258V62.4318Z" fill="#292928"/>
<path d="M89.0227 62.4318H84.6742V66.7803H89.0227V62.4318Z" fill="#292928"/>
<path d="M93.3712 62.4318H89.0227V66.7803H93.3712V62.4318Z" fill="#292928"/>
<path d="M97.7197 62.4318H93.3712V66.7803H97.7197V62.4318Z" fill="#292928"/>
<path d="M102.068 62.4318H97.7197V66.7803H102.068V62.4318Z" fill="#292928"/>
<path d="M106.417 62.4318H102.068V66.7803H106.417V62.4318Z" fill="#292928"/>
<path d="M115.114 62.4318H110.765V66.7803H115.114V62.4318Z" fill="#292928"/>
<path d="M119.462 62.4318H115.114V66.7803H119.462V62.4318Z" fill="#292928"/>
<path d="M128.159 62.4318H123.811V66.7803H128.159V62.4318Z" fill="#292928"/>
<path d="M132.508 62.4318H128.159V66.7803H132.508V62.4318Z" fill="#292928"/>
<path d="M136.856 62.4318H132.508V66.7803H136.856V62.4318Z" fill="#292928"/>
<path d="M145.553 62.4318H141.205V66.7803H145.553V62.4318Z" fill="#292928"/>
<path d="M19.447 66.7803H15.0985V71.1288H19.447V66.7803Z" fill="#292928"/>
<path d="M28.1439 66.7803H23.7955V71.1288H28.1439V66.7803Z" fill="#292928"/>
<path d="M32.4924 66.7803H28.1439V71.1288H32.4924V66.7803Z" fill="#292928"/>
<path d="M45.5379 66.7803H41.1894V71.1288H45.5379V66.7803Z" fill="#292928"/>
<path d="M49.8864 66.7803H45.5379V71.1288H49.8864V66.7803Z" fill="#292928"/>
<path d="M58.5833 66.7803H54.2348V71.1288H58.5833V66.7803Z" fill="#292928"/>
<path d="M75.9773 66.7803H71.6288V71.1288H75.9773V66.7803Z" fill="#292928"/>
<path d="M89.0227 66.7803H84.6742V71.1288H89.0227V66.7803Z" fill="#292928"/>
<path d="M102.068 66.7803H97.7197V71.1288H102.068V66.7803Z" fill="#292928"/>
<path d="M106.417 66.7803H102.068V71.1288H106.417V66.7803Z" fill="#292928"/>
<path d="M110.765 66.7803H106.417V71.1288H110.765V66.7803Z" fill="#292928"/>
<path d="M115.114 66.7803H110.765V71.1288H115.114V66.7803Z" fill="#292928"/>
<path d="M119.462 66.7803H115.114V71.1288H119.462V66.7803Z" fill="#292928"/>
<path d="M123.811 66.7803H119.462V71.1288H123.811V66.7803Z" fill="#292928"/>
<path d="M128.159 66.7803H123.811V71.1288H128.159V66.7803Z" fill="#292928"/>
<path d="M149.902 66.7803H145.553V71.1288H149.902V66.7803Z" fill="#292928"/>
<path d="M154.25 66.7803H149.902V71.1288H154.25V66.7803Z" fill="#292928"/>
<path d="M15.0985 71.1288H10.75V75.4773H15.0985V71.1288Z" fill="#292928"/>
<path d="M36.8409 71.1288H32.4924V75.4773H36.8409V71.1288Z" fill="#292928"/>
<path d="M41.1894 71.1288H36.8409V75.4773H41.1894V71.1288Z" fill="#292928"/>
<path d="M45.5379 71.1288H41.1894V75.4773H45.5379V71.1288Z" fill="#292928"/>
<path d="M75.9773 71.1288H71.6288V75.4773H75.9773V71.1288Z" fill="#292928"/>
<path d="M84.6742 71.1288H80.3258V75.4773H84.6742V71.1288Z" fill="#292928"/>
<path d="M89.0227 71.1288H84.6742V75.4773H89.0227V71.1288Z" fill="#292928"/>
<path d="M97.7197 71.1288H93.3712V75.4773H97.7197V71.1288Z" fill="#292928"/>
<path d="M110.765 71.1288H106.417V75.4773H110.765V71.1288Z" fill="#292928"/>
<path d="M115.114 71.1288H110.765V75.4773H115.114V71.1288Z" fill="#292928"/>
<path d="M123.811 71.1288H119.462V75.4773H123.811V71.1288Z" fill="#292928"/>
<path d="M128.159 71.1288H123.811V75.4773H128.159V71.1288Z" fill="#292928"/>
<path d="M132.508 71.1288H128.159V75.4773H132.508V71.1288Z" fill="#292928"/>
<path d="M136.856 71.1288H132.508V75.4773H136.856V71.1288Z" fill="#292928"/>
<path d="M145.553 71.1288H141.205V75.4773H145.553V71.1288Z" fill="#292928"/>
<path d="M15.0985 75.4773H10.75V79.8258H15.0985V75.4773Z" fill="#292928"/>
<path d="M19.447 75.4773H15.0985V79.8258H19.447V75.4773Z" fill="#292928"/>
<path d="M28.1439 75.4773H23.7955V79.8258H28.1439V75.4773Z" fill="#292928"/>
<path d="M49.8864 75.4773H45.5379V79.8258H49.8864V75.4773Z" fill="#292928"/>
<path d="M62.9318 75.4773H58.5833V79.8258H62.9318V75.4773Z" fill="#292928"/>
<path d="M71.6288 75.4773H67.2803V79.8258H71.6288V75.4773Z" fill="#292928"/>
<path d="M80.3258 75.4773H75.9773V79.8258H80.3258V75.4773Z" fill="#292928"/>
<path d="M97.7197 75.4773H93.3712V79.8258H97.7197V75.4773Z" fill="#292928"/>
<path d="M106.417 75.4773H102.068V79.8258H106.417V75.4773Z" fill="#292928"/>
<path d="M110.765 75.4773H106.417V79.8258H110.765V75.4773Z" fill="#292928"/>
<path d="M119.462 75.4773H115.114V79.8258H119.462V75.4773Z" fill="#292928"/>
<path d="M136.856 75.4773H132.508V79.8258H136.856V75.4773Z" fill="#292928"/>
<path d="M141.205 75.4773H136.856V79.8258H141.205V75.4773Z" fill="#292928"/>
<path d="M149.902 75.4773H145.553V79.8258H149.902V75.4773Z" fill="#292928"/>
<path d="M15.0985 79.8258H10.75V84.1742H15.0985V79.8258Z" fill="#292928"/>
<path d="M23.7955 79.8258H19.447V84.1742H23.7955V79.8258Z" fill="#292928"/>
<path d="M41.1894 79.8258H36.8409V84.1742H41.1894V79.8258Z" fill="#292928"/>
<path d="M45.5379 79.8258H41.1894V84.1742H45.5379V79.8258Z" fill="#292928"/>
<path d="M54.2348 79.8258H49.8864V84.1742H54.2348V79.8258Z" fill="#292928"/>
<path d="M58.5833 79.8258H54.2348V84.1742H58.5833V79.8258Z" fill="#292928"/>
<path d="M89.0227 79.8258H84.6742V84.1742H89.0227V79.8258Z" fill="#292928"/>
<path d="M102.068 79.8258H97.7197V84.1742H102.068V79.8258Z" fill="#292928"/>
<path d="M106.417 79.8258H102.068V84.1742H106.417V79.8258Z" fill="#292928"/>
<path d="M110.765 79.8258H106.417V84.1742H110.765V79.8258Z" fill="#292928"/>
<path d="M115.114 79.8258H110.765V84.1742H115.114V79.8258Z" fill="#292928"/>
<path d="M119.462 79.8258H115.114V84.1742H119.462V79.8258Z" fill="#292928"/>
<path d="M123.811 79.8258H119.462V84.1742H123.811V79.8258Z" fill="#292928"/>
<path d="M132.508 79.8258H128.159V84.1742H132.508V79.8258Z" fill="#292928"/>
<path d="M154.25 79.8258H149.902V84.1742H154.25V79.8258Z" fill="#292928"/>
<path d="M19.447 84.1742H15.0985V88.5227H19.447V84.1742Z" fill="#292928"/>
<path d="M32.4924 84.1742H28.1439V88.5227H32.4924V84.1742Z" fill="#292928"/>
<path d="M36.8409 84.1742H32.4924V88.5227H36.8409V84.1742Z" fill="#292928"/>
<path d="M45.5379 84.1742H41.1894V88.5227H45.5379V84.1742Z" fill="#292928"/>
<path d="M49.8864 84.1742H45.5379V88.5227H49.8864V84.1742Z" fill="#292928"/>
<path d="M54.2348 84.1742H49.8864V88.5227H54.2348V84.1742Z" fill="#292928"/>
<path d="M58.5833 84.1742H54.2348V88.5227H58.5833V84.1742Z" fill="#292928"/>
<path d="M62.9318 84.1742H58.5833V88.5227H62.9318V84.1742Z" fill="#292928"/>
<path d="M67.2803 84.1742H62.9318V88.5227H67.2803V84.1742Z" fill="#292928"/>
<path d="M75.9773 84.1742H71.6288V88.5227H75.9773V84.1742Z" fill="#292928"/>
<path d="M80.3258 84.1742H75.9773V88.5227H80.3258V84.1742Z" fill="#292928"/>
<path d="M84.6742 84.1742H80.3258V88.5227H84.6742V84.1742Z" fill="#292928"/>
<path d="M89.0227 84.1742H84.6742V88.5227H89.0227V84.1742Z" fill="#292928"/>
<path d="M93.3712 84.1742H89.0227V88.5227H93.3712V84.1742Z" fill="#292928"/>
<path d="M97.7197 84.1742H93.3712V88.5227H97.7197V84.1742Z" fill="#292928"/>
<path d="M110.765 84.1742H106.417V88.5227H110.765V84.1742Z" fill="#292928"/>
<path d="M115.114 84.1742H110.765V88.5227H115.114V84.1742Z" fill="#292928"/>
<path d="M119.462 84.1742H115.114V88.5227H119.462V84.1742Z" fill="#292928"/>
<path d="M128.159 84.1742H123.811V88.5227H128.159V84.1742Z" fill="#292928"/>
<path d="M141.205 84.1742H136.856V88.5227H141.205V84.1742Z" fill="#292928"/>
<path d="M145.553 84.1742H141.205V88.5227H145.553V84.1742Z" fill="#292928"/>
<path d="M149.902 84.1742H145.553V88.5227H149.902V84.1742Z" fill="#292928"/>
<path d="M154.25 84.1742H149.902V88.5227H154.25V84.1742Z" fill="#292928"/>
<path d="M15.0985 88.5227H10.75V92.8712H15.0985V88.5227Z" fill="#292928"/>
<path d="M19.447 88.5227H15.0985V92.8712H19.447V88.5227Z" fill="#292928"/>
<path d="M23.7955 88.5227H19.447V92.8712H23.7955V88.5227Z" fill="#292928"/>
<path d="M36.8409 88.5227H32.4924V92.8712H36.8409V88.5227Z" fill="#292928"/>
<path d="M41.1894 88.5227H36.8409V92.8712H41.1894V88.5227Z" fill="#292928"/>
<path d="M45.5379 88.5227H41.1894V92.8712H45.5379V88.5227Z" fill="#292928"/>
<path d="M49.8864 88.5227H45.5379V92.8712H49.8864V88.5227Z" fill="#292928"/>
<path d="M67.2803 88.5227H62.9318V92.8712H67.2803V88.5227Z" fill="#292928"/>
<path d="M71.6288 88.5227H67.2803V92.8712H71.6288V88.5227Z" fill="#292928"/>
<path d="M80.3258 88.5227H75.9773V92.8712H80.3258V88.5227Z" fill="#292928"/>
<path d="M93.3712 88.5227H89.0227V92.8712H93.3712V88.5227Z" fill="#292928"/>
<path d="M97.7197 88.5227H93.3712V92.8712H97.7197V88.5227Z" fill="#292928"/>
<path d="M102.068 88.5227H97.7197V92.8712H102.068V88.5227Z" fill="#292928"/>
<path d="M149.902 88.5227H145.553V92.8712H149.902V88.5227Z" fill="#292928"/>
<path d="M154.25 88.5227H149.902V92.8712H154.25V88.5227Z" fill="#292928"/>
<path d="M15.0985 92.8712H10.75V97.2197H15.0985V92.8712Z" fill="#292928"/>
<path d="M19.447 92.8712H15.0985V97.2197H19.447V92.8712Z" fill="#292928"/>
<path d="M23.7955 92.8712H19.447V97.2197H23.7955V92.8712Z" fill="#292928"/>
<path d="M32.4924 92.8712L28.1439 92.8712V97.2197H32.4924V92.8712Z" fill="#292928"/>
<path d="M36.8409 92.8712H32.4924V97.2197H36.8409V92.8712Z" fill="#292928"/>
<path d="M45.5379 92.8712H41.1894V97.2197H45.5379V92.8712Z" fill="#292928"/>
<path d="M80.3258 92.8712H75.9773V97.2197H80.3258V92.8712Z" fill="#292928"/>
<path d="M102.068 92.8712H97.7197V97.2197H102.068V92.8712Z" fill="#292928"/>
<path d="M115.114 92.8712H110.765V97.2197H115.114V92.8712Z" fill="#292928"/>
<path d="M132.508 92.8712H128.159V97.2197H132.508V92.8712Z" fill="#292928"/>
<path d="M19.447 97.2197H15.0985V101.568H19.447V97.2197Z" fill="#292928"/>
<path d="M28.1439 97.2197H23.7955V101.568H28.1439V97.2197Z" fill="#292928"/>
<path d="M32.4924 97.2197H28.1439V101.568H32.4924V97.2197Z" fill="#292928"/>
<path d="M41.1894 97.2197H36.8409V101.568H41.1894V97.2197Z" fill="#292928"/>
<path d="M49.8864 97.2197H45.5379V101.568H49.8864V97.2197Z" fill="#292928"/>
<path d="M54.2348 97.2197H49.8864V101.568H54.2348V97.2197Z" fill="#292928"/>
<path d="M84.6742 97.2197H80.3258V101.568H84.6742V97.2197Z" fill="#292928"/>
<path d="M89.0227 97.2197H84.6742V101.568H89.0227V97.2197Z" fill="#292928"/>
<path d="M93.3712 97.2197H89.0227V101.568H93.3712V97.2197Z" fill="#292928"/>
<path d="M97.7197 97.2197H93.3712V101.568H97.7197V97.2197Z" fill="#292928"/>
<path d="M110.765 97.2197H106.417V101.568H110.765V97.2197Z" fill="#292928"/>
<path d="M119.462 97.2197H115.114V101.568H119.462V97.2197Z" fill="#292928"/>
<path d="M132.508 97.2197H128.159V101.568H132.508V97.2197Z" fill="#292928"/>
<path d="M149.902 97.2197H145.553V101.568H149.902V97.2197Z" fill="#292928"/>
<path d="M154.25 97.2197H149.902V101.568H154.25V97.2197Z" fill="#292928"/>
<path d="M19.447 101.568H15.0985V105.917H19.447V101.568Z" fill="#292928"/>
<path d="M36.8409 101.568H32.4924V105.917H36.8409V101.568Z" fill="#292928"/>
<path d="M45.5379 101.568H41.1894V105.917H45.5379V101.568Z" fill="#292928"/>
<path d="M49.8864 101.568H45.5379V105.917H49.8864V101.568Z" fill="#292928"/>
<path d="M54.2348 101.568H49.8864V105.917H54.2348V101.568Z" fill="#292928"/>
<path d="M58.5833 101.568H54.2348V105.917H58.5833V101.568Z" fill="#292928"/>
<path d="M62.9318 101.568H58.5833V105.917H62.9318V101.568Z" fill="#292928"/>
<path d="M67.2803 101.568H62.9318V105.917H67.2803V101.568Z" fill="#292928"/>
<path d="M71.6288 101.568H67.2803V105.917H71.6288V101.568Z" fill="#292928"/>
<path d="M80.3258 101.568H75.9773V105.917H80.3258V101.568Z" fill="#292928"/>
<path d="M84.6742 101.568H80.3258V105.917H84.6742V101.568Z" fill="#292928"/>
<path d="M89.0227 101.568H84.6742V105.917H89.0227V101.568Z" fill="#292928"/>
<path d="M93.3712 101.568H89.0227V105.917H93.3712V101.568Z" fill="#292928"/>
<path d="M97.7197 101.568H93.3712V105.917H97.7197V101.568Z" fill="#292928"/>
<path d="M102.068 101.568H97.7197V105.917H102.068V101.568Z" fill="#292928"/>
<path d="M106.417 101.568H102.068V105.917H106.417V101.568Z" fill="#292928"/>
<path d="M115.114 101.568H110.765V105.917H115.114V101.568Z" fill="#292928"/>
<path d="M119.462 101.568H115.114V105.917H119.462V101.568Z" fill="#292928"/>
<path d="M123.811 101.568H119.462V105.917H123.811V101.568Z" fill="#292928"/>
<path d="M132.508 101.568H128.159V105.917H132.508V101.568Z" fill="#292928"/>
<path d="M136.856 101.568H132.508V105.917H136.856V101.568Z" fill="#292928"/>
<path d="M149.902 101.568H145.553V105.917H149.902V101.568Z" fill="#292928"/>
<path d="M154.25 101.568H149.902V105.917H154.25V101.568Z" fill="#292928"/>
<path d="M15.0985 105.917H10.75V110.265H15.0985V105.917Z" fill="#292928"/>
<path d="M19.447 105.917H15.0985V110.265H19.447V105.917Z" fill="#292928"/>
<path d="M23.7955 105.917H19.447V110.265H23.7955V105.917Z" fill="#292928"/>
<path d="M41.1894 105.917H36.8409V110.265H41.1894V105.917Z" fill="#292928"/>
<path d="M45.5379 105.917H41.1894V110.265H45.5379V105.917Z" fill="#292928"/>
<path d="M54.2348 105.917H49.8864V110.265H54.2348V105.917Z" fill="#292928"/>
<path d="M67.2803 105.917H62.9318V110.265H67.2803V105.917Z" fill="#292928"/>
<path d="M71.6288 105.917H67.2803V110.265H71.6288V105.917Z" fill="#292928"/>
<path d="M75.9773 105.917H71.6288V110.265H75.9773V105.917Z" fill="#292928"/>
<path d="M89.0227 105.917H84.6742V110.265H89.0227V105.917Z" fill="#292928"/>
<path d="M97.7197 105.917H93.3712L93.3712 110.265H97.7197V105.917Z" fill="#292928"/>
<path d="M102.068 105.917H97.7197V110.265H102.068V105.917Z" fill="#292928"/>
<path d="M106.417 105.917H102.068V110.265H106.417V105.917Z" fill="#292928"/>
<path d="M110.765 105.917H106.417V110.265H110.765V105.917Z" fill="#292928"/>
<path d="M136.856 105.917H132.508V110.265H136.856V105.917Z" fill="#292928"/>
<path d="M141.205 105.917H136.856V110.265H141.205V105.917Z" fill="#292928"/>
<path d="M15.0985 110.265H10.75V114.614H15.0985V110.265Z" fill="#292928"/>
<path d="M19.447 110.265H15.0985V114.614H19.447V110.265Z" fill="#292928"/>
<path d="M23.7955 110.265H19.447V114.614H23.7955V110.265Z" fill="#292928"/>
<path d="M32.4924 110.265H28.1439V114.614H32.4924V110.265Z" fill="#292928"/>
<path d="M36.8409 110.265H32.4924V114.614H36.8409V110.265Z" fill="#292928"/>
<path d="M45.5379 110.265H41.1894V114.614H45.5379V110.265Z" fill="#292928"/>
<path d="M49.8864 110.265H45.5379V114.614H49.8864V110.265Z" fill="#292928"/>
<path d="M84.6742 110.265H80.3258V114.614H84.6742V110.265Z" fill="#292928"/>
<path d="M97.7197 110.265H93.3712V114.614H97.7197V110.265Z" fill="#292928"/>
<path d="M128.159 110.265H123.811V114.614H128.159V110.265Z" fill="#292928"/>
<path d="M141.205 110.265H136.856V114.614H141.205V110.265Z" fill="#292928"/>
<path d="M149.902 110.265H145.553V114.614H149.902V110.265Z" fill="#292928"/>
<path d="M154.25 110.265H149.902V114.614H154.25V110.265Z" fill="#292928"/>
<path d="M36.8409 114.614H32.4924V118.962H36.8409V114.614Z" fill="#292928"/>
<path d="M41.1894 114.614H36.8409V118.962H41.1894V114.614Z" fill="#292928"/>
<path d="M49.8864 114.614H45.5379V118.962H49.8864V114.614Z" fill="#292928"/>
<path d="M67.2803 114.614H62.9318V118.962H67.2803V114.614Z" fill="#292928"/>
<path d="M71.6288 114.614H67.2803V118.962H71.6288V114.614Z" fill="#292928"/>
<path d="M80.3258 114.614H75.9773V118.962H80.3258V114.614Z" fill="#292928"/>
<path d="M89.0227 114.614H84.6742V118.962H89.0227V114.614Z" fill="#292928"/>
<path d="M93.3712 114.614H89.0227V118.962H93.3712L93.3712 114.614Z" fill="#292928"/>
<path d="M102.068 114.614H97.7197V118.962H102.068V114.614Z" fill="#292928"/>
<path d="M115.114 114.614H110.765V118.962H115.114V114.614Z" fill="#292928"/>
<path d="M119.462 114.614H115.114V118.962H119.462V114.614Z" fill="#292928"/>
<path d="M123.811 114.614H119.462V118.962H123.811V114.614Z" fill="#292928"/>
<path d="M128.159 114.614H123.811V118.962H128.159V114.614Z" fill="#292928"/>
<path d="M132.508 114.614H128.159V118.962H132.508V114.614Z" fill="#292928"/>
<path d="M136.856 114.614H132.508V118.962H136.856V114.614Z" fill="#292928"/>
<path d="M145.553 114.614H141.205V118.962H145.553V114.614Z" fill="#292928"/>
<path d="M149.902 114.614H145.553V118.962H149.902V114.614Z" fill="#292928"/>
<path d="M154.25 114.614H149.902V118.962H154.25V114.614Z" fill="#292928"/>
<path d="M54.2348 118.962H49.8864V123.311H54.2348V118.962Z" fill="#292928"/>
<path d="M62.9318 118.962H58.5833V123.311H62.9318V118.962Z" fill="#292928"/>
<path d="M71.6288 118.962H67.2803V123.311H71.6288V118.962Z" fill="#292928"/>
<path d="M75.9773 118.962H71.6288V123.311H75.9773V118.962Z" fill="#292928"/>
<path d="M84.6742 118.962H80.3258V123.311H84.6742V118.962Z" fill="#292928"/>
<path d="M89.0227 118.962H84.6742V123.311H89.0227V118.962Z" fill="#292928"/>
<path d="M93.3712 118.962H89.0227V123.311H93.3712V118.962Z" fill="#292928"/>
<path d="M102.068 118.962H97.7197V123.311H102.068V118.962Z" fill="#292928"/>
<path d="M106.417 118.962H102.068V123.311H106.417V118.962Z" fill="#292928"/>
<path d="M119.462 118.962H115.114V123.311H119.462V118.962Z" fill="#292928"/>
<path d="M136.856 118.962H132.508V123.311H136.856V118.962Z" fill="#292928"/>
<path d="M145.553 118.962H141.205V123.311H145.553V118.962Z" fill="#292928"/>
<path d="M15.0985 123.311H10.75V127.659H15.0985V123.311Z" fill="#292928"/>
<path d="M19.447 123.311H15.0985V127.659H19.447V123.311Z" fill="#292928"/>
<path d="M23.7955 123.311H19.447V127.659H23.7955V123.311Z" fill="#292928"/>
<path d="M28.1439 123.311H23.7955V127.659H28.1439V123.311Z" fill="#292928"/>
<path d="M32.4924 123.311H28.1439V127.659H32.4924V123.311Z" fill="#292928"/>
<path d="M36.8409 123.311H32.4924V127.659H36.8409V123.311Z" fill="#292928"/>
<path d="M41.1894 123.311H36.8409V127.659H41.1894V123.311Z" fill="#292928"/>
<path d="M54.2348 123.311H49.8864V127.659H54.2348V123.311Z" fill="#292928"/>
<path d="M58.5833 123.311H54.2348V127.659H58.5833V123.311Z" fill="#292928"/>
<path d="M62.9318 123.311H58.5833V127.659H62.9318V123.311Z" fill="#292928"/>
<path d="M67.2803 123.311H62.9318V127.659H67.2803V123.311Z" fill="#292928"/>
<path d="M71.6288 123.311H67.2803V127.659H71.6288V123.311Z" fill="#292928"/>
<path d="M80.3258 123.311H75.9773V127.659H80.3258V123.311Z" fill="#292928"/>
<path d="M84.6742 123.311H80.3258V127.659H84.6742V123.311Z" fill="#292928"/>
<path d="M89.0227 123.311H84.6742V127.659H89.0227V123.311Z" fill="#292928"/>
<path d="M102.068 123.311H97.7197V127.659H102.068V123.311Z" fill="#292928"/>
<path d="M106.417 123.311H102.068V127.659H106.417V123.311Z" fill="#292928"/>
<path d="M110.765 123.311H106.417V127.659H110.765V123.311Z" fill="#292928"/>
<path d="M119.462 123.311H115.114V127.659H119.462V123.311Z" fill="#292928"/>
<path d="M128.159 123.311H123.811V127.659H128.159V123.311Z" fill="#292928"/>
<path d="M136.856 123.311H132.508V127.659H136.856V123.311Z" fill="#292928"/>
<path d="M149.902 123.311H145.553V127.659H149.902V123.311Z" fill="#292928"/>
<path d="M15.0985 127.659H10.75V132.008H15.0985V127.659Z" fill="#292928"/>
<path d="M41.1894 127.659H36.8409V132.008H41.1894V127.659Z" fill="#292928"/>
<path d="M54.2348 127.659H49.8864V132.008H54.2348V127.659Z" fill="#292928"/>
<path d="M58.5833 127.659H54.2348V132.008H58.5833V127.659Z" fill="#292928"/>
<path d="M67.2803 127.659H62.9318V132.008H67.2803V127.659Z" fill="#292928"/>
<path d="M75.9773 127.659H71.6288V132.008H75.9773V127.659Z" fill="#292928"/>
<path d="M89.0227 127.659H84.6742V132.008H89.0227V127.659Z" fill="#292928"/>
<path d="M97.7197 127.659H93.3712V132.008H97.7197V127.659Z" fill="#292928"/>
<path d="M119.462 127.659H115.114V132.008H119.462V127.659Z" fill="#292928"/>
<path d="M136.856 127.659H132.508V132.008H136.856V127.659Z" fill="#292928"/>
<path d="M15.0985 132.008H10.75V136.356H15.0985V132.008Z" fill="#292928"/>
<path d="M23.7955 132.008H19.447V136.356H23.7955V132.008Z" fill="#292928"/>
<path d="M28.1439 132.008H23.7955V136.356H28.1439V132.008Z" fill="#292928"/>
<path d="M32.4924 132.008H28.1439V136.356H32.4924V132.008Z" fill="#292928"/>
<path d="M41.1894 132.008H36.8409V136.356H41.1894V132.008Z" fill="#292928"/>
<path d="M49.8864 132.008H45.5379V136.356H49.8864V132.008Z" fill="#292928"/>
<path d="M62.9318 132.008H58.5833V136.356H62.9318V132.008Z" fill="#292928"/>
<path d="M80.3258 132.008H75.9773V136.356H80.3258V132.008Z" fill="#292928"/>
<path d="M97.7197 132.008H93.3712V136.356H97.7197V132.008Z" fill="#292928"/>
<path d="M110.765 132.008H106.417V136.356H110.765V132.008Z" fill="#292928"/>
<path d="M119.462 132.008H115.114V136.356H119.462V132.008Z" fill="#292928"/>
<path d="M123.811 132.008H119.462V136.356H123.811V132.008Z" fill="#292928"/>
<path d="M128.159 132.008H123.811V136.356H128.159V132.008Z" fill="#292928"/>
<path d="M132.508 132.008H128.159V136.356H132.508V132.008Z" fill="#292928"/>
<path d="M136.856 132.008H132.508V136.356H136.856V132.008Z" fill="#292928"/>
<path d="M141.205 132.008H136.856V136.356H141.205V132.008Z" fill="#292928"/>
<path d="M145.553 132.008H141.205V136.356H145.553V132.008Z" fill="#292928"/>
<path d="M149.902 132.008H145.553V136.356H149.902V132.008Z" fill="#292928"/>
<path d="M154.25 132.008H149.902V136.356H154.25V132.008Z" fill="#292928"/>
<path d="M15.0985 136.356H10.75V140.705H15.0985V136.356Z" fill="#292928"/>
<path d="M23.7955 136.356H19.447V140.705H23.7955V136.356Z" fill="#292928"/>
<path d="M28.1439 136.356H23.7955V140.705H28.1439V136.356Z" fill="#292928"/>
<path d="M32.4924 136.356H28.1439V140.705H32.4924V136.356Z" fill="#292928"/>
<path d="M41.1894 136.356H36.8409V140.705H41.1894V136.356Z" fill="#292928"/>
<path d="M67.2803 136.356H62.9318V140.705H67.2803V136.356Z" fill="#292928"/>
<path d="M84.6742 136.356H80.3258V140.705H84.6742V136.356Z" fill="#292928"/>
<path d="M102.068 136.356H97.7197V140.705H102.068V136.356Z" fill="#292928"/>
<path d="M110.765 136.356H106.417V140.705H110.765V136.356Z" fill="#292928"/>
<path d="M123.811 136.356H119.462V140.705H123.811V136.356Z" fill="#292928"/>
<path d="M136.856 136.356H132.508V140.705H136.856V136.356Z" fill="#292928"/>
<path d="M141.205 136.356H136.856V140.705H141.205V136.356Z" fill="#292928"/>
<path d="M145.553 136.356H141.205V140.705H145.553V136.356Z" fill="#292928"/>
<path d="M154.25 136.356H149.902V140.705H154.25V136.356Z" fill="#292928"/>
<path d="M15.0985 140.705H10.75V145.053H15.0985V140.705Z" fill="#292928"/>
<path d="M23.7955 140.705H19.447V145.053H23.7955V140.705Z" fill="#292928"/>
<path d="M28.1439 140.705H23.7955V145.053H28.1439V140.705Z" fill="#292928"/>
<path d="M32.4924 140.705H28.1439V145.053H32.4924V140.705Z" fill="#292928"/>
<path d="M41.1894 140.705H36.8409V145.053H41.1894V140.705Z" fill="#292928"/>
<path d="M58.5833 140.705H54.2348V145.053H58.5833V140.705Z" fill="#292928"/>
<path d="M75.9773 140.705H71.6288V145.053H75.9773V140.705Z" fill="#292928"/>
<path d="M93.3712 140.705H89.0227V145.053H93.3712V140.705Z" fill="#292928"/>
<path d="M110.765 140.705H106.417V145.053H110.765V140.705Z" fill="#292928"/>
<path d="M128.159 140.705H123.811V145.053H128.159V140.705Z" fill="#292928"/>
<path d="M15.0985 145.053H10.75V149.402H15.0985V145.053Z" fill="#292928"/>
<path d="M41.1894 145.053H36.8409V149.402H41.1894V145.053Z" fill="#292928"/>
<path d="M49.8864 145.053H45.5379V149.402H49.8864V145.053Z" fill="#292928"/>
<path d="M54.2348 145.053H49.8864V149.402H54.2348V145.053Z" fill="#292928"/>
<path d="M58.5833 145.053H54.2348V149.402H58.5833V145.053Z" fill="#292928"/>
<path d="M62.9318 145.053H58.5833V149.402H62.9318V145.053Z" fill="#292928"/>
<path d="M67.2803 145.053H62.9318V149.402H67.2803V145.053Z" fill="#292928"/>
<path d="M75.9773 145.053H71.6288V149.402H75.9773V145.053Z" fill="#292928"/>
<path d="M80.3258 145.053H75.9773V149.402H80.3258V145.053Z" fill="#292928"/>
<path d="M89.0227 145.053H84.6742V149.402H89.0227V145.053Z" fill="#292928"/>
<path d="M93.3712 145.053H89.0227V149.402H93.3712V145.053Z" fill="#292928"/>
<path d="M102.068 145.053H97.7197V149.402H102.068V145.053Z" fill="#292928"/>
<path d="M106.417 145.053H102.068V149.402H106.417V145.053Z" fill="#292928"/>
<path d="M110.765 145.053H106.417V149.402H110.765V145.053Z" fill="#292928"/>
<path d="M119.462 145.053H115.114V149.402H119.462V145.053Z" fill="#292928"/>
<path d="M123.811 145.053H119.462V149.402H123.811V145.053Z" fill="#292928"/>
<path d="M128.159 145.053H123.811V149.402H128.159V145.053Z" fill="#292928"/>
<path d="M149.902 145.053H145.553V149.402H149.902V145.053Z" fill="#292928"/>
<path d="M154.25 145.053H149.902V149.402H154.25V145.053Z" fill="#292928"/>
<path d="M15.0985 149.402H10.75V153.75H15.0985V149.402Z" fill="#292928"/>
<path d="M19.447 149.402H15.0985V153.75H19.447V149.402Z" fill="#292928"/>
<path d="M23.7955 149.402H19.447V153.75H23.7955V149.402Z" fill="#292928"/>
<path d="M28.1439 149.402H23.7955V153.75H28.1439V149.402Z" fill="#292928"/>
<path d="M32.4924 149.402H28.1439V153.75H32.4924V149.402Z" fill="#292928"/>
<path d="M36.8409 149.402H32.4924V153.75H36.8409V149.402Z" fill="#292928"/>
<path d="M41.1894 149.402H36.8409V153.75H41.1894V149.402Z" fill="#292928"/>
<path d="M54.2348 149.402H49.8864V153.75H54.2348V149.402Z" fill="#292928"/>
<path d="M58.5833 149.402H54.2348V153.75H58.5833V149.402Z" fill="#292928"/>
<path d="M62.9318 149.402H58.5833V153.75H62.9318V149.402Z" fill="#292928"/>
<path d="M71.6288 149.402H67.2803V153.75H71.6288V149.402Z" fill="#292928"/>
<path d="M75.9773 149.402H71.6288V153.75H75.9773V149.402Z" fill="#292928"/>
<path d="M89.0227 149.402H84.6742V153.75H89.0227V149.402Z" fill="#292928"/>
<path d="M93.3712 149.402H89.0227V153.75H93.3712V149.402Z" fill="#292928"/>
<path d="M97.7197 149.402H93.3712V153.75H97.7197V149.402Z" fill="#292928"/>
<path d="M106.417 149.402H102.068V153.75H106.417V149.402Z" fill="#292928"/>
<path d="M110.765 149.402H106.417V153.75H110.765V149.402Z" fill="#292928"/>
<path d="M115.114 149.402H110.765V153.75H115.114V149.402Z" fill="#292928"/>
<path d="M119.462 149.402H115.114V153.75H119.462V149.402Z" fill="#292928"/>
<path d="M123.811 149.402H119.462V153.75H123.811V149.402Z" fill="#292928"/>
<path d="M128.159 149.402H123.811V153.75H128.159V149.402Z" fill="#292928"/>
<path d="M132.508 149.402H128.159V153.75H132.508V149.402Z" fill="#292928"/>
<path d="M136.856 149.402H132.508V153.75H136.856V149.402Z" fill="#292928"/>
<path d="M141.205 149.402H136.856V153.75H141.205V149.402Z" fill="#292928"/>
<path d="M145.553 149.402H141.205V153.75H145.553V149.402Z" fill="#292928"/>
<path d="M154.25 149.402H149.902V153.75H154.25V149.402Z" fill="#292928"/>
</g>
<defs>
<clipPath id="clip0_9781_28327">
<rect width="164" height="164" fill="white" transform="translate(0.5)"/>
</clipPath>
</defs>
</svg>
