<svg width="165" height="164" viewBox="0 0 165 164" fill="none" xmlns="http://www.w3.org/2000/svg">
<g clip-path="url(#clip0_10162_36051)">
<path d="M164.5 0H0.5V164H164.5V0Z" fill="#EFEEEC"/>
<path d="M14.6284 10.25H10.75V14.1284H14.6284V10.25Z" fill="#292928"/>
<path d="M18.5068 10.25H14.6284V14.1284H18.5068V10.25Z" fill="#292928"/>
<path d="M22.3851 10.25H18.5068V14.1284H22.3851V10.25Z" fill="#292928"/>
<path d="M26.2635 10.25H22.3851V14.1284H26.2635V10.25Z" fill="#292928"/>
<path d="M30.1419 10.25H26.2635V14.1284H30.1419V10.25Z" fill="#292928"/>
<path d="M34.0203 10.25H30.1419V14.1284H34.0203V10.25Z" fill="#292928"/>
<path d="M37.8986 10.25H34.0203V14.1284H37.8986V10.25Z" fill="#292928"/>
<path d="M45.6554 10.25H41.777V14.1284H45.6554V10.25Z" fill="#292928"/>
<path d="M57.2905 10.25H53.4122V14.1284H57.2905V10.25Z" fill="#292928"/>
<path d="M61.1689 10.25H57.2905V14.1284H61.1689V10.25Z" fill="#292928"/>
<path d="M72.8041 10.25H68.9257V14.1284H72.8041V10.25Z" fill="#292928"/>
<path d="M80.5608 10.25H76.6824V14.1284H80.5608V10.25Z" fill="#292928"/>
<path d="M92.1959 10.25H88.3176V14.1284H92.1959V10.25Z" fill="#292928"/>
<path d="M96.0743 10.25H92.1959V14.1284H96.0743V10.25Z" fill="#292928"/>
<path d="M107.709 10.25H103.831V14.1284H107.709V10.25Z" fill="#292928"/>
<path d="M115.466 10.25H111.588V14.1284H115.466V10.25Z" fill="#292928"/>
<path d="M123.223 10.25H119.345V14.1284H123.223V10.25Z" fill="#292928"/>
<path d="M130.98 10.25H127.101V14.1284H130.98V10.25Z" fill="#292928"/>
<path d="M134.858 10.25H130.98V14.1284H134.858V10.25Z" fill="#292928"/>
<path d="M138.736 10.25H134.858V14.1284H138.736V10.25Z" fill="#292928"/>
<path d="M142.615 10.25H138.736V14.1284H142.615V10.25Z" fill="#292928"/>
<path d="M146.493 10.25H142.615V14.1284H146.493V10.25Z" fill="#292928"/>
<path d="M150.372 10.25H146.493V14.1284H150.372V10.25Z" fill="#292928"/>
<path d="M154.25 10.25H150.372V14.1284H154.25V10.25Z" fill="#292928"/>
<path d="M14.6284 14.1284H10.75V18.0068H14.6284V14.1284Z" fill="#292928"/>
<path d="M37.8986 14.1284H34.0203V18.0068H37.8986V14.1284Z" fill="#292928"/>
<path d="M53.4122 14.1284H49.5338V18.0068H53.4122V14.1284Z" fill="#292928"/>
<path d="M68.9257 14.1284H65.0473V18.0068H68.9257L68.9257 14.1284Z" fill="#292928"/>
<path d="M72.8041 14.1284H68.9257L68.9257 18.0068H72.8041V14.1284Z" fill="#292928"/>
<path d="M80.5608 14.1284H76.6824V18.0068H80.5608V14.1284Z" fill="#292928"/>
<path d="M88.3176 14.1284H84.4392V18.0068H88.3176V14.1284Z" fill="#292928"/>
<path d="M92.1959 14.1284H88.3176V18.0068H92.1959V14.1284Z" fill="#292928"/>
<path d="M99.9527 14.1284H96.0743V18.0068H99.9527V14.1284Z" fill="#292928"/>
<path d="M103.831 14.1284H99.9527V18.0068H103.831V14.1284Z" fill="#292928"/>
<path d="M107.709 14.1284H103.831V18.0068H107.709V14.1284Z" fill="#292928"/>
<path d="M111.588 14.1284H107.709V18.0068H111.588V14.1284Z" fill="#292928"/>
<path d="M119.345 14.1284H115.466V18.0068H119.345V14.1284Z" fill="#292928"/>
<path d="M123.223 14.1284H119.345V18.0068H123.223V14.1284Z" fill="#292928"/>
<path d="M130.98 14.1284H127.101V18.0068H130.98V14.1284Z" fill="#292928"/>
<path d="M154.25 14.1284H150.372V18.0068H154.25V14.1284Z" fill="#292928"/>
<path d="M14.6284 18.0068H10.75V21.8851H14.6284V18.0068Z" fill="#292928"/>
<path d="M22.3851 18.0068H18.5068V21.8851H22.3851V18.0068Z" fill="#292928"/>
<path d="M26.2635 18.0068H22.3851V21.8851H26.2635V18.0068Z" fill="#292928"/>
<path d="M30.1419 18.0068H26.2635V21.8851H30.1419V18.0068Z" fill="#292928"/>
<path d="M37.8986 18.0068H34.0203V21.8851H37.8986V18.0068Z" fill="#292928"/>
<path d="M53.4122 18.0068H49.5338V21.8851H53.4122V18.0068Z" fill="#292928"/>
<path d="M61.1689 18.0068H57.2905V21.8851H61.1689V18.0068Z" fill="#292928"/>
<path d="M65.0473 18.0068H61.1689V21.8851H65.0473V18.0068Z" fill="#292928"/>
<path d="M68.9257 18.0068H65.0473V21.8851H68.9257V18.0068Z" fill="#292928"/>
<path d="M72.8041 18.0068H68.9257V21.8851H72.8041V18.0068Z" fill="#292928"/>
<path d="M88.3176 18.0068H84.4392V21.8851H88.3176V18.0068Z" fill="#292928"/>
<path d="M92.1959 18.0068H88.3176V21.8851H92.1959V18.0068Z" fill="#292928"/>
<path d="M96.0743 18.0068H92.1959V21.8851H96.0743V18.0068Z" fill="#292928"/>
<path d="M99.9527 18.0068H96.0743V21.8851H99.9527V18.0068Z" fill="#292928"/>
<path d="M103.831 18.0068H99.9527V21.8851H103.831V18.0068Z" fill="#292928"/>
<path d="M119.345 18.0068H115.466V21.8851H119.345V18.0068Z" fill="#292928"/>
<path d="M123.223 18.0068H119.345V21.8851H123.223V18.0068Z" fill="#292928"/>
<path d="M130.98 18.0068H127.101V21.8851H130.98V18.0068Z" fill="#292928"/>
<path d="M138.736 18.0068H134.858V21.8851H138.736V18.0068Z" fill="#292928"/>
<path d="M142.615 18.0068H138.736V21.8851H142.615V18.0068Z" fill="#292928"/>
<path d="M146.493 18.0068H142.615V21.8851H146.493V18.0068Z" fill="#292928"/>
<path d="M154.25 18.0068H150.372V21.8851H154.25V18.0068Z" fill="#292928"/>
<path d="M14.6284 21.8851H10.75V25.7635H14.6284V21.8851Z" fill="#292928"/>
<path d="M22.3851 21.8851H18.5068V25.7635H22.3851V21.8851Z" fill="#292928"/>
<path d="M26.2635 21.8851H22.3851V25.7635H26.2635V21.8851Z" fill="#292928"/>
<path d="M30.1419 21.8851H26.2635V25.7635H30.1419V21.8851Z" fill="#292928"/>
<path d="M37.8986 21.8851H34.0203V25.7635H37.8986V21.8851Z" fill="#292928"/>
<path d="M45.6554 21.8851H41.777V25.7635H45.6554V21.8851Z" fill="#292928"/>
<path d="M61.1689 21.8851H57.2905V25.7635H61.1689V21.8851Z" fill="#292928"/>
<path d="M65.0473 21.8851H61.1689V25.7635H65.0473V21.8851Z" fill="#292928"/>
<path d="M68.9257 21.8851H65.0473V25.7635H68.9257V21.8851Z" fill="#292928"/>
<path d="M76.6824 21.8851H72.8041L72.8041 25.7635H76.6824V21.8851Z" fill="#292928"/>
<path d="M80.5608 21.8851H76.6824V25.7635H80.5608V21.8851Z" fill="#292928"/>
<path d="M84.4392 21.8851H80.5608V25.7635H84.4392V21.8851Z" fill="#292928"/>
<path d="M88.3176 21.8851H84.4392V25.7635H88.3176V21.8851Z" fill="#292928"/>
<path d="M103.831 21.8851H99.9527V25.7635H103.831V21.8851Z" fill="#292928"/>
<path d="M107.709 21.8851H103.831V25.7635H107.709V21.8851Z" fill="#292928"/>
<path d="M130.98 21.8851H127.101V25.7635H130.98V21.8851Z" fill="#292928"/>
<path d="M138.736 21.8851H134.858V25.7635H138.736V21.8851Z" fill="#292928"/>
<path d="M142.615 21.8851H138.736V25.7635H142.615V21.8851Z" fill="#292928"/>
<path d="M146.493 21.8851H142.615V25.7635H146.493V21.8851Z" fill="#292928"/>
<path d="M154.25 21.8851H150.372V25.7635H154.25V21.8851Z" fill="#292928"/>
<path d="M14.6284 25.7635H10.75V29.6419H14.6284V25.7635Z" fill="#292928"/>
<path d="M22.3851 25.7635H18.5068V29.6419H22.3851V25.7635Z" fill="#292928"/>
<path d="M26.2635 25.7635H22.3851V29.6419H26.2635V25.7635Z" fill="#292928"/>
<path d="M30.1419 25.7635H26.2635V29.6419H30.1419V25.7635Z" fill="#292928"/>
<path d="M37.8986 25.7635H34.0203V29.6419H37.8986V25.7635Z" fill="#292928"/>
<path d="M49.5338 25.7635H45.6554V29.6419H49.5338V25.7635Z" fill="#292928"/>
<path d="M57.2905 25.7635H53.4122V29.6419H57.2905L57.2905 25.7635Z" fill="#292928"/>
<path d="M68.9257 25.7635H65.0473V29.6419H68.9257V25.7635Z" fill="#292928"/>
<path d="M72.8041 25.7635H68.9257V29.6419H72.8041L72.8041 25.7635Z" fill="#292928"/>
<path d="M88.3176 25.7635H84.4392V29.6419H88.3176V25.7635Z" fill="#292928"/>
<path d="M92.1959 25.7635H88.3176V29.6419H92.1959V25.7635Z" fill="#292928"/>
<path d="M111.588 25.7635H107.709V29.6419H111.588V25.7635Z" fill="#292928"/>
<path d="M119.345 25.7635H115.466V29.6419H119.345V25.7635Z" fill="#292928"/>
<path d="M130.98 25.7635H127.101V29.6419H130.98V25.7635Z" fill="#292928"/>
<path d="M138.736 25.7635H134.858V29.6419H138.736V25.7635Z" fill="#292928"/>
<path d="M142.615 25.7635H138.736V29.6419H142.615V25.7635Z" fill="#292928"/>
<path d="M146.493 25.7635H142.615V29.6419H146.493V25.7635Z" fill="#292928"/>
<path d="M154.25 25.7635H150.372V29.6419H154.25V25.7635Z" fill="#292928"/>
<path d="M14.6284 29.6419H10.75V33.5203H14.6284V29.6419Z" fill="#292928"/>
<path d="M37.8986 29.6419H34.0203V33.5203H37.8986V29.6419Z" fill="#292928"/>
<path d="M45.6554 29.6419H41.777V33.5203H45.6554V29.6419Z" fill="#292928"/>
<path d="M49.5338 29.6419H45.6554V33.5203H49.5338V29.6419Z" fill="#292928"/>
<path d="M53.4122 29.6419H49.5338V33.5203H53.4122V29.6419Z" fill="#292928"/>
<path d="M61.1689 29.6419H57.2905L57.2905 33.5203H61.1689V29.6419Z" fill="#292928"/>
<path d="M76.6824 29.6419H72.8041L72.8041 33.5203H76.6824V29.6419Z" fill="#292928"/>
<path d="M80.5608 29.6419H76.6824V33.5203H80.5608V29.6419Z" fill="#292928"/>
<path d="M84.4392 29.6419H80.5608V33.5203H84.4392V29.6419Z" fill="#292928"/>
<path d="M88.3176 29.6419H84.4392V33.5203H88.3176V29.6419Z" fill="#292928"/>
<path d="M92.1959 29.6419H88.3176V33.5203H92.1959V29.6419Z" fill="#292928"/>
<path d="M96.0743 29.6419H92.1959V33.5203H96.0743V29.6419Z" fill="#292928"/>
<path d="M99.9527 29.6419H96.0743V33.5203H99.9527V29.6419Z" fill="#292928"/>
<path d="M107.709 29.6419H103.831V33.5203H107.709V29.6419Z" fill="#292928"/>
<path d="M115.466 29.6419H111.588V33.5203H115.466V29.6419Z" fill="#292928"/>
<path d="M119.345 29.6419H115.466V33.5203H119.345V29.6419Z" fill="#292928"/>
<path d="M123.223 29.6419H119.345V33.5203H123.223V29.6419Z" fill="#292928"/>
<path d="M130.98 29.6419H127.101V33.5203H130.98V29.6419Z" fill="#292928"/>
<path d="M154.25 29.6419H150.372V33.5203H154.25V29.6419Z" fill="#292928"/>
<path d="M14.6284 33.5203H10.75V37.3986H14.6284V33.5203Z" fill="#292928"/>
<path d="M18.5068 33.5203H14.6284V37.3986H18.5068V33.5203Z" fill="#292928"/>
<path d="M22.3851 33.5203H18.5068V37.3986H22.3851V33.5203Z" fill="#292928"/>
<path d="M26.2635 33.5203H22.3851V37.3986H26.2635V33.5203Z" fill="#292928"/>
<path d="M30.1419 33.5203H26.2635V37.3986H30.1419V33.5203Z" fill="#292928"/>
<path d="M34.0203 33.5203H30.1419V37.3986H34.0203V33.5203Z" fill="#292928"/>
<path d="M37.8986 33.5203H34.0203V37.3986H37.8986V33.5203Z" fill="#292928"/>
<path d="M45.6554 33.5203H41.777V37.3986H45.6554V33.5203Z" fill="#292928"/>
<path d="M53.4122 33.5203H49.5338V37.3986H53.4122V33.5203Z" fill="#292928"/>
<path d="M61.1689 33.5203H57.2905V37.3986H61.1689V33.5203Z" fill="#292928"/>
<path d="M68.9257 33.5203H65.0473V37.3986H68.9257V33.5203Z" fill="#292928"/>
<path d="M76.6824 33.5203H72.8041V37.3986H76.6824V33.5203Z" fill="#292928"/>
<path d="M84.4392 33.5203H80.5608L80.5608 37.3986H84.4392V33.5203Z" fill="#292928"/>
<path d="M92.1959 33.5203H88.3176V37.3986H92.1959V33.5203Z" fill="#292928"/>
<path d="M99.9527 33.5203H96.0743V37.3986H99.9527V33.5203Z" fill="#292928"/>
<path d="M107.709 33.5203H103.831V37.3986H107.709V33.5203Z" fill="#292928"/>
<path d="M115.466 33.5203H111.588V37.3986H115.466V33.5203Z" fill="#292928"/>
<path d="M123.223 33.5203H119.345V37.3986H123.223V33.5203Z" fill="#292928"/>
<path d="M130.98 33.5203H127.101V37.3986H130.98V33.5203Z" fill="#292928"/>
<path d="M134.858 33.5203H130.98V37.3986H134.858V33.5203Z" fill="#292928"/>
<path d="M138.736 33.5203H134.858V37.3986H138.736V33.5203Z" fill="#292928"/>
<path d="M142.615 33.5203H138.736V37.3986H142.615V33.5203Z" fill="#292928"/>
<path d="M146.493 33.5203H142.615V37.3986H146.493V33.5203Z" fill="#292928"/>
<path d="M150.372 33.5203H146.493V37.3986H150.372V33.5203Z" fill="#292928"/>
<path d="M154.25 33.5203H150.372V37.3986H154.25V33.5203Z" fill="#292928"/>
<path d="M53.4122 37.3986H49.5338V41.277H53.4122V37.3986Z" fill="#292928"/>
<path d="M57.2905 37.3986H53.4122V41.277H57.2905L57.2905 37.3986Z" fill="#292928"/>
<path d="M65.0473 37.3986H61.1689L61.1689 41.277H65.0473V37.3986Z" fill="#292928"/>
<path d="M72.8041 37.3986H68.9257L68.9257 41.277H72.8041L72.8041 37.3986Z" fill="#292928"/>
<path d="M80.5608 37.3986H76.6824L76.6824 41.277H80.5608L80.5608 37.3986Z" fill="#292928"/>
<path d="M92.1959 37.3986H88.3176V41.277H92.1959V37.3986Z" fill="#292928"/>
<path d="M111.588 37.3986H107.709V41.277H111.588V37.3986Z" fill="#292928"/>
<path d="M123.223 37.3986H119.345V41.277H123.223V37.3986Z" fill="#292928"/>
<path d="M34.0203 41.277H30.1419V45.1554H34.0203V41.277Z" fill="#292928"/>
<path d="M37.8986 41.277H34.0203V45.1554H37.8986V41.277Z" fill="#292928"/>
<path d="M45.6554 41.277H41.777V45.1554H45.6554V41.277Z" fill="#292928"/>
<path d="M57.2905 41.277H53.4122V45.1554H57.2905V41.277Z" fill="#292928"/>
<path d="M68.9257 41.277H65.0473V45.1554H68.9257L68.9257 41.277Z" fill="#292928"/>
<path d="M76.6824 41.277H72.8041L72.8041 45.1554H76.6824L76.6824 41.277Z" fill="#292928"/>
<path d="M80.5608 41.277H76.6824L76.6824 45.1554H80.5608V41.277Z" fill="#292928"/>
<path d="M88.3176 41.277H84.4392V45.1554H88.3176V41.277Z" fill="#292928"/>
<path d="M96.0743 41.277H92.1959V45.1554H96.0743V41.277Z" fill="#292928"/>
<path d="M103.831 41.277H99.9527V45.1554H103.831V41.277Z" fill="#292928"/>
<path d="M107.709 41.277H103.831V45.1554H107.709V41.277Z" fill="#292928"/>
<path d="M111.588 41.277H107.709V45.1554H111.588V41.277Z" fill="#292928"/>
<path d="M127.101 41.277H123.223V45.1554H127.101V41.277Z" fill="#292928"/>
<path d="M134.858 41.277H130.98V45.1554H134.858V41.277Z" fill="#292928"/>
<path d="M142.615 41.277H138.736V45.1554H142.615V41.277Z" fill="#292928"/>
<path d="M154.25 41.277H150.372V45.1554H154.25V41.277Z" fill="#292928"/>
<path d="M18.5068 45.1554H14.6284V49.0338H18.5068V45.1554Z" fill="#292928"/>
<path d="M30.1419 45.1554H26.2635V49.0338H30.1419V45.1554Z" fill="#292928"/>
<path d="M34.0203 45.1554H30.1419V49.0338H34.0203V45.1554Z" fill="#292928"/>
<path d="M53.4122 45.1554H49.5338V49.0338H53.4122V45.1554Z" fill="#292928"/>
<path d="M57.2905 45.1554H53.4122V49.0338H57.2905V45.1554Z" fill="#292928"/>
<path d="M61.1689 45.1554H57.2905V49.0338H61.1689V45.1554Z" fill="#292928"/>
<path d="M65.0473 45.1554H61.1689V49.0338H65.0473V45.1554Z" fill="#292928"/>
<path d="M68.9257 45.1554H65.0473V49.0338H68.9257V45.1554Z" fill="#292928"/>
<path d="M72.8041 45.1554H68.9257V49.0338H72.8041L72.8041 45.1554Z" fill="#292928"/>
<path d="M84.4392 45.1554H80.5608L80.5608 49.0338H84.4392V45.1554Z" fill="#292928"/>
<path d="M88.3176 45.1554H84.4392V49.0338H88.3176V45.1554Z" fill="#292928"/>
<path d="M92.1959 45.1554H88.3176V49.0338H92.1959V45.1554Z" fill="#292928"/>
<path d="M99.9527 45.1554H96.0743V49.0338H99.9527V45.1554Z" fill="#292928"/>
<path d="M103.831 45.1554H99.9527V49.0338H103.831V45.1554Z" fill="#292928"/>
<path d="M111.588 45.1554H107.709V49.0338H111.588V45.1554Z" fill="#292928"/>
<path d="M115.466 45.1554H111.588V49.0338H115.466V45.1554Z" fill="#292928"/>
<path d="M119.345 45.1554H115.466V49.0338H119.345V45.1554Z" fill="#292928"/>
<path d="M123.223 45.1554H119.345V49.0338H123.223V45.1554Z" fill="#292928"/>
<path d="M127.101 45.1554H123.223V49.0338H127.101V45.1554Z" fill="#292928"/>
<path d="M130.98 45.1554H127.101V49.0338H130.98V45.1554Z" fill="#292928"/>
<path d="M134.858 45.1554H130.98V49.0338H134.858V45.1554Z" fill="#292928"/>
<path d="M138.736 45.1554H134.858V49.0338H138.736V45.1554Z" fill="#292928"/>
<path d="M22.3851 49.0338H18.5068V52.9122H22.3851V49.0338Z" fill="#292928"/>
<path d="M30.1419 49.0338H26.2635V52.9122H30.1419V49.0338Z" fill="#292928"/>
<path d="M37.8986 49.0338H34.0203V52.9122H37.8986V49.0338Z" fill="#292928"/>
<path d="M41.777 49.0338H37.8986V52.9122H41.777V49.0338Z" fill="#292928"/>
<path d="M45.6554 49.0338H41.777V52.9122H45.6554V49.0338Z" fill="#292928"/>
<path d="M49.5338 49.0338H45.6554V52.9122H49.5338V49.0338Z" fill="#292928"/>
<path d="M57.2905 49.0338H53.4122V52.9122H57.2905V49.0338Z" fill="#292928"/>
<path d="M61.1689 49.0338H57.2905V52.9122H61.1689V49.0338Z" fill="#292928"/>
<path d="M65.0473 49.0338H61.1689V52.9122H65.0473V49.0338Z" fill="#292928"/>
<path d="M72.8041 49.0338H68.9257L68.9257 52.9122H72.8041V49.0338Z" fill="#292928"/>
<path d="M80.5608 49.0338H76.6824V52.9122H80.5608L80.5608 49.0338Z" fill="#292928"/>
<path d="M84.4392 49.0338H80.5608L80.5608 52.9122H84.4392V49.0338Z" fill="#292928"/>
<path d="M88.3176 49.0338H84.4392V52.9122H88.3176V49.0338Z" fill="#292928"/>
<path d="M92.1959 49.0338H88.3176V52.9122H92.1959V49.0338Z" fill="#292928"/>
<path d="M107.709 49.0338H103.831V52.9122H107.709V49.0338Z" fill="#292928"/>
<path d="M115.466 49.0338H111.588V52.9122H115.466V49.0338Z" fill="#292928"/>
<path d="M127.101 49.0338H123.223V52.9122H127.101V49.0338Z" fill="#292928"/>
<path d="M138.736 49.0338H134.858V52.9122H138.736V49.0338Z" fill="#292928"/>
<path d="M142.615 49.0338H138.736V52.9122H142.615V49.0338Z" fill="#292928"/>
<path d="M146.493 49.0338H142.615V52.9122H146.493V49.0338Z" fill="#292928"/>
<path d="M150.372 49.0338H146.493V52.9122H150.372V49.0338Z" fill="#292928"/>
<path d="M154.25 49.0338H150.372V52.9122H154.25V49.0338Z" fill="#292928"/>
<path d="M14.6284 52.9122H10.75V56.7905H14.6284V52.9122Z" fill="#292928"/>
<path d="M34.0203 52.9122H30.1419V56.7905H34.0203V52.9122Z" fill="#292928"/>
<path d="M41.777 52.9122H37.8986V56.7905H41.777V52.9122Z" fill="#292928"/>
<path d="M61.1689 52.9122H57.2905L57.2905 56.7905H61.1689V52.9122Z" fill="#292928"/>
<path d="M65.0473 52.9122H61.1689V56.7905H65.0473V52.9122Z" fill="#292928"/>
<path d="M68.9257 52.9122H65.0473V56.7905H68.9257L68.9257 52.9122Z" fill="#292928"/>
<path d="M80.5608 52.9122H76.6824V56.7905H80.5608V52.9122Z" fill="#292928"/>
<path d="M84.4392 52.9122H80.5608V56.7905H84.4392V52.9122Z" fill="#292928"/>
<path d="M92.1959 52.9122H88.3176V56.7905H92.1959V52.9122Z" fill="#292928"/>
<path d="M96.0743 52.9122H92.1959V56.7905H96.0743V52.9122Z" fill="#292928"/>
<path d="M103.831 52.9122H99.9527V56.7905H103.831V52.9122Z" fill="#292928"/>
<path d="M111.588 52.9122H107.709V56.7905H111.588V52.9122Z" fill="#292928"/>
<path d="M119.345 52.9122H115.466V56.7905H119.345V52.9122Z" fill="#292928"/>
<path d="M127.101 52.9122H123.223V56.7905H127.101V52.9122Z" fill="#292928"/>
<path d="M138.736 52.9122H134.858V56.7905H138.736V52.9122Z" fill="#292928"/>
<path d="M142.615 52.9122H138.736V56.7905H142.615V52.9122Z" fill="#292928"/>
<path d="M14.6284 56.7905H10.75V60.6689H14.6284V56.7905Z" fill="#292928"/>
<path d="M30.1419 56.7905L26.2635 56.7905V60.6689H30.1419V56.7905Z" fill="#292928"/>
<path d="M37.8986 56.7905H34.0203V60.6689H37.8986V56.7905Z" fill="#292928"/>
<path d="M45.6554 56.7905L41.777 56.7905V60.6689H45.6554V56.7905Z" fill="#292928"/>
<path d="M57.2905 56.7905L53.4122 56.7905V60.6689H57.2905L57.2905 56.7905Z" fill="#292928"/>
<path d="M61.1689 56.7905H57.2905L57.2905 60.6689H61.1689V56.7905Z" fill="#292928"/>
<path d="M72.8041 56.7905L68.9257 56.7905L68.9257 60.6689H72.8041V56.7905Z" fill="#292928"/>
<path d="M76.6824 56.7905L72.8041 56.7905V60.6689H76.6824L76.6824 56.7905Z" fill="#292928"/>
<path d="M88.3176 56.7905H84.4392V60.6689H88.3176V56.7905Z" fill="#292928"/>
<path d="M92.1959 56.7905H88.3176V60.6689H92.1959V56.7905Z" fill="#292928"/>
<path d="M99.9527 56.7905H96.0743V60.6689H99.9527V56.7905Z" fill="#292928"/>
<path d="M107.709 56.7905H103.831V60.6689H107.709V56.7905Z" fill="#292928"/>
<path d="M115.466 56.7905H111.588V60.6689H115.466V56.7905Z" fill="#292928"/>
<path d="M119.345 56.7905H115.466V60.6689H119.345V56.7905Z" fill="#292928"/>
<path d="M123.223 56.7905H119.345V60.6689H123.223V56.7905Z" fill="#292928"/>
<path d="M127.101 56.7905H123.223V60.6689H127.101V56.7905Z" fill="#292928"/>
<path d="M130.98 56.7905L127.101 56.7905V60.6689H130.98V56.7905Z" fill="#292928"/>
<path d="M150.372 56.7905H146.493V60.6689H150.372V56.7905Z" fill="#292928"/>
<path d="M14.6284 60.6689H10.75V64.5473H14.6284V60.6689Z" fill="#292928"/>
<path d="M22.3851 60.6689H18.5068V64.5473H22.3851V60.6689Z" fill="#292928"/>
<path d="M26.2635 60.6689L22.3851 60.6689V64.5473H26.2635V60.6689Z" fill="#292928"/>
<path d="M30.1419 60.6689H26.2635V64.5473H30.1419V60.6689Z" fill="#292928"/>
<path d="M34.0203 60.6689H30.1419V64.5473H34.0203V60.6689Z" fill="#292928"/>
<path d="M45.6554 60.6689H41.777V64.5473H45.6554V60.6689Z" fill="#292928"/>
<path d="M49.5338 60.6689L45.6554 60.6689V64.5473H49.5338V60.6689Z" fill="#292928"/>
<path d="M53.4122 60.6689L49.5338 60.6689V64.5473H53.4122V60.6689Z" fill="#292928"/>
<path d="M61.1689 60.6689H57.2905L57.2905 64.5473H61.1689V60.6689Z" fill="#292928"/>
<path d="M65.0473 60.6689L61.1689 60.6689V64.5473H65.0473V60.6689Z" fill="#292928"/>
<path d="M68.9257 60.6689L65.0473 60.6689V64.5473H68.9257L68.9257 60.6689Z" fill="#292928"/>
<path d="M76.6824 60.6689H72.8041L72.8041 64.5473H76.6824V60.6689Z" fill="#292928"/>
<path d="M84.4392 60.6689L80.5608 60.6689V64.5473H84.4392V60.6689Z" fill="#292928"/>
<path d="M99.9527 60.6689H96.0743V64.5473H99.9527V60.6689Z" fill="#292928"/>
<path d="M111.588 60.6689H107.709V64.5473H111.588V60.6689Z" fill="#292928"/>
<path d="M115.466 60.6689H111.588V64.5473H115.466V60.6689Z" fill="#292928"/>
<path d="M119.345 60.6689H115.466V64.5473H119.345V60.6689Z" fill="#292928"/>
<path d="M127.101 60.6689H123.223V64.5473H127.101V60.6689Z" fill="#292928"/>
<path d="M154.25 60.6689L150.372 60.6689V64.5473H154.25V60.6689Z" fill="#292928"/>
<path d="M18.5068 64.5473H14.6284V68.4257H18.5068V64.5473Z" fill="#292928"/>
<path d="M30.1419 64.5473H26.2635V68.4257H30.1419V64.5473Z" fill="#292928"/>
<path d="M37.8986 64.5473H34.0203V68.4257H37.8986V64.5473Z" fill="#292928"/>
<path d="M53.4122 64.5473H49.5338V68.4257H53.4122V64.5473Z" fill="#292928"/>
<path d="M65.0473 64.5473H61.1689L61.1689 68.4257H65.0473V64.5473Z" fill="#292928"/>
<path d="M68.9257 64.5473H65.0473V68.4257H68.9257V64.5473Z" fill="#292928"/>
<path d="M80.5608 64.5473H76.6824L76.6824 68.4257H80.5608L80.5608 64.5473Z" fill="#292928"/>
<path d="M96.0743 64.5473H92.1959V68.4257H96.0743V64.5473Z" fill="#292928"/>
<path d="M99.9527 64.5473H96.0743V68.4257H99.9527V64.5473Z" fill="#292928"/>
<path d="M115.466 64.5473H111.588V68.4257H115.466V64.5473Z" fill="#292928"/>
<path d="M123.223 64.5473H119.345V68.4257H123.223V64.5473Z" fill="#292928"/>
<path d="M130.98 64.5473H127.101V68.4257H130.98V64.5473Z" fill="#292928"/>
<path d="M134.858 64.5473H130.98V68.4257H134.858V64.5473Z" fill="#292928"/>
<path d="M142.615 64.5473H138.736V68.4257H142.615V64.5473Z" fill="#292928"/>
<path d="M146.493 64.5473H142.615V68.4257H146.493V64.5473Z" fill="#292928"/>
<path d="M154.25 64.5473H150.372V68.4257H154.25V64.5473Z" fill="#292928"/>
<path d="M30.1419 68.4257H26.2635V72.3041H30.1419V68.4257Z" fill="#292928"/>
<path d="M34.0203 68.4257H30.1419V72.3041H34.0203V68.4257Z" fill="#292928"/>
<path d="M41.777 68.4257L37.8986 68.4257V72.3041H41.777V68.4257Z" fill="#292928"/>
<path d="M49.5338 68.4257L45.6554 68.4257V72.3041H49.5338V68.4257Z" fill="#292928"/>
<path d="M53.4122 68.4257H49.5338V72.3041H53.4122V68.4257Z" fill="#292928"/>
<path d="M61.1689 68.4257L57.2905 68.4257V72.3041H61.1689L61.1689 68.4257Z" fill="#292928"/>
<path d="M72.8041 68.4257L68.9257 68.4257L68.9257 72.3041H72.8041V68.4257Z" fill="#292928"/>
<path d="M76.6824 68.4257L72.8041 68.4257V72.3041H76.6824L76.6824 68.4257Z" fill="#292928"/>
<path d="M80.5608 68.4257H76.6824L76.6824 72.3041H80.5608V68.4257Z" fill="#292928"/>
<path d="M88.3176 68.4257H84.4392V72.3041H88.3176V68.4257Z" fill="#292928"/>
<path d="M103.831 68.4257L99.9527 68.4257V72.3041H103.831V68.4257Z" fill="#292928"/>
<path d="M107.709 68.4257H103.831V72.3041H107.709V68.4257Z" fill="#292928"/>
<path d="M111.588 68.4257L107.709 68.4257V72.3041H111.588V68.4257Z" fill="#292928"/>
<path d="M115.466 68.4257H111.588V72.3041H115.466V68.4257Z" fill="#292928"/>
<path d="M123.223 68.4257H119.345V72.3041H123.223V68.4257Z" fill="#292928"/>
<path d="M134.858 68.4257H130.98V72.3041H134.858V68.4257Z" fill="#292928"/>
<path d="M142.615 68.4257H138.736V72.3041H142.615V68.4257Z" fill="#292928"/>
<path d="M150.372 68.4257H146.493V72.3041H150.372V68.4257Z" fill="#292928"/>
<path d="M18.5068 72.3041H14.6284V76.1824H18.5068V72.3041Z" fill="#292928"/>
<path d="M22.3851 72.3041H18.5068V76.1824H22.3851V72.3041Z" fill="#292928"/>
<path d="M34.0203 72.3041H30.1419V76.1824H34.0203V72.3041Z" fill="#292928"/>
<path d="M37.8986 72.3041H34.0203V76.1824H37.8986V72.3041Z" fill="#292928"/>
<path d="M41.777 72.3041H37.8986V76.1824H41.777V72.3041Z" fill="#292928"/>
<path d="M45.6554 72.3041H41.777V76.1824H45.6554V72.3041Z" fill="#292928"/>
<path d="M49.5338 72.3041H45.6554V76.1824H49.5338V72.3041Z" fill="#292928"/>
<path d="M57.2905 72.3041H53.4122V76.1824H57.2905L57.2905 72.3041Z" fill="#292928"/>
<path d="M68.9257 72.3041L65.0473 72.3041V76.1824H68.9257L68.9257 72.3041Z" fill="#292928"/>
<path d="M72.8041 72.3041H68.9257L68.9257 76.1824H72.8041V72.3041Z" fill="#292928"/>
<path d="M76.6824 72.3041H72.8041V76.1824H76.6824V72.3041Z" fill="#292928"/>
<path d="M88.3176 72.3041H84.4392V76.1824H88.3176V72.3041Z" fill="#292928"/>
<path d="M92.1959 72.3041L88.3176 72.3041V76.1824H92.1959V72.3041Z" fill="#292928"/>
<path d="M96.0743 72.3041H92.1959V76.1824H96.0743V72.3041Z" fill="#292928"/>
<path d="M99.9527 72.3041L96.0743 72.3041V76.1824H99.9527V72.3041Z" fill="#292928"/>
<path d="M107.709 72.3041H103.831V76.1824H107.709V72.3041Z" fill="#292928"/>
<path d="M115.466 72.3041H111.588V76.1824H115.466V72.3041Z" fill="#292928"/>
<path d="M119.345 72.3041H115.466V76.1824H119.345V72.3041Z" fill="#292928"/>
<path d="M127.101 72.3041L123.223 72.3041V76.1824H127.101V72.3041Z" fill="#292928"/>
<path d="M134.858 72.3041H130.98V76.1824H134.858V72.3041Z" fill="#292928"/>
<path d="M146.493 72.3041H142.615V76.1824H146.493V72.3041Z" fill="#292928"/>
<path d="M154.25 72.3041L150.372 72.3041V76.1824H154.25V72.3041Z" fill="#292928"/>
<path d="M22.3851 76.1824H18.5068V80.0608H22.3851V76.1824Z" fill="#292928"/>
<path d="M41.777 76.1824H37.8986V80.0608H41.777V76.1824Z" fill="#292928"/>
<path d="M45.6554 76.1824H41.777V80.0608H45.6554V76.1824Z" fill="#292928"/>
<path d="M53.4122 76.1824H49.5338V80.0608H53.4122V76.1824Z" fill="#292928"/>
<path d="M61.1689 76.1824L57.2905 76.1824L57.2905 80.0608H61.1689V76.1824Z" fill="#292928"/>
<path d="M88.3176 76.1824H84.4392V80.0608H88.3176V76.1824Z" fill="#292928"/>
<path d="M96.0743 76.1824H92.1959V80.0608H96.0743V76.1824Z" fill="#292928"/>
<path d="M111.588 76.1824H107.709V80.0608H111.588V76.1824Z" fill="#292928"/>
<path d="M115.466 76.1824H111.588V80.0608H115.466V76.1824Z" fill="#292928"/>
<path d="M119.345 76.1824H115.466V80.0608H119.345V76.1824Z" fill="#292928"/>
<path d="M123.223 76.1824H119.345V80.0608H123.223V76.1824Z" fill="#292928"/>
<path d="M127.101 76.1824H123.223V80.0608H127.101V76.1824Z" fill="#292928"/>
<path d="M130.98 76.1824H127.101V80.0608H130.98V76.1824Z" fill="#292928"/>
<path d="M138.736 76.1824L134.858 76.1824V80.0608H138.736V76.1824Z" fill="#292928"/>
<path d="M142.615 76.1824L138.736 76.1824V80.0608H142.615V76.1824Z" fill="#292928"/>
<path d="M154.25 76.1824H150.372V80.0608H154.25V76.1824Z" fill="#292928"/>
<path d="M14.6284 80.0608H10.75V83.9392H14.6284V80.0608Z" fill="#292928"/>
<path d="M30.1419 80.0608H26.2635V83.9392H30.1419V80.0608Z" fill="#292928"/>
<path d="M37.8986 80.0608L34.0203 80.0608V83.9392H37.8986V80.0608Z" fill="#292928"/>
<path d="M41.777 80.0608H37.8986V83.9392H41.777V80.0608Z" fill="#292928"/>
<path d="M45.6554 80.0608H41.777V83.9392H45.6554V80.0608Z" fill="#292928"/>
<path d="M49.5338 80.0608H45.6554V83.9392H49.5338V80.0608Z" fill="#292928"/>
<path d="M57.2905 80.0608H53.4122V83.9392H57.2905L57.2905 80.0608Z" fill="#292928"/>
<path d="M99.9527 80.0608L96.0743 80.0608V83.9392H99.9527V80.0608Z" fill="#292928"/>
<path d="M103.831 80.0608H99.9527V83.9392H103.831V80.0608Z" fill="#292928"/>
<path d="M107.709 80.0608L103.831 80.0608V83.9392H107.709V80.0608Z" fill="#292928"/>
<path d="M111.588 80.0608H107.709V83.9392H111.588V80.0608Z" fill="#292928"/>
<path d="M119.345 80.0608H115.466V83.9392H119.345V80.0608Z" fill="#292928"/>
<path d="M127.101 80.0608H123.223V83.9392H127.101V80.0608Z" fill="#292928"/>
<path d="M18.5068 83.9392H14.6284V87.8176H18.5068V83.9392Z" fill="#292928"/>
<path d="M22.3851 83.9392H18.5068V87.8176H22.3851V83.9392Z" fill="#292928"/>
<path d="M34.0203 83.9392H30.1419V87.8176H34.0203V83.9392Z" fill="#292928"/>
<path d="M49.5338 83.9392H45.6554V87.8176H49.5338V83.9392Z" fill="#292928"/>
<path d="M53.4122 83.9392H49.5338V87.8176H53.4122V83.9392Z" fill="#292928"/>
<path d="M57.2905 83.9392H53.4122V87.8176H57.2905V83.9392Z" fill="#292928"/>
<path d="M65.0473 83.9392H61.1689V87.8176H65.0473V83.9392Z" fill="#292928"/>
<path d="M72.8041 83.9392H68.9257V87.8176H72.8041V83.9392Z" fill="#292928"/>
<path d="M76.6824 83.9392H72.8041V87.8176H76.6824V83.9392Z" fill="#292928"/>
<path d="M80.5608 83.9392H76.6824V87.8176H80.5608V83.9392Z" fill="#292928"/>
<path d="M84.4392 83.9392H80.5608V87.8176H84.4392V83.9392Z" fill="#292928"/>
<path d="M88.3176 83.9392H84.4392V87.8176H88.3176V83.9392Z" fill="#292928"/>
<path d="M92.1959 83.9392H88.3176V87.8176H92.1959V83.9392Z" fill="#292928"/>
<path d="M99.9527 83.9392H96.0743V87.8176H99.9527V83.9392Z" fill="#292928"/>
<path d="M103.831 83.9392H99.9527V87.8176H103.831V83.9392Z" fill="#292928"/>
<path d="M119.345 83.9392H115.466V87.8176H119.345V83.9392Z" fill="#292928"/>
<path d="M123.223 83.9392H119.345V87.8176H123.223V83.9392Z" fill="#292928"/>
<path d="M134.858 83.9392H130.98V87.8176H134.858V83.9392Z" fill="#292928"/>
<path d="M138.736 83.9392H134.858V87.8176H138.736V83.9392Z" fill="#292928"/>
<path d="M142.615 83.9392H138.736V87.8176H142.615V83.9392Z" fill="#292928"/>
<path d="M154.25 83.9392H150.372V87.8176H154.25V83.9392Z" fill="#292928"/>
<path d="M22.3851 87.8176H18.5068V91.6959H22.3851V87.8176Z" fill="#292928"/>
<path d="M26.2635 87.8176H22.3851V91.6959H26.2635V87.8176Z" fill="#292928"/>
<path d="M34.0203 87.8176H30.1419V91.6959H34.0203V87.8176Z" fill="#292928"/>
<path d="M37.8986 87.8176H34.0203V91.6959H37.8986V87.8176Z" fill="#292928"/>
<path d="M45.6554 87.8176H41.777V91.6959H45.6554V87.8176Z" fill="#292928"/>
<path d="M57.2905 87.8176H53.4122V91.6959H57.2905V87.8176Z" fill="#292928"/>
<path d="M65.0473 87.8176H61.1689V91.6959H65.0473V87.8176Z" fill="#292928"/>
<path d="M76.6824 87.8176H72.8041L72.8041 91.6959H76.6824V87.8176Z" fill="#292928"/>
<path d="M84.4392 87.8176H80.5608L80.5608 91.6959H84.4392V87.8176Z" fill="#292928"/>
<path d="M88.3176 87.8176H84.4392V91.6959H88.3176V87.8176Z" fill="#292928"/>
<path d="M92.1959 87.8176H88.3176V91.6959H92.1959V87.8176Z" fill="#292928"/>
<path d="M96.0743 87.8176H92.1959V91.6959H96.0743V87.8176Z" fill="#292928"/>
<path d="M103.831 87.8176H99.9527V91.6959H103.831V87.8176Z" fill="#292928"/>
<path d="M115.466 87.8176H111.588V91.6959H115.466V87.8176Z" fill="#292928"/>
<path d="M123.223 87.8176H119.345V91.6959H123.223V87.8176Z" fill="#292928"/>
<path d="M134.858 87.8176H130.98V91.6959H134.858V87.8176Z" fill="#292928"/>
<path d="M142.615 87.8176H138.736V91.6959H142.615V87.8176Z" fill="#292928"/>
<path d="M146.493 87.8176H142.615V91.6959H146.493V87.8176Z" fill="#292928"/>
<path d="M154.25 87.8176H150.372V91.6959H154.25V87.8176Z" fill="#292928"/>
<path d="M41.777 91.6959H37.8986V95.5743H41.777V91.6959Z" fill="#292928"/>
<path d="M49.5338 91.6959H45.6554V95.5743H49.5338V91.6959Z" fill="#292928"/>
<path d="M57.2905 91.6959H53.4122V95.5743H57.2905V91.6959Z" fill="#292928"/>
<path d="M61.1689 91.6959H57.2905V95.5743H61.1689L61.1689 91.6959Z" fill="#292928"/>
<path d="M68.9257 91.6959H65.0473V95.5743H68.9257V91.6959Z" fill="#292928"/>
<path d="M72.8041 91.6959H68.9257V95.5743H72.8041L72.8041 91.6959Z" fill="#292928"/>
<path d="M84.4392 91.6959H80.5608V95.5743H84.4392V91.6959Z" fill="#292928"/>
<path d="M88.3176 91.6959H84.4392V95.5743H88.3176V91.6959Z" fill="#292928"/>
<path d="M92.1959 91.6959H88.3176V95.5743H92.1959V91.6959Z" fill="#292928"/>
<path d="M99.9527 91.6959H96.0743V95.5743H99.9527V91.6959Z" fill="#292928"/>
<path d="M111.588 91.6959H107.709V95.5743H111.588V91.6959Z" fill="#292928"/>
<path d="M115.466 91.6959H111.588V95.5743H115.466V91.6959Z" fill="#292928"/>
<path d="M119.345 91.6959H115.466V95.5743H119.345V91.6959Z" fill="#292928"/>
<path d="M123.223 91.6959H119.345V95.5743H123.223V91.6959Z" fill="#292928"/>
<path d="M127.101 91.6959H123.223V95.5743H127.101V91.6959Z" fill="#292928"/>
<path d="M134.858 91.6959H130.98V95.5743H134.858V91.6959Z" fill="#292928"/>
<path d="M142.615 91.6959H138.736V95.5743H142.615V91.6959Z" fill="#292928"/>
<path d="M150.372 91.6959H146.493V95.5743H150.372V91.6959Z" fill="#292928"/>
<path d="M154.25 91.6959H150.372V95.5743H154.25V91.6959Z" fill="#292928"/>
<path d="M18.5068 95.5743H14.6284V99.4527H18.5068V95.5743Z" fill="#292928"/>
<path d="M26.2635 95.5743H22.3851V99.4527H26.2635V95.5743Z" fill="#292928"/>
<path d="M30.1419 95.5743H26.2635V99.4527H30.1419V95.5743Z" fill="#292928"/>
<path d="M37.8986 95.5743H34.0203V99.4527H37.8986V95.5743Z" fill="#292928"/>
<path d="M41.777 95.5743H37.8986V99.4527H41.777V95.5743Z" fill="#292928"/>
<path d="M45.6554 95.5743H41.777V99.4527H45.6554V95.5743Z" fill="#292928"/>
<path d="M53.4122 95.5743H49.5338V99.4527H53.4122V95.5743Z" fill="#292928"/>
<path d="M65.0473 95.5743H61.1689L61.1689 99.4527H65.0473V95.5743Z" fill="#292928"/>
<path d="M68.9257 95.5743H65.0473V99.4527H68.9257V95.5743Z" fill="#292928"/>
<path d="M96.0743 95.5743H92.1959V99.4527H96.0743V95.5743Z" fill="#292928"/>
<path d="M99.9527 95.5743H96.0743V99.4527H99.9527V95.5743Z" fill="#292928"/>
<path d="M111.588 95.5743H107.709V99.4527H111.588V95.5743Z" fill="#292928"/>
<path d="M115.466 95.5743H111.588V99.4527H115.466V95.5743Z" fill="#292928"/>
<path d="M123.223 95.5743H119.345V99.4527H123.223V95.5743Z" fill="#292928"/>
<path d="M130.98 95.5743H127.101V99.4527H130.98V95.5743Z" fill="#292928"/>
<path d="M138.736 95.5743H134.858V99.4527H138.736V95.5743Z" fill="#292928"/>
<path d="M142.615 95.5743H138.736V99.4527H142.615V95.5743Z" fill="#292928"/>
<path d="M146.493 95.5743H142.615V99.4527H146.493V95.5743Z" fill="#292928"/>
<path d="M150.372 95.5743H146.493V99.4527H150.372V95.5743Z" fill="#292928"/>
<path d="M154.25 95.5743H150.372V99.4527H154.25V95.5743Z" fill="#292928"/>
<path d="M14.6284 99.4527H10.75V103.331H14.6284V99.4527Z" fill="#292928"/>
<path d="M18.5068 99.4527H14.6284V103.331H18.5068V99.4527Z" fill="#292928"/>
<path d="M22.3851 99.4527H18.5068V103.331H22.3851V99.4527Z" fill="#292928"/>
<path d="M26.2635 99.4527H22.3851V103.331H26.2635V99.4527Z" fill="#292928"/>
<path d="M30.1419 99.4527H26.2635V103.331H30.1419V99.4527Z" fill="#292928"/>
<path d="M57.2905 99.4527H53.4122V103.331H57.2905V99.4527Z" fill="#292928"/>
<path d="M68.9257 99.4527H65.0473V103.331H68.9257V99.4527Z" fill="#292928"/>
<path d="M72.8041 99.4527H68.9257V103.331H72.8041V99.4527Z" fill="#292928"/>
<path d="M76.6824 99.4527H72.8041V103.331H76.6824V99.4527Z" fill="#292928"/>
<path d="M80.5608 99.4527H76.6824V103.331H80.5608V99.4527Z" fill="#292928"/>
<path d="M103.831 99.4527H99.9527V103.331H103.831V99.4527Z" fill="#292928"/>
<path d="M107.709 99.4527H103.831V103.331H107.709V99.4527Z" fill="#292928"/>
<path d="M115.466 99.4527H111.588V103.331H115.466V99.4527Z" fill="#292928"/>
<path d="M119.345 99.4527H115.466V103.331H119.345V99.4527Z" fill="#292928"/>
<path d="M127.101 99.4527H123.223V103.331H127.101V99.4527Z" fill="#292928"/>
<path d="M138.736 99.4527H134.858V103.331H138.736V99.4527Z" fill="#292928"/>
<path d="M150.372 99.4527H146.493V103.331H150.372V99.4527Z" fill="#292928"/>
<path d="M18.5068 103.331H14.6284V107.209H18.5068V103.331Z" fill="#292928"/>
<path d="M26.2635 103.331H22.3851V107.209H26.2635V103.331Z" fill="#292928"/>
<path d="M34.0203 103.331H30.1419V107.209H34.0203V103.331Z" fill="#292928"/>
<path d="M37.8986 103.331H34.0203V107.209H37.8986V103.331Z" fill="#292928"/>
<path d="M41.777 103.331H37.8986V107.209H41.777V103.331Z" fill="#292928"/>
<path d="M45.6554 103.331H41.777V107.209H45.6554V103.331Z" fill="#292928"/>
<path d="M49.5338 103.331H45.6554V107.209H49.5338V103.331Z" fill="#292928"/>
<path d="M57.2905 103.331H53.4122V107.209H57.2905V103.331Z" fill="#292928"/>
<path d="M61.1689 103.331H57.2905V107.209H61.1689V103.331Z" fill="#292928"/>
<path d="M72.8041 103.331H68.9257L68.9257 107.209H72.8041V103.331Z" fill="#292928"/>
<path d="M76.6824 103.331H72.8041V107.209H76.6824V103.331Z" fill="#292928"/>
<path d="M80.5608 103.331H76.6824V107.209H80.5608V103.331Z" fill="#292928"/>
<path d="M84.4392 103.331H80.5608V107.209H84.4392V103.331Z" fill="#292928"/>
<path d="M88.3176 103.331H84.4392V107.209H88.3176V103.331Z" fill="#292928"/>
<path d="M92.1959 103.331H88.3176V107.209H92.1959V103.331Z" fill="#292928"/>
<path d="M96.0743 103.331H92.1959V107.209H96.0743V103.331Z" fill="#292928"/>
<path d="M103.831 103.331H99.9527V107.209H103.831V103.331Z" fill="#292928"/>
<path d="M107.709 103.331H103.831V107.209H107.709V103.331Z" fill="#292928"/>
<path d="M111.588 103.331H107.709V107.209H111.588V103.331Z" fill="#292928"/>
<path d="M119.345 103.331H115.466V107.209H119.345V103.331Z" fill="#292928"/>
<path d="M123.223 103.331H119.345V107.209H123.223V103.331Z" fill="#292928"/>
<path d="M127.101 103.331H123.223V107.209H127.101V103.331Z" fill="#292928"/>
<path d="M138.736 103.331H134.858V107.209H138.736V103.331Z" fill="#292928"/>
<path d="M142.615 103.331H138.736V107.209H142.615V103.331Z" fill="#292928"/>
<path d="M154.25 103.331H150.372V107.209H154.25V103.331Z" fill="#292928"/>
<path d="M14.6284 107.209H10.75V111.088H14.6284V107.209Z" fill="#292928"/>
<path d="M18.5068 107.209H14.6284V111.088H18.5068V107.209Z" fill="#292928"/>
<path d="M45.6554 107.209H41.777V111.088H45.6554V107.209Z" fill="#292928"/>
<path d="M49.5338 107.209H45.6554V111.088H49.5338V107.209Z" fill="#292928"/>
<path d="M57.2905 107.209H53.4122V111.088H57.2905V107.209Z" fill="#292928"/>
<path d="M61.1689 107.209H57.2905V111.088H61.1689V107.209Z" fill="#292928"/>
<path d="M72.8041 107.209H68.9257V111.088H72.8041V107.209Z" fill="#292928"/>
<path d="M92.1959 107.209H88.3176V111.088H92.1959V107.209Z" fill="#292928"/>
<path d="M96.0743 107.209H92.1959V111.088H96.0743V107.209Z" fill="#292928"/>
<path d="M99.9527 107.209H96.0743V111.088H99.9527V107.209Z" fill="#292928"/>
<path d="M103.831 107.209H99.9527V111.088H103.831V107.209Z" fill="#292928"/>
<path d="M107.709 107.209H103.831V111.088H107.709V107.209Z" fill="#292928"/>
<path d="M119.345 107.209H115.466V111.088H119.345V107.209Z" fill="#292928"/>
<path d="M127.101 107.209H123.223V111.088H127.101V107.209Z" fill="#292928"/>
<path d="M130.98 107.209H127.101V111.088H130.98V107.209Z" fill="#292928"/>
<path d="M138.736 107.209H134.858V111.088H138.736V107.209Z" fill="#292928"/>
<path d="M150.372 107.209H146.493V111.088H150.372V107.209Z" fill="#292928"/>
<path d="M154.25 107.209H150.372V111.088H154.25V107.209Z" fill="#292928"/>
<path d="M14.6284 111.088H10.75V114.966H14.6284V111.088Z" fill="#292928"/>
<path d="M18.5068 111.088H14.6284V114.966H18.5068V111.088Z" fill="#292928"/>
<path d="M22.3851 111.088H18.5068V114.966H22.3851V111.088Z" fill="#292928"/>
<path d="M26.2635 111.088H22.3851V114.966H26.2635V111.088Z" fill="#292928"/>
<path d="M30.1419 111.088H26.2635V114.966H30.1419V111.088Z" fill="#292928"/>
<path d="M37.8986 111.088H34.0203V114.966H37.8986V111.088Z" fill="#292928"/>
<path d="M45.6554 111.088H41.777V114.966H45.6554V111.088Z" fill="#292928"/>
<path d="M49.5338 111.088H45.6554V114.966H49.5338V111.088Z" fill="#292928"/>
<path d="M80.5608 111.088H76.6824V114.966H80.5608V111.088Z" fill="#292928"/>
<path d="M92.1959 111.088H88.3176V114.966H92.1959V111.088Z" fill="#292928"/>
<path d="M99.9527 111.088H96.0743V114.966H99.9527V111.088Z" fill="#292928"/>
<path d="M111.588 111.088H107.709V114.966H111.588V111.088Z" fill="#292928"/>
<path d="M115.466 111.088H111.588V114.966H115.466V111.088Z" fill="#292928"/>
<path d="M119.345 111.088H115.466V114.966H119.345V111.088Z" fill="#292928"/>
<path d="M123.223 111.088H119.345V114.966H123.223V111.088Z" fill="#292928"/>
<path d="M127.101 111.088H123.223V114.966H127.101V111.088Z" fill="#292928"/>
<path d="M130.98 111.088H127.101V114.966H130.98V111.088Z" fill="#292928"/>
<path d="M134.858 111.088H130.98V114.966H134.858V111.088Z" fill="#292928"/>
<path d="M138.736 111.088H134.858V114.966H138.736V111.088Z" fill="#292928"/>
<path d="M142.615 111.088H138.736V114.966H142.615V111.088Z" fill="#292928"/>
<path d="M150.372 111.088H146.493V114.966H150.372V111.088Z" fill="#292928"/>
<path d="M14.6284 114.966H10.75V118.845H14.6284V114.966Z" fill="#292928"/>
<path d="M18.5068 114.966H14.6284V118.845H18.5068V114.966Z" fill="#292928"/>
<path d="M22.3851 114.966H18.5068V118.845H22.3851V114.966Z" fill="#292928"/>
<path d="M26.2635 114.966H22.3851V118.845H26.2635V114.966Z" fill="#292928"/>
<path d="M30.1419 114.966H26.2635V118.845H30.1419V114.966Z" fill="#292928"/>
<path d="M34.0203 114.966H30.1419V118.845H34.0203V114.966Z" fill="#292928"/>
<path d="M45.6554 114.966H41.777V118.845H45.6554V114.966Z" fill="#292928"/>
<path d="M61.1689 114.966H57.2905V118.845H61.1689V114.966Z" fill="#292928"/>
<path d="M88.3176 114.966H84.4392V118.845H88.3176V114.966Z" fill="#292928"/>
<path d="M107.709 114.966H103.831V118.845H107.709V114.966Z" fill="#292928"/>
<path d="M127.101 114.966H123.223V118.845H127.101V114.966Z" fill="#292928"/>
<path d="M130.98 114.966H127.101V118.845H130.98V114.966Z" fill="#292928"/>
<path d="M134.858 114.966H130.98V118.845H134.858V114.966Z" fill="#292928"/>
<path d="M150.372 114.966H146.493V118.845H150.372V114.966Z" fill="#292928"/>
<path d="M154.25 114.966H150.372V118.845H154.25V114.966Z" fill="#292928"/>
<path d="M14.6284 118.845H10.75V122.723H14.6284V118.845Z" fill="#292928"/>
<path d="M18.5068 118.845H14.6284V122.723H18.5068V118.845Z" fill="#292928"/>
<path d="M22.3851 118.845H18.5068V122.723H22.3851V118.845Z" fill="#292928"/>
<path d="M30.1419 118.845H26.2635V122.723H30.1419V118.845Z" fill="#292928"/>
<path d="M34.0203 118.845H30.1419V122.723H34.0203V118.845Z" fill="#292928"/>
<path d="M37.8986 118.845H34.0203V122.723H37.8986V118.845Z" fill="#292928"/>
<path d="M49.5338 118.845H45.6554V122.723H49.5338V118.845Z" fill="#292928"/>
<path d="M53.4122 118.845H49.5338V122.723H53.4122V118.845Z" fill="#292928"/>
<path d="M57.2905 118.845H53.4122V122.723H57.2905L57.2905 118.845Z" fill="#292928"/>
<path d="M61.1689 118.845H57.2905L57.2905 122.723H61.1689V118.845Z" fill="#292928"/>
<path d="M72.8041 118.845H68.9257V122.723H72.8041V118.845Z" fill="#292928"/>
<path d="M80.5608 118.845H76.6824V122.723H80.5608V118.845Z" fill="#292928"/>
<path d="M84.4392 118.845H80.5608V122.723H84.4392V118.845Z" fill="#292928"/>
<path d="M92.1959 118.845H88.3176V122.723H92.1959V118.845Z" fill="#292928"/>
<path d="M96.0743 118.845H92.1959V122.723H96.0743V118.845Z" fill="#292928"/>
<path d="M103.831 118.845H99.9527V122.723H103.831V118.845Z" fill="#292928"/>
<path d="M123.223 118.845H119.345V122.723H123.223V118.845Z" fill="#292928"/>
<path d="M127.101 118.845H123.223V122.723H127.101V118.845Z" fill="#292928"/>
<path d="M130.98 118.845H127.101V122.723H130.98V118.845Z" fill="#292928"/>
<path d="M134.858 118.845H130.98V122.723H134.858V118.845Z" fill="#292928"/>
<path d="M138.736 118.845H134.858V122.723H138.736V118.845Z" fill="#292928"/>
<path d="M146.493 118.845H142.615V122.723H146.493V118.845Z" fill="#292928"/>
<path d="M150.372 118.845H146.493V122.723H150.372V118.845Z" fill="#292928"/>
<path d="M154.25 118.845H150.372V122.723H154.25V118.845Z" fill="#292928"/>
<path d="M45.6554 122.723H41.777V126.601H45.6554V122.723Z" fill="#292928"/>
<path d="M49.5338 122.723H45.6554V126.601H49.5338V122.723Z" fill="#292928"/>
<path d="M61.1689 122.723H57.2905L57.2905 126.601H61.1689V122.723Z" fill="#292928"/>
<path d="M65.0473 122.723H61.1689V126.601H65.0473V122.723Z" fill="#292928"/>
<path d="M72.8041 122.723H68.9257V126.601H72.8041V122.723Z" fill="#292928"/>
<path d="M76.6824 122.723H72.8041V126.601H76.6824L76.6824 122.723Z" fill="#292928"/>
<path d="M84.4392 122.723H80.5608L80.5608 126.601H84.4392V122.723Z" fill="#292928"/>
<path d="M88.3176 122.723H84.4392V126.601H88.3176V122.723Z" fill="#292928"/>
<path d="M96.0743 122.723H92.1959V126.601H96.0743V122.723Z" fill="#292928"/>
<path d="M99.9527 122.723H96.0743V126.601H99.9527V122.723Z" fill="#292928"/>
<path d="M107.709 122.723H103.831V126.601H107.709V122.723Z" fill="#292928"/>
<path d="M115.466 122.723H111.588V126.601H115.466V122.723Z" fill="#292928"/>
<path d="M123.223 122.723H119.345V126.601H123.223V122.723Z" fill="#292928"/>
<path d="M138.736 122.723H134.858V126.601H138.736V122.723Z" fill="#292928"/>
<path d="M146.493 122.723H142.615V126.601H146.493V122.723Z" fill="#292928"/>
<path d="M150.372 122.723H146.493V126.601H150.372V122.723Z" fill="#292928"/>
<path d="M154.25 122.723H150.372V126.601H154.25V122.723Z" fill="#292928"/>
<path d="M14.6284 126.601H10.75V130.48H14.6284V126.601Z" fill="#292928"/>
<path d="M18.5068 126.601H14.6284V130.48H18.5068V126.601Z" fill="#292928"/>
<path d="M22.3851 126.601H18.5068V130.48H22.3851V126.601Z" fill="#292928"/>
<path d="M26.2635 126.601H22.3851V130.48H26.2635V126.601Z" fill="#292928"/>
<path d="M30.1419 126.601H26.2635V130.48H30.1419V126.601Z" fill="#292928"/>
<path d="M34.0203 126.601H30.1419V130.48H34.0203V126.601Z" fill="#292928"/>
<path d="M37.8986 126.601H34.0203V130.48H37.8986V126.601Z" fill="#292928"/>
<path d="M49.5338 126.601H45.6554V130.48H49.5338V126.601Z" fill="#292928"/>
<path d="M53.4122 126.601H49.5338V130.48H53.4122V126.601Z" fill="#292928"/>
<path d="M61.1689 126.601H57.2905V130.48H61.1689V126.601Z" fill="#292928"/>
<path d="M65.0473 126.601H61.1689V130.48H65.0473V126.601Z" fill="#292928"/>
<path d="M72.8041 126.601H68.9257V130.48H72.8041V126.601Z" fill="#292928"/>
<path d="M76.6824 126.601H72.8041V130.48H76.6824V126.601Z" fill="#292928"/>
<path d="M80.5608 126.601H76.6824V130.48H80.5608L80.5608 126.601Z" fill="#292928"/>
<path d="M92.1959 126.601H88.3176V130.48H92.1959V126.601Z" fill="#292928"/>
<path d="M96.0743 126.601H92.1959V130.48H96.0743V126.601Z" fill="#292928"/>
<path d="M99.9527 126.601H96.0743V130.48H99.9527V126.601Z" fill="#292928"/>
<path d="M107.709 126.601H103.831V130.48H107.709V126.601Z" fill="#292928"/>
<path d="M111.588 126.601H107.709V130.48H111.588V126.601Z" fill="#292928"/>
<path d="M115.466 126.601H111.588V130.48H115.466V126.601Z" fill="#292928"/>
<path d="M123.223 126.601H119.345V130.48H123.223V126.601Z" fill="#292928"/>
<path d="M130.98 126.601H127.101V130.48H130.98V126.601Z" fill="#292928"/>
<path d="M138.736 126.601H134.858V130.48H138.736V126.601Z" fill="#292928"/>
<path d="M154.25 126.601H150.372V130.48H154.25V126.601Z" fill="#292928"/>
<path d="M14.6284 130.48H10.75V134.358H14.6284V130.48Z" fill="#292928"/>
<path d="M37.8986 130.48H34.0203V134.358H37.8986V130.48Z" fill="#292928"/>
<path d="M45.6554 130.48H41.777V134.358H45.6554V130.48Z" fill="#292928"/>
<path d="M61.1689 130.48H57.2905V134.358H61.1689V130.48Z" fill="#292928"/>
<path d="M65.0473 130.48H61.1689V134.358H65.0473V130.48Z" fill="#292928"/>
<path d="M68.9257 130.48H65.0473V134.358H68.9257L68.9257 130.48Z" fill="#292928"/>
<path d="M76.6824 130.48H72.8041L72.8041 134.358H76.6824V130.48Z" fill="#292928"/>
<path d="M84.4392 130.48H80.5608L80.5608 134.358H84.4392V130.48Z" fill="#292928"/>
<path d="M96.0743 130.48H92.1959V134.358H96.0743V130.48Z" fill="#292928"/>
<path d="M111.588 130.48H107.709V134.358H111.588V130.48Z" fill="#292928"/>
<path d="M123.223 130.48H119.345V134.358H123.223V130.48Z" fill="#292928"/>
<path d="M138.736 130.48H134.858V134.358H138.736V130.48Z" fill="#292928"/>
<path d="M142.615 130.48H138.736V134.358H142.615V130.48Z" fill="#292928"/>
<path d="M146.493 130.48H142.615V134.358H146.493V130.48Z" fill="#292928"/>
<path d="M150.372 130.48H146.493V134.358H150.372V130.48Z" fill="#292928"/>
<path d="M14.6284 134.358H10.75V138.236H14.6284V134.358Z" fill="#292928"/>
<path d="M22.3851 134.358H18.5068V138.236H22.3851V134.358Z" fill="#292928"/>
<path d="M26.2635 134.358H22.3851V138.236H26.2635V134.358Z" fill="#292928"/>
<path d="M30.1419 134.358H26.2635V138.236H30.1419V134.358Z" fill="#292928"/>
<path d="M37.8986 134.358H34.0203V138.236H37.8986V134.358Z" fill="#292928"/>
<path d="M68.9257 134.358H65.0473V138.236H68.9257V134.358Z" fill="#292928"/>
<path d="M72.8041 134.358H68.9257V138.236H72.8041L72.8041 134.358Z" fill="#292928"/>
<path d="M80.5608 134.358H76.6824L76.6824 138.236H80.5608L80.5608 134.358Z" fill="#292928"/>
<path d="M92.1959 134.358H88.3176V138.236H92.1959V134.358Z" fill="#292928"/>
<path d="M115.466 134.358H111.588V138.236H115.466V134.358Z" fill="#292928"/>
<path d="M119.345 134.358H115.466V138.236H119.345V134.358Z" fill="#292928"/>
<path d="M123.223 134.358H119.345V138.236H123.223V134.358Z" fill="#292928"/>
<path d="M127.101 134.358H123.223V138.236H127.101V134.358Z" fill="#292928"/>
<path d="M130.98 134.358H127.101V138.236H130.98V134.358Z" fill="#292928"/>
<path d="M134.858 134.358H130.98V138.236H134.858V134.358Z" fill="#292928"/>
<path d="M138.736 134.358H134.858V138.236H138.736V134.358Z" fill="#292928"/>
<path d="M142.615 134.358H138.736V138.236H142.615V134.358Z" fill="#292928"/>
<path d="M146.493 134.358H142.615V138.236H146.493V134.358Z" fill="#292928"/>
<path d="M14.6284 138.236H10.75V142.115H14.6284V138.236Z" fill="#292928"/>
<path d="M22.3851 138.236H18.5068V142.115H22.3851V138.236Z" fill="#292928"/>
<path d="M26.2635 138.236H22.3851V142.115H26.2635V138.236Z" fill="#292928"/>
<path d="M30.1419 138.236H26.2635V142.115H30.1419V138.236Z" fill="#292928"/>
<path d="M37.8986 138.236H34.0203V142.115H37.8986V138.236Z" fill="#292928"/>
<path d="M57.2905 138.236H53.4122V142.115H57.2905V138.236Z" fill="#292928"/>
<path d="M61.1689 138.236H57.2905V142.115H61.1689V138.236Z" fill="#292928"/>
<path d="M76.6824 138.236H72.8041L72.8041 142.115H76.6824L76.6824 138.236Z" fill="#292928"/>
<path d="M84.4392 138.236H80.5608L80.5608 142.115H84.4392V138.236Z" fill="#292928"/>
<path d="M96.0743 138.236H92.1959V142.115H96.0743V138.236Z" fill="#292928"/>
<path d="M107.709 138.236H103.831V142.115H107.709V138.236Z" fill="#292928"/>
<path d="M127.101 138.236H123.223V142.115H127.101V138.236Z" fill="#292928"/>
<path d="M130.98 138.236H127.101V142.115H130.98V138.236Z" fill="#292928"/>
<path d="M134.858 138.236H130.98V142.115H134.858V138.236Z" fill="#292928"/>
<path d="M138.736 138.236H134.858V142.115H138.736V138.236Z" fill="#292928"/>
<path d="M146.493 138.236H142.615V142.115H146.493V138.236Z" fill="#292928"/>
<path d="M150.372 138.236H146.493V142.115H150.372V138.236Z" fill="#292928"/>
<path d="M14.6284 142.115H10.75V145.993H14.6284V142.115Z" fill="#292928"/>
<path d="M22.3851 142.115H18.5068V145.993H22.3851V142.115Z" fill="#292928"/>
<path d="M26.2635 142.115H22.3851V145.993H26.2635V142.115Z" fill="#292928"/>
<path d="M30.1419 142.115H26.2635V145.993H30.1419V142.115Z" fill="#292928"/>
<path d="M37.8986 142.115H34.0203V145.993H37.8986V142.115Z" fill="#292928"/>
<path d="M65.0473 142.115H61.1689L61.1689 145.993H65.0473V142.115Z" fill="#292928"/>
<path d="M68.9257 142.115H65.0473V145.993H68.9257V142.115Z" fill="#292928"/>
<path d="M76.6824 142.115H72.8041V145.993H76.6824V142.115Z" fill="#292928"/>
<path d="M80.5608 142.115H76.6824V145.993H80.5608L80.5608 142.115Z" fill="#292928"/>
<path d="M84.4392 142.115H80.5608L80.5608 145.993H84.4392V142.115Z" fill="#292928"/>
<path d="M88.3176 142.115H84.4392V145.993H88.3176V142.115Z" fill="#292928"/>
<path d="M123.223 142.115H119.345V145.993H123.223V142.115Z" fill="#292928"/>
<path d="M134.858 142.115H130.98V145.993H134.858V142.115Z" fill="#292928"/>
<path d="M146.493 142.115H142.615V145.993H146.493V142.115Z" fill="#292928"/>
<path d="M14.6284 145.993H10.75V149.872H14.6284V145.993Z" fill="#292928"/>
<path d="M37.8986 145.993H34.0203V149.872H37.8986V145.993Z" fill="#292928"/>
<path d="M53.4122 145.993H49.5338V149.872H53.4122V145.993Z" fill="#292928"/>
<path d="M61.1689 145.993H57.2905V149.872H61.1689L61.1689 145.993Z" fill="#292928"/>
<path d="M65.0473 145.993H61.1689L61.1689 149.872H65.0473V145.993Z" fill="#292928"/>
<path d="M80.5608 145.993H76.6824L76.6824 149.872H80.5608V145.993Z" fill="#292928"/>
<path d="M84.4392 145.993H80.5608V149.872H84.4392V145.993Z" fill="#292928"/>
<path d="M88.3176 145.993H84.4392V149.872H88.3176V145.993Z" fill="#292928"/>
<path d="M92.1959 145.993H88.3176V149.872H92.1959V145.993Z" fill="#292928"/>
<path d="M96.0743 145.993H92.1959V149.872H96.0743V145.993Z" fill="#292928"/>
<path d="M99.9527 145.993H96.0743V149.872H99.9527V145.993Z" fill="#292928"/>
<path d="M103.831 145.993H99.9527V149.872H103.831V145.993Z" fill="#292928"/>
<path d="M107.709 145.993H103.831V149.872H107.709V145.993Z" fill="#292928"/>
<path d="M111.588 145.993H107.709V149.872H111.588V145.993Z" fill="#292928"/>
<path d="M123.223 145.993H119.345V149.872H123.223V145.993Z" fill="#292928"/>
<path d="M127.101 145.993H123.223V149.872H127.101V145.993Z" fill="#292928"/>
<path d="M138.736 145.993H134.858V149.872H138.736V145.993Z" fill="#292928"/>
<path d="M142.615 145.993H138.736V149.872H142.615V145.993Z" fill="#292928"/>
<path d="M146.493 145.993H142.615V149.872H146.493V145.993Z" fill="#292928"/>
<path d="M154.25 145.993H150.372V149.872H154.25V145.993Z" fill="#292928"/>
<path d="M14.6284 149.872H10.75V153.75H14.6284V149.872Z" fill="#292928"/>
<path d="M18.5068 149.872H14.6284V153.75H18.5068V149.872Z" fill="#292928"/>
<path d="M22.3851 149.872H18.5068V153.75H22.3851V149.872Z" fill="#292928"/>
<path d="M26.2635 149.872H22.3851V153.75H26.2635V149.872Z" fill="#292928"/>
<path d="M30.1419 149.872H26.2635V153.75H30.1419V149.872Z" fill="#292928"/>
<path d="M34.0203 149.872H30.1419V153.75H34.0203V149.872Z" fill="#292928"/>
<path d="M37.8986 149.872H34.0203V153.75H37.8986V149.872Z" fill="#292928"/>
<path d="M49.5338 149.872H45.6554V153.75H49.5338V149.872Z" fill="#292928"/>
<path d="M53.4122 149.872H49.5338V153.75H53.4122V149.872Z" fill="#292928"/>
<path d="M61.1689 149.872H57.2905V153.75H61.1689V149.872Z" fill="#292928"/>
<path d="M65.0473 149.872H61.1689V153.75H65.0473V149.872Z" fill="#292928"/>
<path d="M68.9257 149.872H65.0473V153.75H68.9257V149.872Z" fill="#292928"/>
<path d="M80.5608 149.872H76.6824V153.75H80.5608V149.872Z" fill="#292928"/>
<path d="M84.4392 149.872H80.5608V153.75H84.4392V149.872Z" fill="#292928"/>
<path d="M96.0743 149.872H92.1959V153.75H96.0743V149.872Z" fill="#292928"/>
<path d="M99.9527 149.872H96.0743V153.75H99.9527V149.872Z" fill="#292928"/>
<path d="M103.831 149.872H99.9527V153.75H103.831V149.872Z" fill="#292928"/>
<path d="M111.588 149.872H107.709V153.75H111.588V149.872Z" fill="#292928"/>
<path d="M115.466 149.872H111.588V153.75H115.466V149.872Z" fill="#292928"/>
<path d="M123.223 149.872H119.345V153.75H123.223V149.872Z" fill="#292928"/>
<path d="M127.101 149.872H123.223V153.75H127.101V149.872Z" fill="#292928"/>
<path d="M130.98 149.872H127.101V153.75H130.98V149.872Z" fill="#292928"/>
<path d="M134.858 149.872H130.98V153.75H134.858V149.872Z" fill="#292928"/>
<path d="M138.736 149.872H134.858V153.75H138.736V149.872Z" fill="#292928"/>
<path d="M146.493 149.872H142.615V153.75H146.493V149.872Z" fill="#292928"/>
<path d="M154.25 149.872H150.372V153.75H154.25V149.872Z" fill="#292928"/>
</g>
<defs>
<clipPath id="clip0_10162_36051">
<rect width="164" height="164" fill="white" transform="translate(0.5)"/>
</clipPath>
</defs>
</svg>
