<svg width="64" height="64" viewBox="0 0 64 64" fill="none" xmlns="http://www.w3.org/2000/svg">
<path d="M4.0957 12.2563C5.25685 15.3649 7.46027 17.7192 9.71399 19.3878M30.8568 22.4095H22.3814M44.9551 29.2758C44.652 29.2758 44.3613 29.1554 44.147 28.941C43.9327 28.7267 43.8123 28.436 43.8123 28.1329C43.8123 27.8298 43.9327 27.5391 44.147 27.3248C44.3613 27.1105 44.652 26.9901 44.9551 26.9901C45.2582 26.9901 45.5489 27.1105 45.7633 27.3248C45.9776 27.5391 46.098 27.8298 46.098 28.1329C46.098 28.436 45.9776 28.7267 45.7633 28.941C45.5489 29.1554 45.2582 29.2758 44.9551 29.2758Z" stroke="#E88D0E" stroke-width="3" stroke-linecap="round" stroke-linejoin="round"/>
<path d="M48.4755 5.83783V15.3144C55.6206 18.2858 56.9052 23.3647 56.9052 30.0024L60.9052 33.2893V43.4333C58.5463 48.503 54.1897 51.1453 48.4755 53.1704V57.6687C48.4755 58.2749 48.2346 58.8563 47.806 59.2849C47.3773 59.7136 46.7959 59.9544 46.1897 59.9544H38.1897C37.5835 59.9544 37.0021 59.7136 36.5735 59.2849C36.1448 58.8563 35.904 58.2749 35.904 57.6687V53.1704H21.5497V57.3121C21.5497 57.9183 21.3089 58.4997 20.8803 58.9284C20.4516 59.357 19.8702 59.5978 19.264 59.5978H11.1909C10.5847 59.5978 10.0033 59.357 9.57464 58.9284C9.14598 58.4997 8.90517 57.9183 8.90517 57.3121V49.2207C8.90517 49.0058 8.4846 47.8355 7.9406 46.0253C6.34974 40.7315 3.70288 31.7898 7.50631 23.3693C10.6926 16.3155 18.4 10.9304 35.0492 11.863C37.4354 5.55441 43.7623 3.90412 46.9897 4.04583C47.9086 4.09155 48.4755 4.9144 48.4755 5.83783Z" stroke="#E88D0E" stroke-width="3" stroke-linecap="round" stroke-linejoin="round"/>
</svg>
