<svg width="24" height="24" viewBox="0 0 24 24" fill="none" xmlns="http://www.w3.org/2000/svg">
<path fill-rule="evenodd" clip-rule="evenodd" d="M12.5996 3.56543C13.8167 1.20829 16.3384 0.603144 17.6619 0.663144C18.6099 0.706002 19.0367 1.54772 19.0367 2.18886V5.194C20.2367 5.79743 21.0407 6.60314 21.5344 7.606C22.0196 8.59514 22.167 9.706 22.1927 10.8443L23.3842 11.8214C23.4823 11.9019 23.5614 12.0031 23.6156 12.1179C23.6699 12.2326 23.698 12.3579 23.6979 12.4849V16.2889C23.6975 16.4133 23.67 16.5361 23.6173 16.6489C22.6779 18.67 21.0133 19.762 19.0367 20.5351V21.6271C19.0367 22.0818 18.8561 22.5178 18.5346 22.8393C18.2131 23.1608 17.7771 23.3414 17.3224 23.3414H14.3224C13.8678 23.3414 13.4318 23.1608 13.1103 22.8393C12.7888 22.5178 12.6082 22.0818 12.6082 21.6271V20.7974H8.93959V21.4934C8.93959 21.9481 8.75898 22.3841 8.43749 22.7056C8.116 23.0271 7.67996 23.2077 7.22531 23.2077H4.19616C3.74151 23.2077 3.30547 23.0271 2.98398 22.7056C2.66249 22.3841 2.48188 21.9481 2.48188 21.4934V18.5517L2.41673 18.3443L2.38245 18.2363L2.15616 17.5077L2.14759 17.482C1.5613 15.5226 0.469305 11.8831 2.03445 8.41172C2.15 8.1512 2.28169 7.89813 2.42873 7.654C1.61959 7.01114 0.807019 6.10772 0.357876 4.90086C0.271826 4.63804 0.290731 4.35213 0.410637 4.10292C0.530543 3.85372 0.742162 3.66053 1.00123 3.56377C1.2603 3.46701 1.54675 3.47416 1.80066 3.58374C2.05457 3.69332 2.25628 3.89684 2.36359 4.15172C2.64645 4.906 3.17959 5.51972 3.78473 5.99457C4.36332 5.47502 5.01406 5.04195 5.71673 4.70886C7.42588 3.89114 9.67673 3.46772 12.5996 3.56714V3.56543ZM12.6442 8.40314C12.6442 8.99457 12.1642 9.47457 11.5727 9.47457H8.39445C8.11029 9.47457 7.83776 9.36169 7.63683 9.16076C7.4359 8.95983 7.32302 8.6873 7.32302 8.40314C7.32302 8.11898 7.4359 7.84646 7.63683 7.64553C7.83776 7.4446 8.11029 7.33172 8.39445 7.33172H11.5727C12.1659 7.33172 12.6442 7.81172 12.6442 8.40314ZM16.8596 11.8609C17.0375 11.87 17.2153 11.8428 17.3823 11.781C17.5494 11.7192 17.7021 11.6241 17.8312 11.5014C17.9603 11.3787 18.0631 11.2311 18.1333 11.0674C18.2036 10.9038 18.2398 10.7275 18.2398 10.5494C18.2398 10.3713 18.2036 10.1951 18.1333 10.0315C18.0631 9.8678 17.9603 9.72015 17.8312 9.59748C17.7021 9.47481 17.5494 9.37968 17.3823 9.31788C17.2153 9.25608 17.0375 9.2289 16.8596 9.238C16.5234 9.2552 16.2066 9.40087 15.9747 9.64492C15.7428 9.88898 15.6135 10.2128 15.6135 10.5494C15.6135 10.8861 15.7428 11.2099 15.9747 11.4539C16.2066 11.698 16.5234 11.8437 16.8596 11.8609Z" fill="black"/>
</svg>
