<svg width="17" height="16" viewBox="0 0 17 16" fill="none" xmlns="http://www.w3.org/2000/svg">
<path d="M9.41542 11.3486L6.61615 9.82164C6.12952 10.3417 5.43703 10.6667 4.66862 10.6667C3.19586 10.6667 2.00195 9.47277 2.00195 8.00004C2.00195 6.52728 3.19586 5.33337 4.66862 5.33337C5.43699 5.33337 6.12945 5.65835 6.61607 6.17835L9.41542 4.65146C9.36309 4.44298 9.33529 4.22475 9.33529 4.00004C9.33529 2.52728 10.5292 1.33337 12.002 1.33337C13.4747 1.33337 14.6686 2.52728 14.6686 4.00004C14.6686 5.4728 13.4747 6.66671 12.002 6.66671C11.2336 6.66671 10.5411 6.34171 10.0544 5.82168L7.25513 7.34857C7.30749 7.55704 7.33529 7.77531 7.33529 8.00004C7.33529 8.22477 7.30749 8.44297 7.25516 8.65144L10.0545 10.1784C10.5411 9.65837 11.2336 9.33337 12.002 9.33337C13.4747 9.33337 14.6686 10.5273 14.6686 12C14.6686 13.4728 13.4747 14.6667 12.002 14.6667C10.5292 14.6667 9.33529 13.4728 9.33529 12C9.33529 11.7753 9.36309 11.557 9.41542 11.3486ZM4.66862 9.33337C5.405 9.33337 6.00195 8.73644 6.00195 8.00004C6.00195 7.26364 5.405 6.66671 4.66862 6.66671C3.93224 6.66671 3.33529 7.26364 3.33529 8.00004C3.33529 8.73644 3.93224 9.33337 4.66862 9.33337ZM12.002 5.33337C12.7384 5.33337 13.3353 4.73642 13.3353 4.00004C13.3353 3.26366 12.7384 2.66671 12.002 2.66671C11.2656 2.66671 10.6686 3.26366 10.6686 4.00004C10.6686 4.73642 11.2656 5.33337 12.002 5.33337ZM12.002 13.3334C12.7384 13.3334 13.3353 12.7364 13.3353 12C13.3353 11.2636 12.7384 10.6667 12.002 10.6667C11.2656 10.6667 10.6686 11.2636 10.6686 12C10.6686 12.7364 11.2656 13.3334 12.002 13.3334Z" fill="#676563"/>
</svg>
