<svg width="18" height="18" viewBox="0 0 18 18" fill="none" xmlns="http://www.w3.org/2000/svg">
<path d="M12 6.18403V11.625C12 14.3174 9.81742 16.5 7.125 16.5C4.43261 16.5 2.25 14.3174 2.25 11.625C2.25 8.93257 4.43261 6.75 7.125 6.75C7.51223 6.75 7.88888 6.79514 8.25 6.88045V9.2526C7.90905 9.0906 7.5276 9 7.125 9C5.67525 9 4.5 10.1752 4.5 11.625C4.5 13.0747 5.67525 14.25 7.125 14.25C8.57475 14.25 9.75 13.0747 9.75 11.625V1.5H12C12 3.57106 13.679 5.25 15.75 5.25V7.5C14.3311 7.5 13.0272 7.00746 12 6.18403Z" fill="#ACA9A6"/>
</svg>
