<svg width="769" height="253" viewBox="0 0 769 253" fill="none" xmlns="http://www.w3.org/2000/svg">
<path d="M237.379 143.717C237.379 143.717 311.301 58.7257 355.241 59.0031C399.207 59.2806 447.096 114.978 509.632 162.56C579.733 215.876 488.209 218.119 482.911 218.558C477.638 218.998 295.355 213.148 292.324 210.281C289.292 207.414 240.614 170.537 240.614 170.537L237.379 143.717Z" fill="#C5DDF9"/>
<path d="M616.608 146.28H619.741V114.859H616.608V146.28Z" fill="#355389"/>
<path d="M618.197 53.8933L628.386 128.665H608.008L618.197 53.8933Z" fill="#3C8F7C"/>
<path d="M624.691 101.544L610.146 112.873L610.707 108.758L624.233 98.2378L624.691 101.544Z" fill="#50BFA5"/>
<path d="M622.449 85.1518L613.559 87.9262L613.966 84.8512L622.066 82.3311L622.449 85.1518Z" fill="#50BFA5"/>
<path d="M191.247 90.9321L200.366 157.704H182.153L191.247 90.9321Z" fill="#3C8F7C"/>
<path d="M207.295 100.759L214.223 151.601H200.366L207.295 100.759Z" fill="#3C8F7C"/>
<path d="M221.153 115.879L228.082 166.744H214.225L221.153 115.879Z" fill="#3C8F7C"/>
<path d="M174.234 105.846L183.327 172.618H165.114L174.234 105.846Z" fill="#3C8F7C"/>
<path d="M208.646 126.608C287.612 138.538 406.085 245.702 496.31 245.702C586.534 245.702 605.97 220.061 639.823 225.495C673.651 230.905 719.094 245.702 719.094 245.702L48.5244 247.506C48.5244 247.506 129.681 114.701 208.646 126.608Z" fill="#86B1F2"/>
<path d="M494.45 95.3955L503.569 162.145H485.356L494.45 95.3955Z" fill="#3C8F7C"/>
<path d="M516.126 115.047L523.054 165.889H509.197L516.126 115.047Z" fill="#3C8F7C"/>
<path d="M461.514 142.191L468.442 193.033H454.585L461.514 142.191Z" fill="#3C8F7C"/>
<path d="M477.435 110.284L486.528 177.057H468.315L477.435 110.284Z" fill="#3C8F7C"/>
<path d="M566.538 126.608C487.573 138.538 369.099 245.702 278.874 245.702C188.624 245.702 169.214 220.061 135.361 225.495C101.533 230.905 56.0898 245.702 56.0898 245.702L726.66 247.506C726.66 247.506 645.478 114.701 566.538 126.608Z" fill="#86B1F2"/>
<path d="M539.496 226.664H543.062V190.803H539.496V226.664Z" fill="#355389"/>
<path d="M541.295 121.266L552.911 206.581H529.654L541.295 121.266Z" fill="#3C8F7C"/>
<path d="M548.707 175.646L532.124 188.547L532.761 183.877L548.172 171.854L548.707 175.646Z" fill="#50BFA5"/>
<path d="M546.16 156.941L535.996 160.085L536.48 156.594L545.701 153.727L546.16 156.941Z" fill="#50BFA5"/>
<path d="M579.779 241.952H583.167V187.873H579.779V241.952Z" fill="#355389"/>
<path d="M580.573 91.4641L597.334 200.617H563.837L580.573 91.4641Z" fill="#3C8F7C"/>
<path d="M596.263 193.681L566.205 185.08L566.664 182.12L595.779 190.467L596.263 193.681Z" fill="#50BFA5"/>
<path d="M590.99 159.208L571.07 153.497L571.503 150.537L590.481 155.971L590.99 159.208Z" fill="#50BFA5"/>
<path d="M48.5244 247.506C48.5244 247.506 135.106 179.254 246.728 175.069C284.198 173.659 437.697 201.889 566.946 224.061C572.371 224.986 584.114 234.119 589.617 235.067C650.802 245.517 707.836 247.714 726.278 248.384L48.5244 247.506Z" fill="#96D9C9"/>
<path d="M744.438 172.433L744.566 166.561C744.566 162.191 740.898 158.677 736.389 158.677C725.003 158.677 715.756 167.578 715.756 178.56V186.583C715.756 190.097 713.693 193.149 710.687 194.698C707.936 196.086 706.28 198.883 706.28 201.866V206.097C706.28 210.675 708.522 214.952 712.215 217.819C714.381 219.507 715.782 222.073 715.782 224.963V230.952C715.782 237.587 721.36 242.951 728.238 242.951H732.161C739.038 242.951 744.617 237.587 744.617 230.952C743.496 222.582 746.222 217.75 749.38 214.975C754.016 210.906 756.742 205.195 756.742 199.161V198.305C756.742 191.924 753.685 185.959 748.59 181.89C746.272 180.132 744.438 177.219 744.438 172.433Z" fill="#4E9B87"/>
<path d="M757.252 249.909C757.252 249.909 725.462 211.598 705.465 205.726C685.469 199.853 704.319 223.182 704.319 223.182C704.319 223.182 668.836 187.969 655.819 191.137C643.898 194.05 655.819 215.876 655.819 215.876C655.819 215.876 642.369 203.784 626.067 203.784C609.764 203.784 638.676 249.031 638.676 249.031L757.252 249.909Z" fill="#96D9C9"/>
<path d="M655.819 249.054C655.819 249.054 634.091 196.316 607.192 202.42C585.387 207.368 600.9 233.887 599.55 232.685C598.225 231.483 586.533 213.472 567.607 213.472C548.681 213.472 573.415 237.771 573.415 237.771C573.415 237.771 533.117 226.35 529.958 238.349C527.335 248.314 541.981 249.054 541.981 249.054H655.819Z" fill="#3C8F7C"/>
<path d="M159.176 239.205C159.304 238.558 159.355 237.864 159.355 237.194C159.355 229.564 151.484 223.368 141.753 223.368C132.022 223.368 124.151 229.564 124.151 237.194C124.151 237.887 124.202 238.558 124.33 239.205H159.176Z" fill="#3C8F7C"/>
<path d="M179.096 235.807C179.224 234.882 179.275 233.934 179.275 232.963C179.275 222.212 171.404 213.472 161.673 213.472C151.942 213.472 144.071 222.189 144.071 232.963C144.071 233.934 144.122 234.882 144.25 235.807H179.096Z" fill="#50BFA5"/>
<path d="M172.652 247.76C172.525 247.112 172.474 246.419 172.474 245.748C172.474 238.118 180.345 231.922 190.075 231.922C199.806 231.922 207.677 238.118 207.677 245.748C207.677 246.442 207.626 247.112 207.499 247.76H172.652Z" fill="#50BFA5"/>
<path d="M144.506 247.76C144.353 246.835 144.276 245.888 144.276 244.916C144.276 234.165 154.262 225.426 166.59 225.426C178.919 225.426 188.905 234.142 188.905 244.916C188.905 245.888 188.828 246.835 188.675 247.76H144.506Z" fill="#3C8F7C"/>
<path d="M161.622 225.426C155.458 225.426 149.956 228.2 146.339 232.524C144.479 232.131 142.518 231.9 140.48 231.9C129.552 231.9 120.688 238.096 120.688 245.726C120.688 246.419 120.764 247.09 120.891 247.737H181.211C181.338 246.812 181.415 245.864 181.415 244.893C181.415 234.165 172.55 225.426 161.622 225.426Z" fill="#50BFA5"/>
<path d="M85.3324 206.72C80.1615 199.368 79.1935 190.513 79.2954 184.362C79.3973 177.681 80.7728 172.687 80.7728 172.64L80.3907 172.525C80.3652 172.571 79.0152 177.611 78.8878 184.339C78.7859 190.559 79.7539 199.506 85.0013 206.951L85.3324 206.72Z" fill="#3C8F7C"/>
<path d="M82.0454 171.391C81.918 172.894 81.1793 174.166 80.1095 174.952C79.1924 173.912 78.683 172.455 78.8104 170.952C78.9377 169.449 79.6764 168.178 80.7463 167.392C81.6633 168.455 82.1728 169.889 82.0454 171.391Z" fill="#3C8F7C"/>
<path d="M78.5288 174.883C79.4204 176.201 79.6751 177.681 79.3949 178.976C78.0448 178.675 76.7457 177.82 75.8797 176.525C74.9881 175.207 74.7334 173.727 75.0136 172.433C76.3636 172.733 77.6628 173.589 78.5288 174.883Z" fill="#3C8F7C"/>
<path d="M76.5682 178.999C77.9437 179.808 78.8607 181.056 79.2173 182.351C77.9182 182.675 76.3898 182.49 75.0398 181.681C73.6643 180.871 72.7472 179.623 72.3906 178.328C73.6643 177.981 75.1926 178.189 76.5682 178.999Z" fill="#3C8F7C"/>
<path d="M77.1782 184.709C78.248 185.356 78.9358 186.443 79.1141 187.645C77.9933 188.084 76.7197 188.038 75.6498 187.391C74.5799 186.743 73.8922 185.657 73.7139 184.454C74.8092 184.015 76.0828 184.061 77.1782 184.709Z" fill="#3C8F7C"/>
<path d="M81.6374 177.936C82.8601 177.358 84.2102 177.311 85.3819 177.728C85.0763 178.86 84.2611 179.901 83.0384 180.479C81.8157 181.057 80.4657 181.103 79.2939 180.687C79.5996 179.554 80.4147 178.514 81.6374 177.936Z" fill="#3C8F7C"/>
<path d="M81.5105 181.889C82.7332 181.311 84.0832 181.265 85.255 181.681C84.9493 182.814 84.1342 183.854 82.9115 184.432C81.6888 185.01 80.3387 185.057 79.167 184.64C79.4727 183.484 80.2878 182.467 81.5105 181.889Z" fill="#3C8F7C"/>
<path d="M77.944 190.975C78.5808 191.114 79.1157 191.507 79.4469 192.016C78.9884 192.362 78.377 192.501 77.7402 192.385C77.1034 192.247 76.5685 191.854 76.2373 191.345C76.6958 190.998 77.3072 190.836 77.944 190.975Z" fill="#3C8F7C"/>
<path d="M83.1925 211.9C71.3476 209.333 62.3048 201.357 56.8027 195.137C50.8421 188.386 47.6325 182.143 47.607 182.097L47.123 182.328C47.1485 182.398 50.3836 188.663 56.3697 195.461C61.9227 201.75 71.0674 209.796 83.0651 212.385L83.1925 211.9Z" fill="#3C8F7C"/>
<path d="M47.758 179.716C49.0062 181.335 49.4137 183.277 49.0826 185.034C47.2231 184.826 45.4145 183.855 44.1409 182.213C42.8672 180.572 42.4851 178.653 42.8163 176.896C44.7013 177.127 46.5098 178.075 47.758 179.716Z" fill="#3C8F7C"/>
<path d="M47.4531 186.398C49.5164 186.906 51.1467 188.132 52.0382 189.681C50.4334 190.629 48.3447 190.975 46.2814 190.467C44.2181 189.958 42.5878 188.733 41.6963 187.184C43.3011 186.236 45.3898 185.912 47.4531 186.398Z" fill="#3C8F7C"/>
<path d="M49.2117 192.317C51.3005 191.878 53.3638 192.271 54.9176 193.242C53.9242 194.768 52.2175 195.97 50.1288 196.41C48.04 196.849 45.9767 196.456 44.4229 195.485C45.4163 193.959 47.0975 192.757 49.2117 192.317Z" fill="#3C8F7C"/>
<path d="M53.9217 197.681C56.0105 197.242 58.0737 197.635 59.6276 198.606C58.6341 200.132 56.9275 201.334 54.8387 201.773C52.7499 202.212 50.6866 201.819 49.1328 200.848C50.1262 199.322 51.8329 198.143 53.9217 197.681Z" fill="#3C8F7C"/>
<path d="M52.522 188.756C52.4201 186.93 53.0824 185.196 54.2032 183.97C55.4514 184.941 56.3174 186.49 56.4193 188.34C56.5212 190.167 55.8589 191.901 54.7381 193.126C53.4645 192.132 52.6239 190.583 52.522 188.756Z" fill="#3C8F7C"/>
<path d="M57.437 194.305C57.3096 192.479 57.9465 190.745 59.0418 189.496C60.3154 190.444 61.207 191.993 61.3343 193.82C61.4617 195.646 60.8249 197.38 59.7295 198.629C58.4559 197.681 57.5644 196.132 57.437 194.305Z" fill="#3C8F7C"/>
<path d="M61.5142 202.999C62.2784 202.537 63.1699 202.444 63.9596 202.675C63.8322 203.438 63.3482 204.155 62.5841 204.617C61.8199 205.08 60.9283 205.172 60.1387 204.941C60.266 204.155 60.75 203.438 61.5142 202.999Z" fill="#3C8F7C"/>
<path d="M114.575 227.112L115.084 227.089C114.346 214.789 119.313 203.206 123.618 195.645C128.279 187.461 133.195 182.12 133.246 182.05L132.864 181.704C132.813 181.75 127.872 187.137 123.159 195.368C118.854 202.975 113.836 214.674 114.575 227.112Z" fill="#3C8F7C"/>
<path d="M135.512 181.334C134.34 183.114 132.659 184.224 130.952 184.548C130.672 182.675 131.08 180.594 132.251 178.791C133.423 177.01 135.104 175.901 136.811 175.577C137.091 177.45 136.684 179.554 135.512 181.334Z" fill="#3C8F7C"/>
<path d="M129.247 183.483C129.324 185.633 128.61 187.645 127.439 189.078C126.139 187.876 125.273 186.026 125.197 183.853C125.121 181.703 125.834 179.691 127.006 178.258C128.305 179.46 129.171 181.309 129.247 183.483Z" fill="#3C8F7C"/>
<path d="M124.253 187.322C125.221 189.172 125.4 191.276 124.89 193.125C123.235 192.732 121.681 191.553 120.713 189.703C119.745 187.854 119.566 185.75 120.076 183.9C121.732 184.293 123.285 185.495 124.253 187.322Z" fill="#3C8F7C"/>
<path d="M120.815 196.778C121.274 197.518 121.427 198.396 121.274 199.182C120.561 199.067 119.873 198.627 119.414 197.887C118.956 197.148 118.803 196.269 118.956 195.483C119.669 195.599 120.357 196.038 120.815 196.778Z" fill="#3C8F7C"/>
<path d="M119.337 200.177C119.795 200.917 119.948 201.796 119.795 202.582C119.082 202.466 118.394 202.027 117.936 201.287C117.477 200.547 117.324 199.668 117.477 198.882C118.19 198.998 118.878 199.437 119.337 200.177Z" fill="#3C8F7C"/>
<path d="M130.595 189.173C132.353 189.196 133.881 190.005 134.875 191.253C133.754 192.479 132.149 193.242 130.417 193.219C128.66 193.196 127.131 192.386 126.138 191.138C127.233 189.912 128.838 189.15 130.595 189.173Z" fill="#3C8F7C"/>
<path d="M127.743 193.957C129.501 193.98 131.029 194.789 132.022 196.038C130.902 197.263 129.297 198.026 127.565 198.003C125.807 197.98 124.279 197.171 123.285 195.922C124.406 194.697 126.011 193.934 127.743 193.957Z" fill="#3C8F7C"/>
<path d="M123.057 200.501C124.203 200.524 125.197 201.033 125.834 201.842C125.095 202.628 124.051 203.137 122.93 203.114C121.784 203.091 120.79 202.582 120.153 201.773C120.867 200.987 121.911 200.501 123.057 200.501Z" fill="#3C8F7C"/>
<path d="M70.3785 247.298C70.3785 245.241 84.0065 247.668 85.1527 244.871C86.299 242.073 73.4862 241.911 73.4862 238.143C73.4862 234.374 80.0072 237.01 83.8536 237.01C87.6745 237.01 76.2882 235.391 76.2882 234.05C76.2882 232.709 80.2874 233.426 80.2874 231.993C80.2874 230.582 59.2979 229.495 61.7688 226.027C64.2141 222.559 75.4986 227.045 78.6062 225.241C81.7139 223.438 62.0744 221.473 61.565 218.814C61.081 216.132 76.0335 221.103 78.1477 219.184C80.262 217.265 54.4836 210.352 55.5789 205.265C56.6487 200.179 75.1165 211.762 79.727 210.513C84.3376 209.265 56.4704 191.439 62.9405 184.503C69.4106 177.567 81.7903 207.485 86.0188 206.421C90.2473 205.358 80.7205 187.508 85.0508 184.41C89.3557 181.312 101.736 209.542 102.525 215.323C103.315 221.126 104.869 202.861 111.644 200.71C118.42 198.583 111.848 212.016 113.02 216.132C114.192 220.224 119.694 205.612 127.106 206.699C134.519 207.762 113.708 221.126 115.771 225.056C117.834 228.987 133.908 211.97 138.926 216.548C143.969 221.126 119.566 233.796 120.916 237.264C122.241 240.732 136.888 234.79 141.091 238.605C145.294 242.42 125.374 244.848 122.725 244.848C120.076 244.848 109.989 247.853 119.847 247.275C129.654 246.697 70.3785 249.333 70.3785 247.298Z" fill="#3C8F7C"/>
<path d="M109.225 249.656C109.225 249.656 125.629 250.465 130.418 247.714C135.207 244.985 131.437 242.858 131.437 242.858C131.437 242.858 146.619 242.558 146.568 239.298C146.542 236.038 142.849 236.223 142.849 236.223C142.849 236.223 150.516 231.506 149.089 228.547C146.899 224.015 134.417 231.899 134.417 231.899C134.417 231.899 138.518 227.483 135.207 226.466C126.113 223.645 109.225 249.656 109.225 249.656Z" fill="#50BFA5"/>
<path d="M149.088 228.546C150.515 231.482 142.848 236.222 142.848 236.222C142.848 236.222 148.375 236.152 147.484 239.32C146.592 242.487 132.684 243.551 132.684 243.551C132.684 243.551 137.549 244.406 132.76 247.135C127.972 249.863 109.224 249.632 109.224 249.632L149.088 228.546Z" fill="#96D9C9"/>
<path d="M42.0298 119.649C42.0553 118.84 43.2779 118.216 43.9402 118.932C44.5771 119.649 44.5516 119.164 45.1884 120.713C46.997 125.129 49.6716 129.406 52.7538 133.152C58.689 140.319 64.5732 143.926 71.247 147.509C68.496 141.891 66.6619 135.88 66.4327 129.822C66.3563 127.626 66.3817 125.337 67.4261 123.302C67.7063 122.747 68.8271 122.863 68.9545 123.487C69.5149 126.608 68.6997 128.967 69.7951 134.562C72.4442 147.902 82.9645 162.052 93.1281 171.971C91.1922 155.185 90.2497 136.134 93.714 119.21C94.2744 116.435 95.1914 113.8 96.032 111.071C96.2358 110.424 97.2292 110.701 97.1018 111.349C96.9235 112.25 95.2678 123.903 95.1659 124.689C93.5611 137.568 93.8668 151.856 95.1404 164.873C103.012 155.185 108.284 143.879 110.755 132.065C111.494 128.574 111.672 124.967 112.691 121.545C112.844 121.083 113.685 121.013 113.786 121.545C114.831 126.678 112.742 135.764 111.214 140.712C108.106 150.723 103.139 159.694 96.3631 167.694C96.1084 167.994 107.265 246.304 106.96 247.298C106.45 248.963 103.241 250.142 102.757 247.182C102.553 245.98 96.4141 198.375 93.663 176.318C92.6186 175.786 91.9564 174.861 89.2562 172.11C83.0409 165.752 76.8765 157.867 72.7754 150.4C70.3045 150.261 52.4736 142.4 43.6346 124.481C43.3798 123.973 42.2336 121.545 42.0553 120.99C41.8769 120.505 42.0043 120.112 42.0298 119.649Z" fill="#184655"/>
<path d="M99.2656 94.2618C99.0618 91.8573 98.96 89.3834 98.96 86.8863C98.96 58.9104 112.027 36.2522 128.177 36.2522C144.301 36.2522 157.394 58.9335 157.394 86.8863C157.394 89.3834 157.293 91.8573 157.089 94.2618H99.2656Z" fill="#50BFA5"/>
<path d="M66.2266 81.8236C66.0228 78.4248 65.9209 74.9567 65.9209 71.4193C65.9209 31.9755 78.9884 -0.000244141 95.1381 -0.000244141C111.288 -0.000244141 124.33 31.9524 124.33 71.3962C124.33 74.9336 124.228 78.4017 124.024 81.8005H66.2266V81.8236Z" fill="#96D9C9"/>
<path d="M76.9022 125.568C77.106 123.164 77.2079 120.69 77.2079 118.193C77.2079 90.2168 64.1404 67.5586 47.9907 67.5586C31.8664 67.5586 18.7734 90.2399 18.7734 118.193C18.7734 120.69 18.8753 123.164 19.0791 125.568H76.9022Z" fill="#96D9C9"/>
<path d="M123.671 125.568C123.926 122.169 124.053 118.701 124.053 115.164C124.053 75.7199 107.47 43.7441 87.0159 43.7441C66.5613 43.7441 49.9785 75.7199 49.9785 115.164C49.9785 118.701 50.1059 122.169 50.3606 125.568H123.671Z" fill="#50BFA5"/>
<path d="M95.2427 43.7441C105.457 43.7441 114.602 53.8941 120.614 69.8011C123.67 68.3445 126.931 67.5584 130.319 67.5584C148.455 67.5584 163.179 90.2397 163.179 118.192C163.179 120.69 163.051 123.163 162.822 125.568H62.714C62.4848 122.169 62.3574 118.701 62.3574 115.164C62.3829 75.7199 77.0807 43.7441 95.2427 43.7441Z" fill="#96D9C9"/>
<path d="M45.4924 235.969C45.5943 235.067 45.6452 234.119 45.6452 233.171C45.6452 222.605 39.0223 214.027 30.8456 214.027C22.6688 214.027 16.0459 222.605 16.0459 233.171C16.0459 234.119 16.0968 235.044 16.1987 235.969H45.4924Z" fill="#3C8F7C"/>
<path d="M62.2268 231.252C62.3287 229.957 62.3796 228.663 62.3796 227.322C62.3796 212.409 55.7567 200.34 47.5799 200.34C39.4032 200.34 32.7803 212.432 32.7803 227.322C32.7803 228.663 32.8312 229.98 32.9331 231.252H62.2268Z" fill="#50BFA5"/>
<path d="M56.8023 247.782C56.7004 246.881 56.6494 245.933 56.6494 244.985C56.6494 234.419 63.2723 225.841 71.4491 225.841C79.6258 225.841 86.2487 234.419 86.2487 244.985C86.2487 245.933 86.1978 246.857 86.0959 247.782H56.8023Z" fill="#50BFA5"/>
<path d="M33.1374 247.783C33.01 246.488 32.9336 245.193 32.9336 243.852C32.9336 228.939 41.3396 216.87 51.6815 216.87C62.0489 216.87 70.4295 228.962 70.4295 243.852C70.4295 245.193 70.3531 246.511 70.2257 247.783H33.1374Z" fill="#3C8F7C"/>
<path d="M47.5299 216.87C42.3589 216.87 37.7229 220.708 34.6662 226.72C33.1123 226.165 31.4566 225.864 29.7499 225.864C20.5543 225.864 13.1162 234.442 13.1162 245.008C13.1162 245.956 13.1672 246.881 13.2945 247.806H63.9853C64.1127 246.511 64.1636 245.216 64.1636 243.875C64.1636 228.962 56.7256 216.87 47.5299 216.87Z" fill="#50BFA5"/>
<path opacity="0.6" d="M450.33 130.738L345.543 122.589V128.94C345.543 132.536 348.578 135.52 352.456 135.635L445.272 139.04C447.422 139.116 449.487 138.237 450.71 136.591C451.764 135.214 452.227 133.263 450.33 130.738Z" fill="#C5DDF9"/>
<path opacity="0.7" d="M345.543 122.588V121.708L449.951 130.278L450.33 130.737L345.543 122.588Z" fill="#C5DDF9"/>
<path d="M348.957 134.678C348.957 134.678 350.685 135.75 352.877 135.711C352.877 135.711 349.969 136.515 349.885 136.477C349.8 136.4 348.325 135.329 348.367 135.329C348.367 135.252 348.957 134.678 348.957 134.678Z" fill="#F7CC7F"/>
<path d="M765.429 252.753H3.02987C1.42509 252.753 0.125977 251.574 0.125977 250.117C0.125977 248.661 1.42509 247.482 3.02987 247.482H765.429C767.034 247.482 768.333 248.661 768.333 250.117C768.307 251.574 767.034 252.753 765.429 252.753Z" fill="#E88D0E"/>
</svg>
