<svg width="17" height="16" viewBox="0 0 17 16" fill="none" xmlns="http://www.w3.org/2000/svg">
<path d="M7.00499 1.40255C6.07062 1.10008 5.05486 1.52081 4.60803 2.39541L4.07084 3.44686C4.00702 3.57179 3.90541 3.6734 3.78048 3.73723L2.72903 4.27441C1.85443 4.72125 1.4337 5.737 1.73617 6.67137L2.09981 7.79471C2.14302 7.92817 2.14302 8.07191 2.09981 8.20537L1.73617 9.32871C1.4337 10.2631 1.85443 11.2788 2.72903 11.7257L3.78048 12.2628C3.90541 12.3267 4.00702 12.4283 4.07084 12.5532L4.60803 13.6047C5.05486 14.4793 6.07062 14.9 7.00499 14.5976L8.12832 14.2339C8.26179 14.1907 8.40552 14.1907 8.53899 14.2339L9.66232 14.5976C10.5967 14.9 11.6125 14.4793 12.0593 13.6047L12.5965 12.5532C12.6603 12.4283 12.7619 12.3267 12.8869 12.2628L13.9383 11.7257C14.8129 11.2788 15.2337 10.2631 14.9312 9.32871L14.5675 8.20537C14.5243 8.07191 14.5243 7.92817 14.5675 7.79471L14.9312 6.67137C15.2337 5.737 14.8129 4.72125 13.9383 4.27441L12.8869 3.73723C12.7619 3.6734 12.6603 3.57179 12.5965 3.44686L12.0593 2.39541C11.6125 1.52081 10.5967 1.10008 9.66232 1.40255L8.53899 1.76619C8.40552 1.80939 8.26179 1.8094 8.12832 1.76619L7.00499 1.40255ZM4.84017 7.83824L5.78298 6.89537L7.66859 8.78104L11.4399 5.00981L12.3827 5.95261L7.66859 10.6666L4.84017 7.83824Z" fill="#292928"/>
</svg>
